<svg width="26" height="26" viewBox="0 0 26 26" fill="none" xmlns="http://www.w3.org/2000/svg">
<g id="aplicativo-movel 1" clip-path="url(#clip0_498_147)">
<g id="Group">
<path id="Vector" opacity="0.967" fill-rule="evenodd" clip-rule="evenodd" d="M7.13478 -0.0253906C11.028 -0.0253906 14.9212 -0.0253906 18.8145 -0.0253906C19.5559 0.217026 20.0044 0.724836 20.1602 1.49805C20.194 9.14911 20.194 16.8001 20.1602 24.4512C20.0044 25.2244 19.5559 25.7322 18.8145 25.9746C14.9212 25.9746 11.028 25.9746 7.13478 25.9746C6.39337 25.7322 5.94482 25.2244 5.78908 24.4512C5.7552 16.8001 5.7552 9.14911 5.78908 1.49805C5.94482 0.724836 6.39337 0.217026 7.13478 -0.0253906ZM7.43947 0.787109C11.1296 0.778644 14.8197 0.787109 18.5098 0.8125C18.9189 0.899966 19.1813 1.14541 19.2969 1.54883C19.3223 8.15039 19.3308 14.752 19.3223 21.3535C15.0905 21.3535 10.8587 21.3535 6.62697 21.3535C6.61849 14.752 6.62697 8.15039 6.65236 1.54883C6.77702 1.14475 7.03936 0.890845 7.43947 0.787109ZM13.9902 10.0801C14.3551 10.0977 14.499 10.284 14.4219 10.6387C13.8379 11.2227 13.2539 11.8066 12.6699 12.3906C12.5276 12.429 12.3922 12.4121 12.2637 12.3398C12.0352 12.1113 11.8067 11.8828 11.5781 11.6543C11.4311 11.2429 11.575 11.0482 12.0098 11.0703C12.1452 11.2057 12.2806 11.3411 12.416 11.4766C12.4668 11.5104 12.5176 11.5104 12.5684 11.4766C13.037 10.9994 13.511 10.5339 13.9902 10.0801ZM12.7715 22.7754C13.5447 22.7946 13.8071 23.1671 13.5586 23.8926C13.1693 24.2988 12.78 24.2988 12.3906 23.8926C12.157 23.3954 12.2839 23.0229 12.7715 22.7754Z" fill="#7217F3"/>
</g>
<g id="Group_2">
<path id="Vector_2" opacity="0.917" fill-rule="evenodd" clip-rule="evenodd" d="M10.9434 2.10742C12.2976 2.09896 13.6518 2.10742 15.0059 2.13281C15.316 2.36427 15.3329 2.61818 15.0566 2.89453C14.9889 2.91146 14.9212 2.92839 14.8535 2.94531C13.6009 2.97917 12.3483 2.97917 11.0957 2.94531C10.7215 2.84863 10.6115 2.62012 10.7656 2.25976C10.8238 2.20206 10.883 2.15128 10.9434 2.10742Z" fill="#7217F3"/>
</g>
<g id="Group_3">
<path id="Vector_3" opacity="0.971" fill-rule="evenodd" clip-rule="evenodd" d="M12.7207 7.74414C14.8177 7.78888 16.0618 8.83837 16.4531 10.8926C16.535 12.4813 15.8833 13.6577 14.498 14.4219C12.6662 15.12 11.1681 14.6884 10.0039 13.127C9.21557 11.6711 9.31714 10.2831 10.3086 8.96289C10.9624 8.25089 11.7665 7.84464 12.7207 7.74414ZM13.9902 10.0801C13.511 10.5339 13.037 10.9994 12.5684 11.4766C12.5176 11.5104 12.4668 11.5104 12.416 11.4766C12.2806 11.3411 12.1452 11.2057 12.0098 11.0703C11.575 11.0482 11.4311 11.2429 11.5781 11.6543C11.8066 11.8828 12.0352 12.1113 12.2637 12.3398C12.3921 12.4121 12.5276 12.429 12.6699 12.3906C13.2539 11.8066 13.8379 11.2227 14.4219 10.6387C14.499 10.284 14.3551 10.0977 13.9902 10.0801Z" fill="#7217F3"/>
</g>
</g>
<defs>
<clipPath id="clip0_498_147">
<rect width="26" height="26" fill="white"/>
</clipPath>
</defs>
</svg>
