<svg width="39" height="39" viewBox="0 0 39 39" fill="none" xmlns="http://www.w3.org/2000/svg">
<g id="archive-content 1">
<path id="Vector 1" d="M9.21753 23.0372H6.41577C3.65435 23.0372 1.41577 25.2758 1.41577 28.0372V33.2984C1.41577 36.0598 3.65435 38.2984 6.41577 38.2984H32.3994C35.1608 38.2984 37.3994 36.0598 37.3994 33.2984V28.0372C37.3994 25.2758 35.1608 23.0372 32.3994 23.0372H29.1478C27.7431 23.0372 26.6043 24.176 26.6043 25.5808C26.6043 26.9855 25.4655 28.1243 24.0608 28.1243H14.3046C12.8998 28.1243 11.7611 26.9855 11.7611 25.5808C11.7611 24.176 10.6223 23.0372 9.21753 23.0372Z" fill="black"/>
<g id="Group">
<path id="Vector" d="M8.61255 8.67377H30.2027" stroke="#161616" stroke-width="2" stroke-miterlimit="10" stroke-linecap="round" stroke-linejoin="round"/>
<path id="Vector_2" d="M8.61255 15.8555H30.2027" stroke="#161616" stroke-width="2" stroke-miterlimit="10" stroke-linecap="round" stroke-linejoin="round"/>
<path id="Vector_3" d="M1.41577 23.0372H12.2109V28.4235H26.6043V23.0372H37.3994" stroke="#161616" stroke-width="2" stroke-miterlimit="10" stroke-linecap="round" stroke-linejoin="round"/>
<path id="Vector_4" d="M33.801 1.49207H5.01413C3.02681 1.49207 1.41577 3.09975 1.41577 5.08293V33.8098C1.41577 35.793 3.02681 37.4007 5.01413 37.4007H33.801C35.7883 37.4007 37.3994 35.793 37.3994 33.8098V5.08293C37.3994 3.09975 35.7883 1.49207 33.801 1.49207Z" stroke="#161616" stroke-width="2" stroke-miterlimit="10" stroke-linecap="round" stroke-linejoin="round"/>
</g>
</g>
</svg>
