<svg width="113" height="36" viewBox="0 0 113 36" fill="none" xmlns="http://www.w3.org/2000/svg">
<g id="Auto Layout Vertical">
<g id="Group">
<path id="Vector" d="M60.8228 21.6576C60.8228 25.1221 56.4867 24.9164 56.4867 24.9164H52.1741V18.6297H56.5101C60.9509 18.6045 60.8228 21.6576 60.8228 21.6576ZM52.1741 9.05898H55.4582C58.8704 9.23943 58.7422 11.7783 58.7422 11.7783C58.7422 14.9342 54.971 14.9866 54.971 14.9866H52.1741V9.05898ZM60.027 16.2443C60.027 16.2443 62.9773 14.9866 62.952 11.6249C62.952 11.6249 63.4139 6.13399 56.1258 5.46634H48.069V28.4585H57.3077C57.3077 28.4585 65.0325 28.4838 65.0325 21.9661C65.056 21.9914 65.2364 17.5525 60.027 16.2443ZM39.1641 0.97509H73.1128V32.975H39.1641V0.97509Z" fill="white"/>
<path id="Vector_2" d="M21.6822 21.6576C21.6822 25.1221 17.3461 24.9164 17.3461 24.9164H13.01V18.6297H17.3461C21.8121 18.6045 21.6822 21.6576 21.6822 21.6576ZM13.01 9.05898H16.2941C19.7063 9.23943 19.5782 11.7783 19.5782 11.7783C19.5782 14.9342 15.8069 14.9866 15.8069 14.9866H13.01V9.05898ZM20.8611 16.2443C20.8611 16.2443 23.8114 14.9866 23.7861 11.6249C23.7861 11.6249 24.2481 6.13399 16.9599 5.46634H8.92837V28.4585H18.1671C18.1671 28.4585 25.8919 28.4838 25.8919 21.9661C25.8919 21.9914 26.0706 17.5525 20.8611 16.2443ZM0 0.97509H33.9487V32.975H0V0.97509Z" fill="white"/>
<path id="Vector_3" d="M105.326 7.13365V11.3939C105.326 11.3939 101.169 8.85328 96.6017 8.80275C96.6017 8.80275 88.0559 8.62231 87.6715 16.9877C87.6715 16.9877 87.363 24.6854 96.4989 25.1221C96.4989 25.1221 100.348 25.584 105.532 22.2729V26.6866C105.532 26.6866 98.5523 30.844 90.4684 27.6357C90.4684 27.6357 83.6675 25.1474 83.4113 17.013C83.4113 17.013 83.1298 8.64757 92.1881 5.85069C92.1881 5.85069 94.6006 4.92682 98.9619 5.33823C98.9619 5.31297 101.553 5.5692 105.326 7.13365ZM78.3047 32.975H112.253V0.97509H78.3047V32.975Z" fill="white"/>
</g>
</g>
</svg>
