<svg width="148" height="33" viewBox="0 0 148 33" fill="none" xmlns="http://www.w3.org/2000/svg">
<g id="Frame">
<path id="Vector" d="M136.948 26.4712C136.948 24.3973 138.632 22.7147 140.704 22.7147C142.778 22.7147 144.46 24.3973 144.46 26.4712C144.46 28.5451 142.778 30.2266 140.704 30.2266C138.632 30.2266 136.948 28.5451 136.948 26.4712Z" fill="white"/>
<path id="Vector_2" d="M17.1466 16.5193C17.1466 14.1399 16.6869 12.3747 15.7674 11.2247C14.8467 10.0758 13.452 9.50185 11.577 9.50185H9.5825V24.0519H11.1085C13.1911 24.0519 14.7173 23.4345 15.689 22.1954C16.6596 20.9585 17.1466 19.066 17.1466 16.5193ZM24.2597 16.2715C24.2597 20.6063 23.0944 23.9465 20.764 26.291C18.4335 28.6367 15.1575 29.8096 10.9346 29.8096H2.72913V3.83447H11.5074C15.5792 3.83447 18.7226 4.90077 20.9378 7.0323C23.152 9.16492 24.2597 12.2432 24.2597 16.2715Z" fill="white"/>
<path id="Vector_3" d="M46.9896 29.8141H53.519V3.73029H46.9896V29.8141Z" fill="white"/>
<path id="Vector_4" d="M62.6877 20.0778C62.6877 21.7408 62.9051 23.0093 63.3388 23.881C63.7736 24.7538 64.5018 25.1897 65.5257 25.1897C66.5388 25.1897 67.2551 24.7538 67.6725 23.881C68.0898 23.0093 68.2975 21.7408 68.2975 20.0778C68.2975 18.4234 68.0865 17.1756 67.6637 16.3332C67.2398 15.4886 66.5171 15.0657 65.4922 15.0657C64.49 15.0657 63.7736 15.4864 63.3388 16.3234C62.9051 17.1614 62.6877 18.4125 62.6877 20.0778ZM74.9432 20.0778C74.9432 23.2463 74.1127 25.718 72.4474 27.4897C70.7833 29.2626 68.454 30.1495 65.4595 30.1495C62.5877 30.1495 60.3017 29.243 58.605 27.4299C56.9062 25.6169 56.0573 23.1669 56.0573 20.0778C56.0573 16.9191 56.8889 14.4647 58.5541 12.7147C60.2192 10.9647 62.554 10.0897 65.5605 10.0897C67.4182 10.0897 69.0617 10.4951 70.4856 11.3049C71.9106 12.1147 73.0106 13.2745 73.7834 14.7854C74.5573 16.2941 74.9432 18.0593 74.9432 20.0778Z" fill="white"/>
<path id="Vector_5" d="M77.5365 29.8085H84.067V19.8259V10.4334H77.5365V29.8085Z" fill="white"/>
<path id="Vector_6" d="M77.5365 8.09141H84.067V3.7251H77.5365V8.09141Z" fill="white"/>
<path id="Vector_7" d="M97.2972 24.8689C98.1788 24.8689 99.2287 24.645 100.454 24.2005V29.0755C99.5732 29.4624 98.7364 29.7396 97.9407 29.9037C97.1451 30.07 96.2113 30.1526 95.1429 30.1526C92.9504 30.1526 91.37 29.6016 90.3993 28.5016C89.433 27.4016 88.9482 25.7124 88.9482 23.4331V15.4461H86.6614V10.4374H88.9482V5.48951L95.5288 4.34491V10.4374H99.6951V15.4461H95.5288V22.9874C95.5288 24.2418 96.119 24.8689 97.2972 24.8689Z" fill="white"/>
<path id="Vector_8" d="M112.413 24.8689C113.295 24.8689 114.345 24.645 115.57 24.2005V29.0755C114.69 29.4624 113.852 29.7396 113.057 29.9037C112.26 30.07 111.329 30.1526 110.259 30.1526C108.066 30.1526 106.486 29.6016 105.517 28.5016C104.549 27.4016 104.064 25.7124 104.064 23.4331V15.4461H101.776V10.4374H104.064V5.41452L110.644 4.34491V10.4374H114.812V15.4461H110.644V22.9874C110.644 24.2418 111.234 24.8689 112.413 24.8689Z" fill="white"/>
<path id="Vector_9" d="M123.814 17.7169C123.903 16.656 124.206 15.8788 124.724 15.3821C125.243 14.8864 125.885 14.6386 126.652 14.6386C127.489 14.6386 128.154 14.9168 128.647 15.4777C129.144 16.0353 129.403 16.7821 129.424 17.7169H123.814ZM133.023 12.3734C131.47 10.8516 129.268 10.0897 126.419 10.0897C123.425 10.0897 121.12 10.9647 119.505 12.7147C117.891 14.4647 117.083 16.9756 117.083 20.2473C117.083 23.4158 117.956 25.8593 119.697 27.5745C121.44 29.2897 123.887 30.1484 127.038 30.1484C128.551 30.1484 129.853 30.0452 130.944 29.8398C132.029 29.6365 133.079 29.2691 134.098 28.7386L133.094 24.3723C132.354 24.6745 131.65 24.9071 130.984 25.0604C130.024 25.2832 128.969 25.3952 127.821 25.3952C126.563 25.3952 125.569 25.0875 124.841 24.4723C124.113 23.856 123.725 23.006 123.68 21.9234H135.352V18.9484C135.352 16.0864 134.576 13.8941 133.023 12.3734Z" fill="white"/>
<path id="Vector_10" d="M32.9232 17.7169C33.0123 16.656 33.3156 15.8788 33.8329 15.3821C34.3514 14.8864 34.9939 14.6386 35.7625 14.6386C36.5973 14.6386 37.2624 14.9168 37.757 15.4777C38.2537 16.0353 38.5113 16.7821 38.5342 17.7169H32.9232ZM42.1331 12.3734C40.5799 10.8516 38.3787 10.0897 35.5287 10.0897C32.533 10.0897 30.2297 10.9647 28.6155 12.7147C27.0014 14.4647 26.1927 16.9756 26.1927 20.2473C26.1927 23.4158 27.0646 25.8593 28.808 27.5745C30.5493 29.2897 32.996 30.1484 36.1471 30.1484C37.6602 30.1484 38.9623 30.0452 40.0536 29.8398C41.1384 29.6365 42.1886 29.2691 43.2081 28.7386L42.2038 24.3723C41.4635 24.6745 40.7591 24.9071 40.095 25.0604C39.132 25.2832 38.0787 25.3952 36.9307 25.3952C35.6732 25.3952 34.6788 25.0875 33.9505 24.4723C33.2211 23.856 32.8342 23.006 32.7897 21.9234H44.4613V18.9484C44.4613 16.0864 43.6853 13.8941 42.1331 12.3734Z" fill="white"/>
</g>
</svg>
