<svg width="42" height="44" viewBox="0 0 42 44" fill="none" xmlns="http://www.w3.org/2000/svg">
<g clip-path="url(#clip0_19_118)">
<path opacity="0.946" fill-rule="evenodd" clip-rule="evenodd" d="M-0.0410156 15.6592C-0.0410156 14.5114 -0.0410156 13.3636 -0.0410156 12.2158C0.105476 11.8778 0.324225 11.5838 0.615234 11.334C0.949741 11.213 1.27787 11.0871 1.59961 10.9561C1.80065 10.2408 2.07409 9.55486 2.41992 8.89844C1.89378 8.11029 1.88011 7.31244 2.37891 6.50488C3.05422 5.75724 3.77883 5.07136 4.55273 4.44727C5.2448 4.2189 5.88737 4.31688 6.48047 4.74121C7.10335 4.42598 7.74592 4.16003 8.4082 3.94336C8.55258 3.39667 8.82599 2.92076 9.22852 2.51563C9.37412 2.39478 9.53818 2.3108 9.7207 2.26367C10.8144 2.20768 11.9082 2.20768 13.002 2.26367C13.7324 2.55041 14.1425 3.09631 14.2324 3.90137C14.9739 4.106 15.6712 4.41395 16.3242 4.8252C16.9911 4.23628 17.7156 4.1663 18.498 4.61523C19.1406 5.27311 19.7832 5.93099 20.4258 6.58887C20.9445 7.37705 20.9035 8.13291 20.3027 8.85645C20.6492 9.56561 20.95 10.2935 21.2051 11.04C22.0567 11.1421 22.5899 11.618 22.8047 12.4678C22.8594 13.4476 22.8594 14.4274 22.8047 15.4072C22.5899 16.257 22.0567 16.7329 21.2051 16.835C20.95 17.5815 20.6492 18.3094 20.3027 19.0186C20.9035 19.7421 20.9445 20.4979 20.4258 21.2861C19.7232 22.0617 18.9712 22.7756 18.1699 23.4277C17.4741 23.6867 16.8589 23.5607 16.3242 23.0498C15.6712 23.4611 14.9739 23.769 14.2324 23.9736C14.1425 24.7787 13.7324 25.3246 13.002 25.6113C11.9082 25.6673 10.8144 25.6673 9.7207 25.6113C8.98915 25.2877 8.55168 24.7277 8.4082 23.9316C7.74234 23.6887 7.08609 23.4228 6.43945 23.1338C5.68501 23.6735 4.91939 23.6874 4.14258 23.1758C3.55468 22.5739 2.9668 21.972 2.37891 21.3701C1.88011 20.5625 1.89378 19.7647 2.41992 18.9766C2.06848 18.2888 1.78137 17.5749 1.55859 16.835C0.794828 16.76 0.261625 16.3681 -0.0410156 15.6592ZM10.2949 3.98535C11.0059 3.98535 11.7168 3.98535 12.4277 3.98535C12.4142 4.26669 12.4279 4.54664 12.4688 4.8252C12.4971 5.02237 12.5929 5.17634 12.7559 5.28711C13.9281 5.58417 15.0218 6.06009 16.0371 6.71484C16.1893 6.75029 16.3397 6.79229 16.4883 6.84082C16.9061 6.68663 17.2753 6.47666 17.5957 6.21094C18.0606 6.68685 18.5254 7.16276 18.9902 7.63867C18.5038 7.97645 18.2987 8.43836 18.375 9.02441C19.0318 10.0897 19.4966 11.2375 19.7695 12.4678C19.8691 12.5979 19.9922 12.6958 20.1387 12.7617C20.4656 12.8036 20.7938 12.8177 21.123 12.8037C21.123 13.5596 21.123 14.3154 21.123 15.0713C20.7938 15.0573 20.4656 15.0714 20.1387 15.1133C19.9922 15.1792 19.8691 15.2771 19.7695 15.4072C19.4966 16.6375 19.0318 17.7853 18.375 18.8506C18.2987 19.4366 18.5038 19.8985 18.9902 20.2363C18.5254 20.7123 18.0606 21.1881 17.5957 21.6641C17.3689 21.6036 17.1774 21.4636 17.0215 21.2441C16.839 21.1492 16.6476 21.0792 16.4473 21.0342C15.9078 21.2543 15.3883 21.5203 14.8887 21.832C14.3027 22.0787 13.7012 22.2746 13.084 22.4199C12.8705 22.4941 12.6928 22.6201 12.5508 22.7979C12.445 23.1531 12.4039 23.5171 12.4277 23.8896C11.7168 23.8896 11.0059 23.8896 10.2949 23.8896C10.3985 23.3424 10.2618 22.8805 9.88477 22.5039C9.3304 22.362 8.7835 22.194 8.24414 22C7.59492 21.6536 6.93867 21.3317 6.27539 21.0342C5.86301 21.1406 5.52122 21.3646 5.25 21.7061C4.75659 21.2149 4.27808 20.711 3.81445 20.1943C4.00772 19.9825 4.18546 19.7586 4.34766 19.5225C4.40235 19.2705 4.40235 19.0186 4.34766 18.7666C3.70763 17.7635 3.27013 16.6717 3.03516 15.4912C2.91211 15.3652 2.78906 15.2393 2.66602 15.1133C2.31159 15.0714 1.95613 15.0573 1.59961 15.0713C1.59961 14.3154 1.59961 13.5596 1.59961 12.8037C1.92887 12.8177 2.25699 12.8036 2.58398 12.7617C2.73049 12.6958 2.85354 12.5979 2.95312 12.4678C3.24305 11.2686 3.70789 10.1488 4.34766 9.1084C4.40235 8.85645 4.40235 8.60449 4.34766 8.35254C4.18546 8.11641 4.00772 7.89245 3.81445 7.68066C4.22411 7.07892 4.7163 6.58901 5.29102 6.21094C5.55604 6.52836 5.88417 6.73832 6.27539 6.84082C6.93867 6.54336 7.59492 6.22141 8.24414 5.875C8.7835 5.68097 9.3304 5.513 9.88477 5.37109C10.2618 4.99455 10.3985 4.53264 10.2949 3.98535ZM11.1152 8.94043C13.3953 8.99435 14.9949 10.0861 15.9141 12.2158C16.6414 14.995 15.7801 17.0806 13.3301 18.4727C11.127 19.312 9.22663 18.8501 7.62891 17.0869C5.97042 14.5534 6.20284 12.2158 8.32617 10.0742C9.16289 9.43913 10.0926 9.0612 11.1152 8.94043Z" fill="white"/>
<path opacity="0.945" fill-rule="evenodd" clip-rule="evenodd" d="M11.0332 7.17676C13.9766 7.19124 16.0957 8.53499 17.3906 11.208C18.5799 14.6688 17.746 17.4823 14.8887 19.6484C11.642 21.3687 8.75716 20.8788 6.23437 18.1787C4.32031 15.3512 4.32031 12.5238 6.23437 9.69629C7.5103 8.19636 9.1099 7.35652 11.0332 7.17676ZM11.1152 8.94043C10.0925 9.0612 9.16289 9.43913 8.32617 10.0742C6.20284 12.2158 5.97042 14.5534 7.6289 17.0869C9.22663 18.8501 11.127 19.312 13.3301 18.4727C15.7801 17.0806 16.6414 14.995 15.9141 12.2158C14.9949 10.0861 13.3953 8.99435 11.1152 8.94043Z" fill="white"/>
<path opacity="0.94" fill-rule="evenodd" clip-rule="evenodd" d="M11.0332 10.6201C11.5016 10.5172 11.8707 10.6572 12.1406 11.04C12.2555 11.7048 12.2966 12.3767 12.2637 13.0557C12.9412 12.967 13.324 13.2609 13.4121 13.9375C13.4013 14.3526 13.21 14.6326 12.8379 14.7773C12.2637 14.8334 11.6894 14.8334 11.1152 14.7773C10.944 14.7108 10.7936 14.6128 10.664 14.4834C10.5304 13.3715 10.5031 12.2518 10.582 11.124C10.6936 10.9121 10.8439 10.7442 11.0332 10.6201Z" fill="white"/>
<path opacity="0.955" fill-rule="evenodd" clip-rule="evenodd" d="M41.959 40.4346C41.959 40.6865 41.959 40.9385 41.959 41.1904C41.8378 41.3842 41.6738 41.5381 41.4668 41.6523C27.7949 41.7084 14.1231 41.7084 0.451172 41.6523C0.244239 41.5381 0.0801767 41.3842 -0.0410156 41.1904C-0.0410156 40.9385 -0.0410156 40.6865 -0.0410156 40.4346C0.10041 40.1791 0.31916 40.0251 0.615234 39.9727C1.65394 39.9307 2.693 39.9166 3.73242 39.9307C3.69304 37.9075 3.73405 35.8919 3.85547 33.8838C3.98979 33.6898 4.16752 33.5638 4.38867 33.5059C6.54883 33.4498 8.70901 33.4498 10.8691 33.5059C11.0403 33.5724 11.1908 33.6704 11.3203 33.7998C11.4417 35.8358 11.4827 37.8795 11.4434 39.9307C11.9355 39.9307 12.4277 39.9307 12.9199 39.9307C12.9062 36.0113 12.9199 32.092 12.9609 28.1729C13.0748 27.8835 13.2799 27.7016 13.5762 27.627C15.7363 27.5709 17.8965 27.5709 20.0566 27.627C20.3095 27.693 20.4872 27.8469 20.5898 28.0889C20.6309 32.036 20.6446 35.9833 20.6309 39.9307C21.123 39.9307 21.6152 39.9307 22.1074 39.9307C22.0937 34.0237 22.1074 28.1168 22.1484 22.21C22.2511 21.968 22.4287 21.8141 22.6816 21.748C24.8418 21.692 27.002 21.692 29.1621 21.748C29.4584 21.8227 29.6635 22.0046 29.7773 22.2939C29.8184 28.1728 29.8321 34.0517 29.8184 39.9307C30.3105 39.9307 30.8027 39.9307 31.2949 39.9307C31.2812 32.0641 31.2949 24.1975 31.3359 16.3311C31.4386 16.0891 31.6162 15.9352 31.8691 15.8691C34.0293 15.8131 36.1895 15.8131 38.3496 15.8691C38.6296 15.9596 38.8347 16.1416 38.9648 16.415C39.0059 24.2536 39.0196 32.0921 39.0059 39.9307C39.7719 39.9167 40.5376 39.9307 41.3027 39.9727C41.5988 40.0251 41.8176 40.1791 41.959 40.4346ZM33.0176 17.5908C34.4394 17.5908 35.8614 17.5908 37.2832 17.5908C37.2832 25.0375 37.2832 32.484 37.2832 39.9307C35.8614 39.9307 34.4394 39.9307 33.0176 39.9307C33.0176 32.484 33.0176 25.0375 33.0176 17.5908ZM23.8301 23.4697C25.2519 23.4697 26.6739 23.4697 28.0957 23.4697C28.0957 28.9567 28.0957 34.4437 28.0957 39.9307C26.6739 39.9307 25.2519 39.9307 23.8301 39.9307C23.8301 34.4437 23.8301 28.9567 23.8301 23.4697ZM14.6426 29.3486C16.0644 29.3486 17.4864 29.3486 18.9082 29.3486C18.9082 32.876 18.9082 36.4033 18.9082 39.9307C17.4864 39.9307 16.0644 39.9307 14.6426 39.9307C14.6426 36.4033 14.6426 32.876 14.6426 29.3486ZM5.45508 35.2275C6.87695 35.2275 8.29886 35.2275 9.7207 35.2275C9.7207 36.7953 9.7207 38.3629 9.7207 39.9307C8.29886 39.9307 6.87695 39.9307 5.45508 39.9307C5.45508 38.3629 5.45508 36.7953 5.45508 35.2275Z" fill="white"/>
</g>
<defs>
<clipPath id="clip0_19_118">
<rect width="42" height="43" fill="white" transform="translate(0 0.5)"/>
</clipPath>
</defs>
</svg>
