<svg width="43" height="39" viewBox="0 0 43 39" fill="none" xmlns="http://www.w3.org/2000/svg">
<g id="folder-favorite 1">
<g id="Group">
<path id="Vector" d="M28.03 17.167C27.5704 16.6986 27.011 16.3396 26.3933 16.1165C25.7756 15.8935 25.1154 15.8121 24.4619 15.8785C23.8084 15.9449 23.1783 16.1574 22.6183 16.5001C22.0583 16.8428 21.5829 17.307 21.2273 17.8582C20.8719 17.3069 20.3965 16.8426 19.8365 16.4997C19.2765 16.1569 18.6463 15.9444 17.9928 15.878C17.3392 15.8116 16.679 15.893 16.0613 16.1161C15.4435 16.3393 14.8841 16.6985 14.4246 17.167C13.5955 18.0132 13.1312 19.1497 13.1312 20.3332C13.1312 21.5168 13.5955 22.6532 14.4246 23.4995L21.2273 30.3984L28.0318 23.5004C28.8603 22.6535 29.324 21.5168 29.3237 20.3333C29.3233 19.1498 28.859 18.0134 28.03 17.167Z" fill="black" stroke="#161616" stroke-width="2" stroke-miterlimit="10" stroke-linecap="round" stroke-linejoin="round"/>
<path id="Vector_2" d="M37.4199 37.4007H5.03464C4.0803 37.4007 3.16504 37.0224 2.49022 36.3489C1.81539 35.6755 1.43628 34.7622 1.43628 33.8098V1.49207H15.8297L20.3277 8.67379H41.0183V33.8098C41.0183 34.7622 40.6391 35.6755 39.9643 36.3489C39.2895 37.0224 38.3742 37.4007 37.4199 37.4007Z" stroke="#161616" stroke-width="2" stroke-miterlimit="10" stroke-linecap="round" stroke-linejoin="round"/>
</g>
</g>
</svg>
