<svg width="316" height="160" viewBox="0 0 316 160" fill="none" xmlns="http://www.w3.org/2000/svg">
<rect x="131.5" width="53" height="52" rx="26" fill="#524F59"/>
<g clip-path="url(#clip0_13_97)">
<path opacity="0.946" fill-rule="evenodd" clip-rule="evenodd" d="M136.959 19.6592C136.959 18.5114 136.959 17.3636 136.959 16.2158C137.105 15.8778 137.324 15.5838 137.615 15.334C137.95 15.213 138.278 15.0871 138.6 14.9561C138.801 14.2408 139.074 13.5549 139.42 12.8984C138.894 12.1103 138.88 11.3124 139.379 10.5049C140.054 9.75724 140.779 9.07136 141.553 8.44727C142.245 8.2189 142.887 8.31688 143.48 8.74121C144.103 8.42598 144.746 8.16003 145.408 7.94336C145.553 7.39667 145.826 6.92076 146.229 6.51563C146.374 6.39478 146.538 6.3108 146.721 6.26367C147.814 6.20768 148.908 6.20768 150.002 6.26367C150.732 6.55041 151.143 7.09631 151.232 7.90137C151.974 8.106 152.671 8.41395 153.324 8.8252C153.991 8.23628 154.716 8.1663 155.498 8.61523C156.141 9.27311 156.783 9.93099 157.426 10.5889C157.945 11.3771 157.904 12.1329 157.303 12.8564C157.649 13.5656 157.95 14.2935 158.205 15.04C159.057 15.1421 159.59 15.618 159.805 16.4678C159.859 17.4476 159.859 18.4274 159.805 19.4072C159.59 20.257 159.057 20.7329 158.205 20.835C157.95 21.5815 157.649 22.3094 157.303 23.0186C157.904 23.7421 157.945 24.4979 157.426 25.2861C156.723 26.0617 155.971 26.7756 155.17 27.4277C154.474 27.6867 153.859 27.5607 153.324 27.0498C152.671 27.4611 151.974 27.769 151.232 27.9736C151.143 28.7787 150.732 29.3246 150.002 29.6113C148.908 29.6673 147.814 29.6673 146.721 29.6113C145.989 29.2877 145.552 28.7277 145.408 27.9316C144.742 27.6887 144.086 27.4228 143.439 27.1338C142.685 27.6735 141.919 27.6874 141.143 27.1758C140.555 26.5739 139.967 25.972 139.379 25.3701C138.88 24.5625 138.894 23.7647 139.42 22.9766C139.068 22.2888 138.781 21.5749 138.559 20.835C137.795 20.76 137.262 20.3681 136.959 19.6592ZM147.295 7.98535C148.006 7.98535 148.717 7.98535 149.428 7.98535C149.414 8.26669 149.428 8.54664 149.469 8.8252C149.497 9.02237 149.593 9.17634 149.756 9.28711C150.928 9.58417 152.022 10.0601 153.037 10.7148C153.189 10.7503 153.34 10.7923 153.488 10.8408C153.906 10.6866 154.275 10.4767 154.596 10.2109C155.061 10.6869 155.525 11.1628 155.99 11.6387C155.504 11.9764 155.299 12.4384 155.375 13.0244C156.032 14.0897 156.497 15.2375 156.77 16.4678C156.869 16.5979 156.992 16.6958 157.139 16.7617C157.466 16.8036 157.794 16.8177 158.123 16.8037C158.123 17.5596 158.123 18.3154 158.123 19.0713C157.794 19.0573 157.466 19.0714 157.139 19.1133C156.992 19.1792 156.869 19.2771 156.77 19.4072C156.497 20.6375 156.032 21.7853 155.375 22.8506C155.299 23.4366 155.504 23.8985 155.99 24.2363C155.525 24.7123 155.061 25.1881 154.596 25.6641C154.369 25.6036 154.177 25.4636 154.021 25.2441C153.839 25.1492 153.648 25.0792 153.447 25.0342C152.908 25.2543 152.388 25.5203 151.889 25.832C151.303 26.0787 150.701 26.2746 150.084 26.4199C149.871 26.4941 149.693 26.6201 149.551 26.7979C149.445 27.1531 149.404 27.5171 149.428 27.8896C148.717 27.8896 148.006 27.8896 147.295 27.8896C147.399 27.3424 147.262 26.8805 146.885 26.5039C146.33 26.362 145.783 26.194 145.244 26C144.595 25.6536 143.939 25.3317 143.275 25.0342C142.863 25.1406 142.521 25.3646 142.25 25.7061C141.757 25.2149 141.278 24.711 140.814 24.1943C141.008 23.9825 141.185 23.7586 141.348 23.5225C141.402 23.2705 141.402 23.0186 141.348 22.7666C140.708 21.7635 140.27 20.6717 140.035 19.4912C139.912 19.3652 139.789 19.2393 139.666 19.1133C139.312 19.0714 138.956 19.0573 138.6 19.0713C138.6 18.3154 138.6 17.5596 138.6 16.8037C138.929 16.8177 139.257 16.8036 139.584 16.7617C139.73 16.6958 139.854 16.5979 139.953 16.4678C140.243 15.2686 140.708 14.1488 141.348 13.1084C141.402 12.8564 141.402 12.6045 141.348 12.3525C141.185 12.1164 141.008 11.8924 140.814 11.6807C141.224 11.0789 141.716 10.589 142.291 10.2109C142.556 10.5284 142.884 10.7383 143.275 10.8408C143.939 10.5434 144.595 10.2214 145.244 9.875C145.783 9.68097 146.33 9.513 146.885 9.37109C147.262 8.99455 147.399 8.53264 147.295 7.98535ZM148.115 12.9404C150.395 12.9943 151.995 14.0861 152.914 16.2158C153.641 18.995 152.78 21.0806 150.33 22.4727C148.127 23.312 146.227 22.8501 144.629 21.0869C142.97 18.5534 143.203 16.2158 145.326 14.0742C146.163 13.4391 147.093 13.0612 148.115 12.9404Z" fill="white"/>
<path opacity="0.945" fill-rule="evenodd" clip-rule="evenodd" d="M148.033 11.1768C150.977 11.1912 153.096 12.535 154.391 15.208C155.58 18.6688 154.746 21.4823 151.889 23.6484C148.642 25.3687 145.757 24.8788 143.234 22.1787C141.32 19.3512 141.32 16.5238 143.234 13.6963C144.51 12.1964 146.11 11.3565 148.033 11.1768ZM148.115 12.9404C147.093 13.0612 146.163 13.4391 145.326 14.0742C143.203 16.2158 142.97 18.5534 144.629 21.0869C146.227 22.8501 148.127 23.312 150.33 22.4727C152.78 21.0806 153.641 18.995 152.914 16.2158C151.995 14.0861 150.395 12.9943 148.115 12.9404Z" fill="white"/>
<path opacity="0.94" fill-rule="evenodd" clip-rule="evenodd" d="M148.033 14.6201C148.502 14.5172 148.871 14.6572 149.141 15.04C149.256 15.7048 149.297 16.3767 149.264 17.0557C149.941 16.967 150.324 17.2609 150.412 17.9375C150.401 18.3526 150.21 18.6326 149.838 18.7773C149.264 18.8334 148.689 18.8334 148.115 18.7773C147.944 18.7108 147.794 18.6128 147.664 18.4834C147.53 17.3715 147.503 16.2518 147.582 15.124C147.694 14.9121 147.844 14.7442 148.033 14.6201Z" fill="white"/>
<path opacity="0.955" fill-rule="evenodd" clip-rule="evenodd" d="M178.959 44.4346C178.959 44.6865 178.959 44.9385 178.959 45.1904C178.838 45.3842 178.674 45.5381 178.467 45.6523C164.795 45.7084 151.123 45.7084 137.451 45.6523C137.244 45.5381 137.08 45.3842 136.959 45.1904C136.959 44.9385 136.959 44.6865 136.959 44.4346C137.1 44.1791 137.319 44.0251 137.615 43.9727C138.654 43.9307 139.693 43.9166 140.732 43.9307C140.693 41.9075 140.734 39.8919 140.855 37.8838C140.99 37.6898 141.168 37.5638 141.389 37.5059C143.549 37.4498 145.709 37.4498 147.869 37.5059C148.04 37.5724 148.191 37.6704 148.32 37.7998C148.442 39.8358 148.483 41.8795 148.443 43.9307C148.936 43.9307 149.428 43.9307 149.92 43.9307C149.906 40.0113 149.92 36.092 149.961 32.1729C150.075 31.8835 150.28 31.7016 150.576 31.627C152.736 31.5709 154.897 31.5709 157.057 31.627C157.31 31.693 157.487 31.8469 157.59 32.0889C157.631 36.036 157.645 39.9833 157.631 43.9307C158.123 43.9307 158.615 43.9307 159.107 43.9307C159.094 38.0237 159.107 32.1168 159.148 26.21C159.251 25.968 159.429 25.8141 159.682 25.748C161.842 25.692 164.002 25.692 166.162 25.748C166.458 25.8227 166.663 26.0046 166.777 26.2939C166.818 32.1728 166.832 38.0517 166.818 43.9307C167.311 43.9307 167.803 43.9307 168.295 43.9307C168.281 36.0641 168.295 28.1975 168.336 20.3311C168.439 20.0891 168.616 19.9352 168.869 19.8691C171.029 19.8131 173.189 19.8131 175.35 19.8691C175.63 19.9596 175.835 20.1416 175.965 20.415C176.006 28.2536 176.02 36.0921 176.006 43.9307C176.772 43.9167 177.538 43.9307 178.303 43.9727C178.599 44.0251 178.818 44.1791 178.959 44.4346ZM170.018 21.5908C171.439 21.5908 172.861 21.5908 174.283 21.5908C174.283 29.0375 174.283 36.484 174.283 43.9307C172.861 43.9307 171.439 43.9307 170.018 43.9307C170.018 36.484 170.018 29.0375 170.018 21.5908ZM160.83 27.4697C162.252 27.4697 163.674 27.4697 165.096 27.4697C165.096 32.9567 165.096 38.4437 165.096 43.9307C163.674 43.9307 162.252 43.9307 160.83 43.9307C160.83 38.4437 160.83 32.9567 160.83 27.4697ZM151.643 33.3486C153.064 33.3486 154.486 33.3486 155.908 33.3486C155.908 36.876 155.908 40.4033 155.908 43.9307C154.486 43.9307 153.064 43.9307 151.643 43.9307C151.643 40.4033 151.643 36.876 151.643 33.3486ZM142.455 39.2275C143.877 39.2275 145.299 39.2275 146.721 39.2275C146.721 40.7953 146.721 42.3629 146.721 43.9307C145.299 43.9307 143.877 43.9307 142.455 43.9307C142.455 42.3629 142.455 40.7953 142.455 39.2275Z" fill="white"/>
</g>
<path d="M113.2 66.02H122.66V68.12H115.74V71.96H120.88V74.06H115.74V77.9H122.66V80H113.2V66.02ZM124.386 72.32H122.966V70.4H124.386V68.82C124.386 68.0333 124.56 67.3667 124.906 66.82C125.266 66.26 125.746 65.84 126.346 65.56C126.946 65.2667 127.62 65.12 128.366 65.12C129.006 65.12 129.566 65.2133 130.046 65.4V67.44C129.686 67.28 129.293 67.2 128.866 67.2C128.226 67.2 127.74 67.3533 127.406 67.66C127.073 67.9667 126.906 68.4133 126.906 69V70.4H133.626V80H131.106V72.32H126.906V80H124.386V72.32ZM132.346 68.72C131.946 68.72 131.606 68.5867 131.326 68.32C131.06 68.0533 130.926 67.72 130.926 67.32C130.926 66.9333 131.06 66.6067 131.326 66.34C131.606 66.06 131.946 65.92 132.346 65.92C132.733 65.92 133.066 66.06 133.346 66.34C133.626 66.6067 133.766 66.9333 133.766 67.32C133.766 67.72 133.626 68.0533 133.346 68.32C133.08 68.5867 132.746 68.72 132.346 68.72ZM141.389 80.3C140.269 80.3 139.282 80.1 138.429 79.7C137.589 79.3 136.935 78.72 136.469 77.96C136.002 77.2 135.769 76.2867 135.769 75.22C135.769 74.1533 136.002 73.24 136.469 72.48C136.949 71.7067 137.609 71.12 138.449 70.72C139.302 70.3067 140.295 70.1 141.429 70.1C142.922 70.1 144.115 70.3933 145.009 70.98V73C144.142 72.3867 143.035 72.08 141.689 72.08C140.662 72.08 139.842 72.34 139.229 72.86C138.629 73.3667 138.329 74.1533 138.329 75.22C138.329 76.2733 138.629 77.0533 139.229 77.56C139.842 78.0667 140.649 78.32 141.649 78.32C142.995 78.32 144.155 78 145.129 77.36V79.36C144.649 79.68 144.102 79.9133 143.489 80.06C142.889 80.22 142.189 80.3 141.389 80.3ZM148.546 68.72C148.146 68.72 147.806 68.5867 147.526 68.32C147.259 68.0533 147.126 67.72 147.126 67.32C147.126 66.92 147.259 66.5867 147.526 66.32C147.806 66.04 148.146 65.9 148.546 65.9C148.946 65.9 149.286 66.04 149.566 66.32C149.846 66.5867 149.986 66.92 149.986 67.32C149.986 67.72 149.846 68.0533 149.566 68.32C149.286 68.5867 148.946 68.72 148.546 68.72ZM147.266 70.4H149.826V80H147.266V70.4ZM156.34 65.88H158.58L161.5 69.3H158.98L157.46 67.32L155.94 69.3H153.4L156.34 65.88ZM157.78 80.3C155.993 80.3 154.58 79.8533 153.54 78.96C152.5 78.0667 151.98 76.82 151.98 75.22C151.98 73.6467 152.44 72.4 153.36 71.48C154.28 70.56 155.593 70.1 157.3 70.1C158.42 70.1 159.373 70.3133 160.16 70.74C160.96 71.1667 161.56 71.7533 161.96 72.5C162.36 73.2333 162.56 74.0733 162.56 75.02V76.18H154.38C154.553 77.6067 155.793 78.32 158.1 78.32C158.713 78.32 159.34 78.2667 159.98 78.16C160.62 78.0533 161.18 77.9067 161.66 77.72V79.66C161.206 79.8467 160.62 80 159.9 80.12C159.193 80.24 158.486 80.3 157.78 80.3ZM160.18 74.46C160.153 73.7 159.88 73.1133 159.36 72.7C158.853 72.2867 158.153 72.08 157.26 72.08C156.38 72.08 155.686 72.2933 155.18 72.72C154.673 73.1467 154.406 73.7267 154.38 74.46H160.18ZM164.567 70.4H167.007V71.7C167.461 71.1533 168.001 70.7533 168.627 70.5C169.254 70.2333 169.914 70.1 170.607 70.1C171.901 70.1 172.867 70.4533 173.507 71.16C174.147 71.8533 174.467 72.78 174.467 73.94V80H171.947V74.18C171.947 72.78 171.294 72.08 169.987 72.08C169.414 72.08 168.874 72.22 168.367 72.5C167.861 72.7667 167.434 73.1733 167.087 73.72V80H164.567V70.4ZM181.994 80.3C180.874 80.3 179.888 80.1 179.034 79.7C178.194 79.3 177.541 78.72 177.074 77.96C176.608 77.2 176.374 76.2867 176.374 75.22C176.374 74.1533 176.608 73.24 177.074 72.48C177.554 71.7067 178.214 71.12 179.054 70.72C179.908 70.3067 180.901 70.1 182.034 70.1C183.528 70.1 184.721 70.3933 185.614 70.98V73C184.748 72.3867 183.641 72.08 182.294 72.08C181.268 72.08 180.448 72.34 179.834 72.86C179.234 73.3667 178.934 74.1533 178.934 75.22C178.934 76.2733 179.234 77.0533 179.834 77.56C180.448 78.0667 181.254 78.32 182.254 78.32C183.601 78.32 184.761 78 185.734 77.36V79.36C185.254 79.68 184.708 79.9133 184.094 80.06C183.494 80.22 182.794 80.3 181.994 80.3ZM189.151 68.72C188.751 68.72 188.411 68.5867 188.131 68.32C187.865 68.0533 187.731 67.72 187.731 67.32C187.731 66.92 187.865 66.5867 188.131 66.32C188.411 66.04 188.751 65.9 189.151 65.9C189.551 65.9 189.891 66.04 190.171 66.32C190.451 66.5867 190.591 66.92 190.591 67.32C190.591 67.72 190.451 68.0533 190.171 68.32C189.891 68.5867 189.551 68.72 189.151 68.72ZM187.871 70.4H190.431V80H187.871V70.4ZM196.505 80.3C195.358 80.3 194.418 80 193.685 79.4C192.952 78.7867 192.585 77.9667 192.585 76.94C192.585 75.8733 192.932 75.04 193.625 74.44C194.318 73.84 195.292 73.54 196.545 73.54C197.758 73.54 198.805 73.7867 199.685 74.28V74.02C199.685 73.34 199.472 72.8467 199.045 72.54C198.632 72.2333 197.958 72.08 197.025 72.08C196.438 72.08 195.858 72.14 195.285 72.26C194.712 72.3667 194.205 72.52 193.765 72.72V70.74C194.165 70.5533 194.698 70.4 195.365 70.28C196.045 70.16 196.698 70.1 197.325 70.1C198.992 70.1 200.225 70.46 201.025 71.18C201.825 71.8867 202.225 72.8733 202.225 74.14V80H199.845V79.06C199.432 79.46 198.958 79.7667 198.425 79.98C197.905 80.1933 197.265 80.3 196.505 80.3ZM197.125 78.46C197.685 78.46 198.192 78.3533 198.645 78.14C199.098 77.9133 199.445 77.6067 199.685 77.22V76.16C198.952 75.64 198.112 75.38 197.165 75.38C195.818 75.38 195.145 75.9 195.145 76.94C195.145 77.4467 195.312 77.8267 195.645 78.08C195.992 78.3333 196.485 78.46 197.125 78.46Z" fill="#1D1340"/>
<path d="M31.2336 99.515H32.8536L36.1536 107.915L39.4536 99.515H41.0736L36.8886 110H35.4186L31.2336 99.515ZM43.723 110.225C42.853 110.225 42.153 110.005 41.623 109.565C41.103 109.115 40.843 108.51 40.843 107.75C40.843 106.95 41.093 106.335 41.593 105.905C42.103 105.465 42.823 105.245 43.753 105.245C44.743 105.245 45.583 105.445 46.273 105.845V105.47C46.273 104.9 46.098 104.48 45.748 104.21C45.408 103.93 44.868 103.79 44.128 103.79C43.688 103.79 43.258 103.835 42.838 103.925C42.428 104.005 42.058 104.12 41.728 104.27V103.04C42.028 102.9 42.418 102.79 42.898 102.71C43.378 102.62 43.843 102.575 44.293 102.575C45.483 102.575 46.363 102.84 46.933 103.37C47.513 103.89 47.803 104.615 47.803 105.545V110H46.378V109.19C46.068 109.53 45.698 109.79 45.268 109.97C44.848 110.14 44.333 110.225 43.723 110.225ZM44.098 109.07C44.578 109.07 45.013 108.975 45.403 108.785C45.793 108.595 46.083 108.33 46.273 107.99V107.015C45.623 106.595 44.898 106.385 44.098 106.385C43.518 106.385 43.083 106.5 42.793 106.73C42.513 106.95 42.373 107.29 42.373 107.75C42.373 108.63 42.948 109.07 44.098 109.07ZM49.683 98.915H51.198V110H49.683V98.915ZM56.9497 110.225C56.1397 110.225 55.4247 110.075 54.8047 109.775C54.1947 109.465 53.7147 109.025 53.3647 108.455C53.0247 107.875 52.8547 107.195 52.8547 106.415C52.8547 105.645 53.0247 104.97 53.3647 104.39C53.7047 103.81 54.1847 103.365 54.8047 103.055C55.4247 102.735 56.1397 102.575 56.9497 102.575C57.7597 102.575 58.4747 102.735 59.0947 103.055C59.7147 103.365 60.1947 103.81 60.5347 104.39C60.8847 104.97 61.0597 105.645 61.0597 106.415C61.0597 107.195 60.8847 107.875 60.5347 108.455C60.1947 109.025 59.7147 109.465 59.0947 109.775C58.4747 110.075 57.7597 110.225 56.9497 110.225ZM56.9497 109.025C57.7297 109.025 58.3497 108.785 58.8097 108.305C59.2697 107.825 59.4997 107.195 59.4997 106.415C59.4997 105.605 59.2697 104.965 58.8097 104.495C58.3497 104.025 57.7297 103.79 56.9497 103.79C56.1697 103.79 55.5497 104.025 55.0897 104.495C54.6297 104.965 54.3997 105.605 54.3997 106.415C54.3997 107.195 54.6297 107.825 55.0897 108.305C55.5497 108.785 56.1697 109.025 56.9497 109.025ZM62.7055 102.8H64.1755V104.09C64.4755 103.65 64.8955 103.325 65.4355 103.115C65.9855 102.905 66.6205 102.8 67.3405 102.8V103.985C66.5705 103.985 65.9105 104.11 65.3605 104.36C64.8105 104.61 64.4305 105.005 64.2205 105.545V110H62.7055V102.8ZM69.5817 101.39C69.3317 101.39 69.1217 101.305 68.9517 101.135C68.7817 100.965 68.6967 100.755 68.6967 100.505C68.6967 100.255 68.7817 100.045 68.9517 99.875C69.1217 99.705 69.3317 99.62 69.5817 99.62C69.8417 99.62 70.0567 99.705 70.2267 99.875C70.4067 100.045 70.4967 100.255 70.4967 100.505C70.4967 100.755 70.4067 100.965 70.2267 101.135C70.0567 101.305 69.8417 101.39 69.5817 101.39ZM68.8167 102.8H70.3617V110H68.8167V102.8ZM72.1467 109.025L76.2417 103.97H72.2367V102.8H78.1317V103.79L74.0367 108.83H78.2817V110H72.1467V109.025ZM82.1312 110.225C81.2612 110.225 80.5612 110.005 80.0312 109.565C79.5112 109.115 79.2512 108.51 79.2512 107.75C79.2512 106.95 79.5012 106.335 80.0012 105.905C80.5112 105.465 81.2312 105.245 82.1612 105.245C83.1512 105.245 83.9912 105.445 84.6812 105.845V105.47C84.6812 104.9 84.5062 104.48 84.1562 104.21C83.8162 103.93 83.2762 103.79 82.5362 103.79C82.0962 103.79 81.6662 103.835 81.2462 103.925C80.8362 104.005 80.4662 104.12 80.1362 104.27V103.04C80.4362 102.9 80.8262 102.79 81.3062 102.71C81.7862 102.62 82.2512 102.575 82.7012 102.575C83.8912 102.575 84.7712 102.84 85.3412 103.37C85.9212 103.89 86.2112 104.615 86.2112 105.545V110H84.7862V109.19C84.4762 109.53 84.1062 109.79 83.6762 109.97C83.2562 110.14 82.7412 110.225 82.1312 110.225ZM82.5062 109.07C82.9862 109.07 83.4212 108.975 83.8112 108.785C84.2012 108.595 84.4912 108.33 84.6812 107.99V107.015C84.0312 106.595 83.3062 106.385 82.5062 106.385C81.9262 106.385 81.4912 106.5 81.2012 106.73C80.9212 106.95 80.7812 107.29 80.7812 107.75C80.7812 108.63 81.3562 109.07 82.5062 109.07ZM88.0912 102.8H89.5312V103.835C89.8712 103.415 90.2562 103.1 90.6862 102.89C91.1162 102.68 91.5612 102.575 92.0212 102.575C92.6012 102.575 93.0612 102.675 93.4012 102.875C93.7412 103.065 93.9912 103.36 94.1512 103.76C94.4712 103.37 94.8612 103.075 95.3212 102.875C95.7912 102.675 96.2612 102.575 96.7312 102.575C97.6112 102.575 98.2462 102.8 98.6362 103.25C99.0262 103.69 99.2212 104.345 99.2212 105.215V110H97.7512V105.41C97.7512 104.82 97.6412 104.405 97.4212 104.165C97.2012 103.915 96.8262 103.79 96.2962 103.79C95.5362 103.79 94.9162 104.12 94.4362 104.78C94.4562 104.93 94.4662 105.175 94.4662 105.515V110H92.9962V105.41C92.9962 104.82 92.8962 104.405 92.6962 104.165C92.4962 103.915 92.1362 103.79 91.6162 103.79C90.8562 103.79 90.1762 104.22 89.5762 105.08V110H88.0912V102.8ZM104.674 110.225C103.864 110.225 103.149 110.075 102.529 109.775C101.919 109.465 101.439 109.025 101.089 108.455C100.749 107.875 100.579 107.195 100.579 106.415C100.579 105.645 100.749 104.97 101.089 104.39C101.429 103.81 101.909 103.365 102.529 103.055C103.149 102.735 103.864 102.575 104.674 102.575C105.484 102.575 106.199 102.735 106.819 103.055C107.439 103.365 107.919 103.81 108.259 104.39C108.609 104.97 108.784 105.645 108.784 106.415C108.784 107.195 108.609 107.875 108.259 108.455C107.919 109.025 107.439 109.465 106.819 109.775C106.199 110.075 105.484 110.225 104.674 110.225ZM104.674 109.025C105.454 109.025 106.074 108.785 106.534 108.305C106.994 107.825 107.224 107.195 107.224 106.415C107.224 105.605 106.994 104.965 106.534 104.495C106.074 104.025 105.454 103.79 104.674 103.79C103.894 103.79 103.274 104.025 102.814 104.495C102.354 104.965 102.124 105.605 102.124 106.415C102.124 107.195 102.354 107.825 102.814 108.305C103.274 108.785 103.894 109.025 104.674 109.025ZM112.704 110.225C112.204 110.225 111.674 110.16 111.114 110.03C110.554 109.91 110.114 109.745 109.794 109.535V108.245C110.184 108.475 110.634 108.665 111.144 108.815C111.654 108.955 112.149 109.025 112.629 109.025C113.169 109.025 113.564 108.96 113.814 108.83C114.064 108.7 114.189 108.49 114.189 108.2C114.189 107.98 114.129 107.805 114.009 107.675C113.899 107.535 113.704 107.41 113.424 107.3C113.154 107.19 112.744 107.06 112.194 106.91C111.604 106.74 111.134 106.57 110.784 106.4C110.444 106.22 110.184 105.995 110.004 105.725C109.834 105.455 109.749 105.105 109.749 104.675C109.749 103.985 110.019 103.465 110.559 103.115C111.109 102.755 111.844 102.575 112.764 102.575C113.244 102.575 113.714 102.62 114.174 102.71C114.634 102.8 115.004 102.925 115.284 103.085V104.345C114.994 104.175 114.634 104.04 114.204 103.94C113.784 103.84 113.354 103.79 112.914 103.79C112.384 103.79 111.979 103.855 111.699 103.985C111.419 104.115 111.279 104.345 111.279 104.675C111.279 104.885 111.339 105.055 111.459 105.185C111.579 105.315 111.769 105.43 112.029 105.53C112.299 105.62 112.724 105.74 113.304 105.89C114.214 106.14 114.844 106.435 115.194 106.775C115.554 107.115 115.734 107.585 115.734 108.185C115.734 108.805 115.479 109.3 114.969 109.67C114.459 110.04 113.704 110.225 112.704 110.225ZM125.595 110.225C125.095 110.225 124.565 110.16 124.005 110.03C123.445 109.91 123.005 109.745 122.685 109.535V108.245C123.075 108.475 123.525 108.665 124.035 108.815C124.545 108.955 125.04 109.025 125.52 109.025C126.06 109.025 126.455 108.96 126.705 108.83C126.955 108.7 127.08 108.49 127.08 108.2C127.08 107.98 127.02 107.805 126.9 107.675C126.79 107.535 126.595 107.41 126.315 107.3C126.045 107.19 125.635 107.06 125.085 106.91C124.495 106.74 124.025 106.57 123.675 106.4C123.335 106.22 123.075 105.995 122.895 105.725C122.725 105.455 122.64 105.105 122.64 104.675C122.64 103.985 122.91 103.465 123.45 103.115C124 102.755 124.735 102.575 125.655 102.575C126.135 102.575 126.605 102.62 127.065 102.71C127.525 102.8 127.895 102.925 128.175 103.085V104.345C127.885 104.175 127.525 104.04 127.095 103.94C126.675 103.84 126.245 103.79 125.805 103.79C125.275 103.79 124.87 103.855 124.59 103.985C124.31 104.115 124.17 104.345 124.17 104.675C124.17 104.885 124.23 105.055 124.35 105.185C124.47 105.315 124.66 105.43 124.92 105.53C125.19 105.62 125.615 105.74 126.195 105.89C127.105 106.14 127.735 106.435 128.085 106.775C128.445 107.115 128.625 107.585 128.625 108.185C128.625 108.805 128.37 109.3 127.86 109.67C127.35 110.04 126.595 110.225 125.595 110.225ZM134.239 110.225C132.909 110.225 131.864 109.895 131.104 109.235C130.354 108.565 129.979 107.625 129.979 106.415C129.979 105.235 130.314 104.3 130.984 103.61C131.664 102.92 132.629 102.575 133.879 102.575C134.709 102.575 135.414 102.735 135.994 103.055C136.574 103.365 137.009 103.8 137.299 104.36C137.599 104.91 137.749 105.54 137.749 106.25V107H131.419C131.469 107.68 131.754 108.19 132.274 108.53C132.804 108.86 133.519 109.025 134.419 109.025C134.879 109.025 135.344 108.985 135.814 108.905C136.284 108.815 136.699 108.7 137.059 108.56V109.775C136.739 109.905 136.314 110.01 135.784 110.09C135.264 110.18 134.749 110.225 134.239 110.225ZM136.324 105.935C136.304 105.255 136.079 104.73 135.649 104.36C135.229 103.98 134.629 103.79 133.849 103.79C133.089 103.79 132.499 103.985 132.079 104.375C131.659 104.765 131.439 105.285 131.419 105.935H136.324ZM142.27 110.225C141.3 110.225 140.565 109.965 140.065 109.445C139.575 108.925 139.33 108.23 139.33 107.36V102.8H140.845V107.3C140.845 108.45 141.42 109.025 142.57 109.025C143.58 109.025 144.37 108.57 144.94 107.66V102.8H146.455V110H144.985V108.98C144.645 109.41 144.24 109.725 143.77 109.925C143.31 110.125 142.81 110.225 142.27 110.225ZM156.726 110.225C155.996 110.225 155.431 110.015 155.031 109.595C154.641 109.175 154.446 108.58 154.446 107.81V103.97H153.351V102.8H154.446V100.64H155.976V102.8H157.746V103.97H155.976V107.705C155.976 108.185 156.066 108.525 156.246 108.725C156.436 108.925 156.776 109.025 157.266 109.025C157.556 109.025 157.846 108.96 158.136 108.83V110.03C157.756 110.16 157.286 110.225 156.726 110.225ZM163.521 110.225C162.191 110.225 161.146 109.895 160.386 109.235C159.636 108.565 159.261 107.625 159.261 106.415C159.261 105.235 159.596 104.3 160.266 103.61C160.946 102.92 161.911 102.575 163.161 102.575C163.991 102.575 164.696 102.735 165.276 103.055C165.856 103.365 166.291 103.8 166.581 104.36C166.881 104.91 167.031 105.54 167.031 106.25V107H160.701C160.751 107.68 161.036 108.19 161.556 108.53C162.086 108.86 162.801 109.025 163.701 109.025C164.161 109.025 164.626 108.985 165.096 108.905C165.566 108.815 165.981 108.7 166.341 108.56V109.775C166.021 109.905 165.596 110.01 165.066 110.09C164.546 110.18 164.031 110.225 163.521 110.225ZM165.606 105.935C165.586 105.255 165.361 104.73 164.931 104.36C164.511 103.98 163.911 103.79 163.131 103.79C162.371 103.79 161.781 103.985 161.361 104.375C160.941 104.765 160.721 105.285 160.701 105.935H165.606ZM168.687 102.8H170.127V103.835C170.467 103.415 170.852 103.1 171.282 102.89C171.712 102.68 172.157 102.575 172.617 102.575C173.197 102.575 173.657 102.675 173.997 102.875C174.337 103.065 174.587 103.36 174.747 103.76C175.067 103.37 175.457 103.075 175.917 102.875C176.387 102.675 176.857 102.575 177.327 102.575C178.207 102.575 178.842 102.8 179.232 103.25C179.622 103.69 179.817 104.345 179.817 105.215V110H178.347V105.41C178.347 104.82 178.237 104.405 178.017 104.165C177.797 103.915 177.422 103.79 176.892 103.79C176.132 103.79 175.512 104.12 175.032 104.78C175.052 104.93 175.062 105.175 175.062 105.515V110H173.592V105.41C173.592 104.82 173.492 104.405 173.292 104.165C173.092 103.915 172.732 103.79 172.212 103.79C171.452 103.79 170.772 104.22 170.172 105.08V110H168.687V102.8ZM181.695 102.8H183.165V103.865C183.905 103.005 184.905 102.575 186.165 102.575C186.885 102.575 187.53 102.735 188.1 103.055C188.68 103.375 189.13 103.825 189.45 104.405C189.78 104.975 189.945 105.64 189.945 106.4C189.945 107.15 189.78 107.815 189.45 108.395C189.13 108.975 188.685 109.425 188.115 109.745C187.545 110.065 186.895 110.225 186.165 110.225C185.565 110.225 185.005 110.125 184.485 109.925C183.965 109.725 183.54 109.43 183.21 109.04V113.285H181.695V102.8ZM185.82 109.025C186.31 109.025 186.75 108.92 187.14 108.71C187.54 108.49 187.85 108.18 188.07 107.78C188.3 107.38 188.415 106.92 188.415 106.4C188.415 105.88 188.3 105.425 188.07 105.035C187.85 104.635 187.54 104.33 187.14 104.12C186.75 103.9 186.31 103.79 185.82 103.79C185.21 103.79 184.67 103.95 184.2 104.27C183.74 104.59 183.41 105.03 183.21 105.59V107.21C183.38 107.76 183.705 108.2 184.185 108.53C184.665 108.86 185.21 109.025 185.82 109.025ZM195.011 110.225C194.201 110.225 193.486 110.075 192.866 109.775C192.256 109.465 191.776 109.025 191.426 108.455C191.086 107.875 190.916 107.195 190.916 106.415C190.916 105.645 191.086 104.97 191.426 104.39C191.766 103.81 192.246 103.365 192.866 103.055C193.486 102.735 194.201 102.575 195.011 102.575C195.821 102.575 196.536 102.735 197.156 103.055C197.776 103.365 198.256 103.81 198.596 104.39C198.946 104.97 199.121 105.645 199.121 106.415C199.121 107.195 198.946 107.875 198.596 108.455C198.256 109.025 197.776 109.465 197.156 109.775C196.536 110.075 195.821 110.225 195.011 110.225ZM195.011 109.025C195.791 109.025 196.411 108.785 196.871 108.305C197.331 107.825 197.561 107.195 197.561 106.415C197.561 105.605 197.331 104.965 196.871 104.495C196.411 104.025 195.791 103.79 195.011 103.79C194.231 103.79 193.611 104.025 193.151 104.495C192.691 104.965 192.461 105.605 192.461 106.415C192.461 107.195 192.691 107.825 193.151 108.305C193.611 108.785 194.231 109.025 195.011 109.025ZM210.279 110.225C208.949 110.225 207.904 109.895 207.144 109.235C206.394 108.565 206.019 107.625 206.019 106.415C206.019 105.235 206.354 104.3 207.024 103.61C207.704 102.92 208.669 102.575 209.919 102.575C210.749 102.575 211.454 102.735 212.034 103.055C212.614 103.365 213.049 103.8 213.339 104.36C213.639 104.91 213.789 105.54 213.789 106.25V107H207.459C207.509 107.68 207.794 108.19 208.314 108.53C208.844 108.86 209.559 109.025 210.459 109.025C210.919 109.025 211.384 108.985 211.854 108.905C212.324 108.815 212.739 108.7 213.099 108.56V109.775C212.779 109.905 212.354 110.01 211.824 110.09C211.304 110.18 210.789 110.225 210.279 110.225ZM212.364 105.935C212.344 105.255 212.119 104.73 211.689 104.36C211.269 103.98 210.669 103.79 209.889 103.79C209.129 103.79 208.539 103.985 208.119 104.375C207.699 104.765 207.479 105.285 207.459 105.935H212.364ZM220.996 102.8H222.466V104.09C222.766 103.65 223.186 103.325 223.726 103.115C224.276 102.905 224.911 102.8 225.631 102.8V103.985C224.861 103.985 224.201 104.11 223.651 104.36C223.101 104.61 222.721 105.005 222.511 105.545V110H220.996V102.8ZM230.494 110.225C229.164 110.225 228.119 109.895 227.359 109.235C226.609 108.565 226.234 107.625 226.234 106.415C226.234 105.235 226.569 104.3 227.239 103.61C227.919 102.92 228.884 102.575 230.134 102.575C230.964 102.575 231.669 102.735 232.249 103.055C232.829 103.365 233.264 103.8 233.554 104.36C233.854 104.91 234.004 105.54 234.004 106.25V107H227.674C227.724 107.68 228.009 108.19 228.529 108.53C229.059 108.86 229.774 109.025 230.674 109.025C231.134 109.025 231.599 108.985 232.069 108.905C232.539 108.815 232.954 108.7 233.314 108.56V109.775C232.994 109.905 232.569 110.01 232.039 110.09C231.519 110.18 231.004 110.225 230.494 110.225ZM232.579 105.935C232.559 105.255 232.334 104.73 231.904 104.36C231.484 103.98 230.884 103.79 230.104 103.79C229.344 103.79 228.754 103.985 228.334 104.375C227.914 104.765 227.694 105.285 227.674 105.935H232.579ZM239.455 110.225C238.655 110.225 237.945 110.075 237.325 109.775C236.705 109.475 236.22 109.04 235.87 108.47C235.53 107.89 235.36 107.205 235.36 106.415C235.36 105.625 235.53 104.945 235.87 104.375C236.22 103.795 236.705 103.35 237.325 103.04C237.955 102.73 238.675 102.575 239.485 102.575C240.585 102.575 241.465 102.79 242.125 103.22V104.465C241.475 104.015 240.645 103.79 239.635 103.79C238.815 103.79 238.15 104.015 237.64 104.465C237.14 104.905 236.89 105.555 236.89 106.415C236.89 107.275 237.14 107.925 237.64 108.365C238.14 108.805 238.795 109.025 239.605 109.025C240.615 109.025 241.485 108.785 242.215 108.305V109.535C241.865 109.775 241.465 109.95 241.015 110.06C240.575 110.17 240.055 110.225 239.455 110.225ZM246.728 110.225C245.758 110.225 245.023 109.965 244.523 109.445C244.033 108.925 243.788 108.23 243.788 107.36V102.8H245.303V107.3C245.303 108.45 245.878 109.025 247.028 109.025C248.038 109.025 248.828 108.57 249.398 107.66V102.8H250.913V110H249.443V108.98C249.103 109.41 248.698 109.725 248.228 109.925C247.768 110.125 247.268 110.225 246.728 110.225ZM252.857 102.8H254.327V104.09C254.627 103.65 255.047 103.325 255.587 103.115C256.137 102.905 256.772 102.8 257.492 102.8V103.985C256.722 103.985 256.062 104.11 255.512 104.36C254.962 104.61 254.582 105.005 254.372 105.545V110H252.857V102.8ZM261.283 110.225C260.783 110.225 260.253 110.16 259.693 110.03C259.133 109.91 258.693 109.745 258.373 109.535V108.245C258.763 108.475 259.213 108.665 259.723 108.815C260.233 108.955 260.728 109.025 261.208 109.025C261.748 109.025 262.143 108.96 262.393 108.83C262.643 108.7 262.768 108.49 262.768 108.2C262.768 107.98 262.708 107.805 262.588 107.675C262.478 107.535 262.283 107.41 262.003 107.3C261.733 107.19 261.323 107.06 260.773 106.91C260.183 106.74 259.713 106.57 259.363 106.4C259.023 106.22 258.763 105.995 258.583 105.725C258.413 105.455 258.328 105.105 258.328 104.675C258.328 103.985 258.598 103.465 259.138 103.115C259.688 102.755 260.423 102.575 261.343 102.575C261.823 102.575 262.293 102.62 262.753 102.71C263.213 102.8 263.583 102.925 263.863 103.085V104.345C263.573 104.175 263.213 104.04 262.783 103.94C262.363 103.84 261.933 103.79 261.493 103.79C260.963 103.79 260.558 103.855 260.278 103.985C259.998 104.115 259.858 104.345 259.858 104.675C259.858 104.885 259.918 105.055 260.038 105.185C260.158 105.315 260.348 105.43 260.608 105.53C260.878 105.62 261.303 105.74 261.883 105.89C262.793 106.14 263.423 106.435 263.773 106.775C264.133 107.115 264.313 107.585 264.313 108.185C264.313 108.805 264.058 109.3 263.548 109.67C263.038 110.04 262.283 110.225 261.283 110.225ZM269.542 110.225C268.732 110.225 268.017 110.075 267.397 109.775C266.787 109.465 266.307 109.025 265.957 108.455C265.617 107.875 265.447 107.195 265.447 106.415C265.447 105.645 265.617 104.97 265.957 104.39C266.297 103.81 266.777 103.365 267.397 103.055C268.017 102.735 268.732 102.575 269.542 102.575C270.352 102.575 271.067 102.735 271.687 103.055C272.307 103.365 272.787 103.81 273.127 104.39C273.477 104.97 273.652 105.645 273.652 106.415C273.652 107.195 273.477 107.875 273.127 108.455C272.787 109.025 272.307 109.465 271.687 109.775C271.067 110.075 270.352 110.225 269.542 110.225ZM269.542 109.025C270.322 109.025 270.942 108.785 271.402 108.305C271.862 107.825 272.092 107.195 272.092 106.415C272.092 105.605 271.862 104.965 271.402 104.495C270.942 104.025 270.322 103.79 269.542 103.79C268.762 103.79 268.142 104.025 267.682 104.495C267.222 104.965 266.992 105.605 266.992 106.415C266.992 107.195 267.222 107.825 267.682 108.305C268.142 108.785 268.762 109.025 269.542 109.025ZM277.572 110.225C277.072 110.225 276.542 110.16 275.982 110.03C275.422 109.91 274.982 109.745 274.662 109.535V108.245C275.052 108.475 275.502 108.665 276.012 108.815C276.522 108.955 277.017 109.025 277.497 109.025C278.037 109.025 278.432 108.96 278.682 108.83C278.932 108.7 279.057 108.49 279.057 108.2C279.057 107.98 278.997 107.805 278.877 107.675C278.767 107.535 278.572 107.41 278.292 107.3C278.022 107.19 277.612 107.06 277.062 106.91C276.472 106.74 276.002 106.57 275.652 106.4C275.312 106.22 275.052 105.995 274.872 105.725C274.702 105.455 274.617 105.105 274.617 104.675C274.617 103.985 274.887 103.465 275.427 103.115C275.977 102.755 276.712 102.575 277.632 102.575C278.112 102.575 278.582 102.62 279.042 102.71C279.502 102.8 279.872 102.925 280.152 103.085V104.345C279.862 104.175 279.502 104.04 279.072 103.94C278.652 103.84 278.222 103.79 277.782 103.79C277.252 103.79 276.847 103.855 276.567 103.985C276.287 104.115 276.147 104.345 276.147 104.675C276.147 104.885 276.207 105.055 276.327 105.185C276.447 105.315 276.637 105.43 276.897 105.53C277.167 105.62 277.592 105.74 278.172 105.89C279.082 106.14 279.712 106.435 280.062 106.775C280.422 107.115 280.602 107.585 280.602 108.185C280.602 108.805 280.347 109.3 279.837 109.67C279.327 110.04 278.572 110.225 277.572 110.225ZM283.171 109.205H284.761L283.336 112.22H281.956L283.171 109.205ZM17.2957 135.45C16.8057 135.45 16.3257 135.41 15.8557 135.33C15.3957 135.25 15.0057 135.135 14.6857 134.985V133.74C15.4357 134.08 16.3057 134.25 17.2957 134.25C18.2257 134.25 18.9007 134.045 19.3207 133.635C19.7507 133.235 19.9657 132.625 19.9657 131.805V131.04C19.3057 131.83 18.3357 132.225 17.0557 132.225C16.3257 132.225 15.6707 132.065 15.0907 131.745C14.5107 131.425 14.0557 130.975 13.7257 130.395C13.3957 129.815 13.2307 129.15 13.2307 128.4C13.2307 127.64 13.3907 126.975 13.7107 126.405C14.0407 125.825 14.4907 125.375 15.0607 125.055C15.6407 124.735 16.2907 124.575 17.0107 124.575C17.6807 124.575 18.2457 124.675 18.7057 124.875C19.1757 125.065 19.6107 125.385 20.0107 125.835V124.8H21.4807V131.64C21.4807 132.87 21.1357 133.81 20.4457 134.46C19.7657 135.12 18.7157 135.45 17.2957 135.45ZM17.3557 131.025C17.9757 131.025 18.5207 130.86 18.9907 130.53C19.4707 130.2 19.7957 129.76 19.9657 129.21V127.59C19.7757 127.03 19.4457 126.59 18.9757 126.27C18.5157 125.95 17.9757 125.79 17.3557 125.79C16.8657 125.79 16.4207 125.9 16.0207 126.12C15.6307 126.33 15.3207 126.635 15.0907 127.035C14.8707 127.435 14.7607 127.89 14.7607 128.4C14.7607 128.92 14.8707 129.38 15.0907 129.78C15.3207 130.17 15.6307 130.475 16.0207 130.695C16.4207 130.915 16.8657 131.025 17.3557 131.025ZM26.013 132.225C25.143 132.225 24.443 132.005 23.913 131.565C23.393 131.115 23.133 130.51 23.133 129.75C23.133 128.95 23.383 128.335 23.883 127.905C24.393 127.465 25.113 127.245 26.043 127.245C27.033 127.245 27.873 127.445 28.563 127.845V127.47C28.563 126.9 28.388 126.48 28.038 126.21C27.698 125.93 27.158 125.79 26.418 125.79C25.978 125.79 25.548 125.835 25.128 125.925C24.718 126.005 24.348 126.12 24.018 126.27V125.04C24.318 124.9 24.708 124.79 25.188 124.71C25.668 124.62 26.133 124.575 26.583 124.575C27.773 124.575 28.653 124.84 29.223 125.37C29.803 125.89 30.093 126.615 30.093 127.545V132H28.668V131.19C28.358 131.53 27.988 131.79 27.558 131.97C27.138 132.14 26.623 132.225 26.013 132.225ZM26.388 131.07C26.868 131.07 27.303 130.975 27.693 130.785C28.083 130.595 28.373 130.33 28.563 129.99V129.015C27.913 128.595 27.188 128.385 26.388 128.385C25.808 128.385 25.373 128.5 25.083 128.73C24.803 128.95 24.663 129.29 24.663 129.75C24.663 130.63 25.238 131.07 26.388 131.07ZM31.973 124.8H33.443V126.09C33.743 125.65 34.163 125.325 34.703 125.115C35.253 124.905 35.888 124.8 36.608 124.8V125.985C35.838 125.985 35.178 126.11 34.628 126.36C34.078 126.61 33.698 127.005 33.488 127.545V132H31.973V124.8ZM39.8704 132.225C39.0004 132.225 38.3004 132.005 37.7704 131.565C37.2504 131.115 36.9904 130.51 36.9904 129.75C36.9904 128.95 37.2404 128.335 37.7404 127.905C38.2504 127.465 38.9704 127.245 39.9004 127.245C40.8904 127.245 41.7304 127.445 42.4204 127.845V127.47C42.4204 126.9 42.2454 126.48 41.8954 126.21C41.5554 125.93 41.0154 125.79 40.2754 125.79C39.8354 125.79 39.4054 125.835 38.9854 125.925C38.5754 126.005 38.2054 126.12 37.8754 126.27V125.04C38.1754 124.9 38.5654 124.79 39.0454 124.71C39.5254 124.62 39.9904 124.575 40.4404 124.575C41.6304 124.575 42.5104 124.84 43.0804 125.37C43.6604 125.89 43.9504 126.615 43.9504 127.545V132H42.5254V131.19C42.2154 131.53 41.8454 131.79 41.4154 131.97C40.9954 132.14 40.4804 132.225 39.8704 132.225ZM40.2454 131.07C40.7254 131.07 41.1604 130.975 41.5504 130.785C41.9404 130.595 42.2304 130.33 42.4204 129.99V129.015C41.7704 128.595 41.0454 128.385 40.2454 128.385C39.6654 128.385 39.2304 128.5 38.9404 128.73C38.6604 128.95 38.5204 129.29 38.5204 129.75C38.5204 130.63 39.0954 131.07 40.2454 131.07ZM45.8305 124.8H47.3005V125.835C47.6405 125.405 48.0555 125.09 48.5455 124.89C49.0455 124.68 49.5655 124.575 50.1055 124.575C51.0655 124.575 51.7805 124.83 52.2505 125.34C52.7205 125.85 52.9555 126.535 52.9555 127.395V132H51.4405V127.545C51.4405 126.375 50.8805 125.79 49.7605 125.79C49.2805 125.79 48.8305 125.905 48.4105 126.135C48.0005 126.355 47.6455 126.695 47.3455 127.155V132H45.8305V124.8ZM57.5996 132.225C56.8696 132.225 56.3046 132.015 55.9046 131.595C55.5146 131.175 55.3196 130.58 55.3196 129.81V125.97H54.2246V124.8H55.3196V122.64H56.8496V124.8H58.6196V125.97H56.8496V129.705C56.8496 130.185 56.9396 130.525 57.1196 130.725C57.3096 130.925 57.6496 131.025 58.1396 131.025C58.4296 131.025 58.7196 130.96 59.0096 130.83V132.03C58.6296 132.16 58.1596 132.225 57.5996 132.225ZM61.32 123.39C61.07 123.39 60.86 123.305 60.69 123.135C60.52 122.965 60.435 122.755 60.435 122.505C60.435 122.255 60.52 122.045 60.69 121.875C60.86 121.705 61.07 121.62 61.32 121.62C61.58 121.62 61.795 121.705 61.965 121.875C62.145 122.045 62.235 122.255 62.235 122.505C62.235 122.755 62.145 122.965 61.965 123.135C61.795 123.305 61.58 123.39 61.32 123.39ZM60.555 124.8H62.1V132H60.555V124.8ZM64.185 124.8H65.655V125.835C65.995 125.405 66.41 125.09 66.9 124.89C67.4 124.68 67.92 124.575 68.46 124.575C69.42 124.575 70.135 124.83 70.605 125.34C71.075 125.85 71.31 126.535 71.31 127.395V132H69.795V127.545C69.795 126.375 69.235 125.79 68.115 125.79C67.635 125.79 67.185 125.905 66.765 126.135C66.355 126.355 66 126.695 65.7 127.155V132H64.185V124.8ZM76.6591 132.225C75.9391 132.225 75.2891 132.07 74.7091 131.76C74.1391 131.44 73.6891 130.995 73.3591 130.425C73.0391 129.845 72.8791 129.175 72.8791 128.415C72.8791 127.665 73.0391 127 73.3591 126.42C73.6891 125.84 74.1391 125.39 74.7091 125.07C75.2891 124.74 75.9391 124.575 76.6591 124.575C77.9591 124.575 78.9441 124.97 79.6141 125.76V120.915H81.1291V132H79.6591V130.95C79.2591 131.39 78.8191 131.715 78.3391 131.925C77.8691 132.125 77.3091 132.225 76.6591 132.225ZM77.0041 131.025C77.6241 131.025 78.1641 130.865 78.6241 130.545C79.0941 130.215 79.4241 129.775 79.6141 129.225V127.605C79.4441 127.055 79.1191 126.615 78.6391 126.285C78.1691 125.955 77.6241 125.79 77.0041 125.79C76.5141 125.79 76.0691 125.9 75.6691 126.12C75.2791 126.34 74.9691 126.65 74.7391 127.05C74.5191 127.45 74.4091 127.905 74.4091 128.415C74.4091 128.925 74.5191 129.38 74.7391 129.78C74.9691 130.18 75.2791 130.49 75.6691 130.71C76.0691 130.92 76.5141 131.025 77.0041 131.025ZM86.6567 132.225C85.8467 132.225 85.1317 132.075 84.5117 131.775C83.9017 131.465 83.4217 131.025 83.0717 130.455C82.7317 129.875 82.5617 129.195 82.5617 128.415C82.5617 127.645 82.7317 126.97 83.0717 126.39C83.4117 125.81 83.8917 125.365 84.5117 125.055C85.1317 124.735 85.8467 124.575 86.6567 124.575C87.4667 124.575 88.1817 124.735 88.8017 125.055C89.4217 125.365 89.9017 125.81 90.2417 126.39C90.5917 126.97 90.7667 127.645 90.7667 128.415C90.7667 129.195 90.5917 129.875 90.2417 130.455C89.9017 131.025 89.4217 131.465 88.8017 131.775C88.1817 132.075 87.4667 132.225 86.6567 132.225ZM86.6567 131.025C87.4367 131.025 88.0567 130.785 88.5167 130.305C88.9767 129.825 89.2067 129.195 89.2067 128.415C89.2067 127.605 88.9767 126.965 88.5167 126.495C88.0567 126.025 87.4367 125.79 86.6567 125.79C85.8767 125.79 85.2567 126.025 84.7967 126.495C84.3367 126.965 84.1067 127.605 84.1067 128.415C84.1067 129.195 84.3367 129.825 84.7967 130.305C85.2567 130.785 85.8767 131.025 86.6567 131.025ZM100.829 132.225C99.8593 132.225 99.1243 131.965 98.6243 131.445C98.1343 130.925 97.8893 130.23 97.8893 129.36V124.8H99.4043V129.3C99.4043 130.45 99.9793 131.025 101.129 131.025C102.139 131.025 102.929 130.57 103.499 129.66V124.8H105.014V132H103.544V130.98C103.204 131.41 102.799 131.725 102.329 131.925C101.869 132.125 101.369 132.225 100.829 132.225ZM106.958 124.8H108.398V125.835C108.738 125.415 109.123 125.1 109.553 124.89C109.983 124.68 110.428 124.575 110.888 124.575C111.468 124.575 111.928 124.675 112.268 124.875C112.608 125.065 112.858 125.36 113.018 125.76C113.338 125.37 113.728 125.075 114.188 124.875C114.658 124.675 115.128 124.575 115.598 124.575C116.478 124.575 117.113 124.8 117.503 125.25C117.893 125.69 118.088 126.345 118.088 127.215V132H116.618V127.41C116.618 126.82 116.508 126.405 116.288 126.165C116.068 125.915 115.693 125.79 115.163 125.79C114.403 125.79 113.783 126.12 113.303 126.78C113.323 126.93 113.333 127.175 113.333 127.515V132H111.863V127.41C111.863 126.82 111.763 126.405 111.563 126.165C111.363 125.915 111.003 125.79 110.483 125.79C109.723 125.79 109.043 126.22 108.443 127.08V132H106.958V124.8ZM122.326 132.225C121.456 132.225 120.756 132.005 120.226 131.565C119.706 131.115 119.446 130.51 119.446 129.75C119.446 128.95 119.696 128.335 120.196 127.905C120.706 127.465 121.426 127.245 122.356 127.245C123.346 127.245 124.186 127.445 124.876 127.845V127.47C124.876 126.9 124.701 126.48 124.351 126.21C124.011 125.93 123.471 125.79 122.731 125.79C122.291 125.79 121.861 125.835 121.441 125.925C121.031 126.005 120.661 126.12 120.331 126.27V125.04C120.631 124.9 121.021 124.79 121.501 124.71C121.981 124.62 122.446 124.575 122.896 124.575C124.086 124.575 124.966 124.84 125.536 125.37C126.116 125.89 126.406 126.615 126.406 127.545V132H124.981V131.19C124.671 131.53 124.301 131.79 123.871 131.97C123.451 132.14 122.936 132.225 122.326 132.225ZM122.701 131.07C123.181 131.07 123.616 130.975 124.006 130.785C124.396 130.595 124.686 130.33 124.876 129.99V129.015C124.226 128.595 123.501 128.385 122.701 128.385C122.121 128.385 121.686 128.5 121.396 128.73C121.116 128.95 120.976 129.29 120.976 129.75C120.976 130.63 121.551 131.07 122.701 131.07ZM137.798 132.225C136.468 132.225 135.423 131.895 134.663 131.235C133.913 130.565 133.538 129.625 133.538 128.415C133.538 127.235 133.873 126.3 134.543 125.61C135.223 124.92 136.188 124.575 137.438 124.575C138.268 124.575 138.973 124.735 139.553 125.055C140.133 125.365 140.568 125.8 140.858 126.36C141.158 126.91 141.308 127.54 141.308 128.25V129H134.978C135.028 129.68 135.313 130.19 135.833 130.53C136.363 130.86 137.078 131.025 137.978 131.025C138.438 131.025 138.903 130.985 139.373 130.905C139.843 130.815 140.258 130.7 140.618 130.56V131.775C140.298 131.905 139.873 132.01 139.343 132.09C138.823 132.18 138.308 132.225 137.798 132.225ZM139.883 127.935C139.863 127.255 139.638 126.73 139.208 126.36C138.788 125.98 138.188 125.79 137.408 125.79C136.648 125.79 136.058 125.985 135.638 126.375C135.218 126.765 134.998 127.285 134.978 127.935H139.883ZM142.964 124.8H144.434V125.835C144.774 125.405 145.189 125.09 145.679 124.89C146.179 124.68 146.699 124.575 147.239 124.575C148.199 124.575 148.914 124.83 149.384 125.34C149.854 125.85 150.089 126.535 150.089 127.395V132H148.574V127.545C148.574 126.375 148.014 125.79 146.894 125.79C146.414 125.79 145.964 125.905 145.544 126.135C145.134 126.355 144.779 126.695 144.479 127.155V132H142.964V124.8ZM154.733 132.225C154.003 132.225 153.438 132.015 153.038 131.595C152.648 131.175 152.453 130.58 152.453 129.81V125.97H151.358V124.8H152.453V122.64H153.983V124.8H155.753V125.97H153.983V129.705C153.983 130.185 154.073 130.525 154.253 130.725C154.443 130.925 154.783 131.025 155.273 131.025C155.563 131.025 155.853 130.96 156.143 130.83V132.03C155.763 132.16 155.293 132.225 154.733 132.225ZM157.569 124.8H159.039V126.09C159.339 125.65 159.759 125.325 160.299 125.115C160.849 124.905 161.484 124.8 162.204 124.8V125.985C161.434 125.985 160.774 126.11 160.224 126.36C159.674 126.61 159.294 127.005 159.084 127.545V132H157.569V124.8ZM167.066 132.225C165.736 132.225 164.691 131.895 163.931 131.235C163.181 130.565 162.806 129.625 162.806 128.415C162.806 127.235 163.141 126.3 163.811 125.61C164.491 124.92 165.456 124.575 166.706 124.575C167.536 124.575 168.241 124.735 168.821 125.055C169.401 125.365 169.836 125.8 170.126 126.36C170.426 126.91 170.576 127.54 170.576 128.25V129H164.246C164.296 129.68 164.581 130.19 165.101 130.53C165.631 130.86 166.346 131.025 167.246 131.025C167.706 131.025 168.171 130.985 168.641 130.905C169.111 130.815 169.526 130.7 169.886 130.56V131.775C169.566 131.905 169.141 132.01 168.611 132.09C168.091 132.18 167.576 132.225 167.066 132.225ZM169.151 127.935C169.131 127.255 168.906 126.73 168.476 126.36C168.056 125.98 167.456 125.79 166.676 125.79C165.916 125.79 165.326 125.985 164.906 126.375C164.486 126.765 164.266 127.285 164.246 127.935H169.151ZM175.997 135.45C175.507 135.45 175.027 135.41 174.557 135.33C174.097 135.25 173.707 135.135 173.387 134.985V133.74C174.137 134.08 175.007 134.25 175.997 134.25C176.927 134.25 177.602 134.045 178.022 133.635C178.452 133.235 178.667 132.625 178.667 131.805V131.04C178.007 131.83 177.037 132.225 175.757 132.225C175.027 132.225 174.372 132.065 173.792 131.745C173.212 131.425 172.757 130.975 172.427 130.395C172.097 129.815 171.932 129.15 171.932 128.4C171.932 127.64 172.092 126.975 172.412 126.405C172.742 125.825 173.192 125.375 173.762 125.055C174.342 124.735 174.992 124.575 175.712 124.575C176.382 124.575 176.947 124.675 177.407 124.875C177.877 125.065 178.312 125.385 178.712 125.835V124.8H180.182V131.64C180.182 132.87 179.837 133.81 179.147 134.46C178.467 135.12 177.417 135.45 175.997 135.45ZM176.057 131.025C176.677 131.025 177.222 130.86 177.692 130.53C178.172 130.2 178.497 129.76 178.667 129.21V127.59C178.477 127.03 178.147 126.59 177.677 126.27C177.217 125.95 176.677 125.79 176.057 125.79C175.567 125.79 175.122 125.9 174.722 126.12C174.332 126.33 174.022 126.635 173.792 127.035C173.572 127.435 173.462 127.89 173.462 128.4C173.462 128.92 173.572 129.38 173.792 129.78C174.022 130.17 174.332 130.475 174.722 130.695C175.122 130.915 175.567 131.025 176.057 131.025ZM184.714 132.225C183.844 132.225 183.144 132.005 182.614 131.565C182.094 131.115 181.834 130.51 181.834 129.75C181.834 128.95 182.084 128.335 182.584 127.905C183.094 127.465 183.814 127.245 184.744 127.245C185.734 127.245 186.574 127.445 187.264 127.845V127.47C187.264 126.9 187.089 126.48 186.739 126.21C186.399 125.93 185.859 125.79 185.119 125.79C184.679 125.79 184.249 125.835 183.829 125.925C183.419 126.005 183.049 126.12 182.719 126.27V125.04C183.019 124.9 183.409 124.79 183.889 124.71C184.369 124.62 184.834 124.575 185.284 124.575C186.474 124.575 187.354 124.84 187.924 125.37C188.504 125.89 188.794 126.615 188.794 127.545V132H187.369V131.19C187.059 131.53 186.689 131.79 186.259 131.97C185.839 132.14 185.324 132.225 184.714 132.225ZM185.089 131.07C185.569 131.07 186.004 130.975 186.394 130.785C186.784 130.595 187.074 130.33 187.264 129.99V129.015C186.614 128.595 185.889 128.385 185.089 128.385C184.509 128.385 184.074 128.5 183.784 128.73C183.504 128.95 183.364 129.29 183.364 129.75C183.364 130.63 183.939 131.07 185.089 131.07ZM196.226 124.8H197.696V126.09C197.996 125.65 198.416 125.325 198.956 125.115C199.506 124.905 200.141 124.8 200.861 124.8V125.985C200.091 125.985 199.431 126.11 198.881 126.36C198.331 126.61 197.951 127.005 197.741 127.545V132H196.226V124.8ZM205.143 121.41H206.748L205.503 123.99H204.123L205.143 121.41ZM204.123 132.225C203.253 132.225 202.553 132.005 202.023 131.565C201.503 131.115 201.243 130.51 201.243 129.75C201.243 128.95 201.493 128.335 201.993 127.905C202.503 127.465 203.223 127.245 204.153 127.245C205.143 127.245 205.983 127.445 206.673 127.845V127.47C206.673 126.9 206.498 126.48 206.148 126.21C205.808 125.93 205.268 125.79 204.528 125.79C204.088 125.79 203.658 125.835 203.238 125.925C202.828 126.005 202.458 126.12 202.128 126.27V125.04C202.428 124.9 202.818 124.79 203.298 124.71C203.778 124.62 204.243 124.575 204.693 124.575C205.883 124.575 206.763 124.84 207.333 125.37C207.913 125.89 208.203 126.615 208.203 127.545V132H206.778V131.19C206.468 131.53 206.098 131.79 205.668 131.97C205.248 132.14 204.733 132.225 204.123 132.225ZM204.498 131.07C204.978 131.07 205.413 130.975 205.803 130.785C206.193 130.595 206.483 130.33 206.673 129.99V129.015C206.023 128.595 205.298 128.385 204.498 128.385C203.918 128.385 203.483 128.5 203.193 128.73C202.913 128.95 202.773 129.29 202.773 129.75C202.773 130.63 203.348 131.07 204.498 131.07ZM210.083 124.8H211.553V125.865C212.293 125.005 213.293 124.575 214.553 124.575C215.273 124.575 215.918 124.735 216.488 125.055C217.068 125.375 217.518 125.825 217.838 126.405C218.168 126.975 218.333 127.64 218.333 128.4C218.333 129.15 218.168 129.815 217.838 130.395C217.518 130.975 217.073 131.425 216.503 131.745C215.933 132.065 215.283 132.225 214.553 132.225C213.953 132.225 213.393 132.125 212.873 131.925C212.353 131.725 211.928 131.43 211.598 131.04V135.285H210.083V124.8ZM214.208 131.025C214.698 131.025 215.138 130.92 215.528 130.71C215.928 130.49 216.238 130.18 216.458 129.78C216.688 129.38 216.803 128.92 216.803 128.4C216.803 127.88 216.688 127.425 216.458 127.035C216.238 126.635 215.928 126.33 215.528 126.12C215.138 125.9 214.698 125.79 214.208 125.79C213.598 125.79 213.058 125.95 212.588 126.27C212.128 126.59 211.798 127.03 211.598 127.59V129.21C211.768 129.76 212.093 130.2 212.573 130.53C213.053 130.86 213.598 131.025 214.208 131.025ZM220.871 123.39C220.621 123.39 220.411 123.305 220.241 123.135C220.071 122.965 219.986 122.755 219.986 122.505C219.986 122.255 220.071 122.045 220.241 121.875C220.411 121.705 220.621 121.62 220.871 121.62C221.131 121.62 221.346 121.705 221.516 121.875C221.696 122.045 221.786 122.255 221.786 122.505C221.786 122.755 221.696 122.965 221.516 123.135C221.346 123.305 221.131 123.39 220.871 123.39ZM220.106 124.8H221.651V132H220.106V124.8ZM227.216 132.225C226.496 132.225 225.846 132.07 225.266 131.76C224.696 131.44 224.246 130.995 223.916 130.425C223.596 129.845 223.436 129.175 223.436 128.415C223.436 127.665 223.596 127 223.916 126.42C224.246 125.84 224.696 125.39 225.266 125.07C225.846 124.74 226.496 124.575 227.216 124.575C228.516 124.575 229.501 124.97 230.171 125.76V120.915H231.686V132H230.216V130.95C229.816 131.39 229.376 131.715 228.896 131.925C228.426 132.125 227.866 132.225 227.216 132.225ZM227.561 131.025C228.181 131.025 228.721 130.865 229.181 130.545C229.651 130.215 229.981 129.775 230.171 129.225V127.605C230.001 127.055 229.676 126.615 229.196 126.285C228.726 125.955 228.181 125.79 227.561 125.79C227.071 125.79 226.626 125.9 226.226 126.12C225.836 126.34 225.526 126.65 225.296 127.05C225.076 127.45 224.966 127.905 224.966 128.415C224.966 128.925 225.076 129.38 225.296 129.78C225.526 130.18 225.836 130.49 226.226 130.71C226.626 130.92 227.071 131.025 227.561 131.025ZM235.998 132.225C235.128 132.225 234.428 132.005 233.898 131.565C233.378 131.115 233.118 130.51 233.118 129.75C233.118 128.95 233.368 128.335 233.868 127.905C234.378 127.465 235.098 127.245 236.028 127.245C237.018 127.245 237.858 127.445 238.548 127.845V127.47C238.548 126.9 238.373 126.48 238.023 126.21C237.683 125.93 237.143 125.79 236.403 125.79C235.963 125.79 235.533 125.835 235.113 125.925C234.703 126.005 234.333 126.12 234.003 126.27V125.04C234.303 124.9 234.693 124.79 235.173 124.71C235.653 124.62 236.118 124.575 236.568 124.575C237.758 124.575 238.638 124.84 239.208 125.37C239.788 125.89 240.078 126.615 240.078 127.545V132H238.653V131.19C238.343 131.53 237.973 131.79 237.543 131.97C237.123 132.14 236.608 132.225 235.998 132.225ZM236.373 131.07C236.853 131.07 237.288 130.975 237.678 130.785C238.068 130.595 238.358 130.33 238.548 129.99V129.015C237.898 128.595 237.173 128.385 236.373 128.385C235.793 128.385 235.358 128.5 235.068 128.73C234.788 128.95 234.648 129.29 234.648 129.75C234.648 130.63 235.223 131.07 236.373 131.07ZM251.47 132.225C250.14 132.225 249.095 131.895 248.335 131.235C247.585 130.565 247.21 129.625 247.21 128.415C247.21 127.235 247.545 126.3 248.215 125.61C248.895 124.92 249.86 124.575 251.11 124.575C251.94 124.575 252.645 124.735 253.225 125.055C253.805 125.365 254.24 125.8 254.53 126.36C254.83 126.91 254.98 127.54 254.98 128.25V129H248.65C248.7 129.68 248.985 130.19 249.505 130.53C250.035 130.86 250.75 131.025 251.65 131.025C252.11 131.025 252.575 130.985 253.045 130.905C253.515 130.815 253.93 130.7 254.29 130.56V131.775C253.97 131.905 253.545 132.01 253.015 132.09C252.495 132.18 251.98 132.225 251.47 132.225ZM253.555 127.935C253.535 127.255 253.31 126.73 252.88 126.36C252.46 125.98 251.86 125.79 251.08 125.79C250.32 125.79 249.73 125.985 249.31 126.375C248.89 126.765 248.67 127.285 248.65 127.935H253.555ZM266.148 132.225C264.818 132.225 263.773 131.895 263.013 131.235C262.263 130.565 261.888 129.625 261.888 128.415C261.888 127.235 262.223 126.3 262.893 125.61C263.573 124.92 264.538 124.575 265.788 124.575C266.618 124.575 267.323 124.735 267.903 125.055C268.483 125.365 268.918 125.8 269.208 126.36C269.508 126.91 269.658 127.54 269.658 128.25V129H263.328C263.378 129.68 263.663 130.19 264.183 130.53C264.713 130.86 265.428 131.025 266.328 131.025C266.788 131.025 267.253 130.985 267.723 130.905C268.193 130.815 268.608 130.7 268.968 130.56V131.775C268.648 131.905 268.223 132.01 267.693 132.09C267.173 132.18 266.658 132.225 266.148 132.225ZM268.233 127.935C268.213 127.255 267.988 126.73 267.558 126.36C267.138 125.98 266.538 125.79 265.758 125.79C264.998 125.79 264.408 125.985 263.988 126.375C263.568 126.765 263.348 127.285 263.328 127.935H268.233ZM271.809 125.97H270.714V124.8H271.809V123.435C271.809 122.605 272.074 121.965 272.604 121.515C273.134 121.065 273.794 120.84 274.584 120.84C274.984 120.84 275.374 120.9 275.754 121.02V122.25C275.474 122.14 275.184 122.085 274.884 122.085C274.374 122.085 273.984 122.21 273.714 122.46C273.454 122.7 273.324 123.055 273.324 123.525V124.8H278.184V132H276.669V125.97H273.324V132H271.809V125.97ZM277.419 123.39C277.159 123.39 276.944 123.305 276.774 123.135C276.604 122.965 276.519 122.755 276.519 122.505C276.519 122.255 276.604 122.045 276.774 121.875C276.954 121.705 277.169 121.62 277.419 121.62C277.669 121.62 277.879 121.705 278.049 121.875C278.229 122.045 278.319 122.255 278.319 122.505C278.319 122.755 278.229 122.965 278.049 123.135C277.879 123.305 277.669 123.39 277.419 123.39ZM284.059 132.225C283.259 132.225 282.549 132.075 281.929 131.775C281.309 131.475 280.824 131.04 280.474 130.47C280.134 129.89 279.964 129.205 279.964 128.415C279.964 127.625 280.134 126.945 280.474 126.375C280.824 125.795 281.309 125.35 281.929 125.04C282.559 124.73 283.279 124.575 284.089 124.575C285.189 124.575 286.069 124.79 286.729 125.22V126.465C286.079 126.015 285.249 125.79 284.239 125.79C283.419 125.79 282.754 126.015 282.244 126.465C281.744 126.905 281.494 127.555 281.494 128.415C281.494 129.275 281.744 129.925 282.244 130.365C282.744 130.805 283.399 131.025 284.209 131.025C285.219 131.025 286.089 130.785 286.819 130.305V131.535C286.469 131.775 286.069 131.95 285.619 132.06C285.179 132.17 284.659 132.225 284.059 132.225ZM290.974 132.225C290.104 132.225 289.404 132.005 288.874 131.565C288.354 131.115 288.094 130.51 288.094 129.75C288.094 128.95 288.344 128.335 288.844 127.905C289.354 127.465 290.074 127.245 291.004 127.245C291.994 127.245 292.834 127.445 293.524 127.845V127.47C293.524 126.9 293.349 126.48 292.999 126.21C292.659 125.93 292.119 125.79 291.379 125.79C290.939 125.79 290.509 125.835 290.089 125.925C289.679 126.005 289.309 126.12 288.979 126.27V125.04C289.279 124.9 289.669 124.79 290.149 124.71C290.629 124.62 291.094 124.575 291.544 124.575C292.734 124.575 293.614 124.84 294.184 125.37C294.764 125.89 295.054 126.615 295.054 127.545V132H293.629V131.19C293.319 131.53 292.949 131.79 292.519 131.97C292.099 132.14 291.584 132.225 290.974 132.225ZM291.349 131.07C291.829 131.07 292.264 130.975 292.654 130.785C293.044 130.595 293.334 130.33 293.524 129.99V129.015C292.874 128.595 292.149 128.385 291.349 128.385C290.769 128.385 290.334 128.5 290.044 128.73C289.764 128.95 289.624 129.29 289.624 129.75C289.624 130.63 290.199 131.07 291.349 131.07ZM296.634 131.025L300.729 125.97H296.724V124.8H302.619V125.79L298.524 130.83H302.769V132H296.634V131.025ZM47.753 154.225C47.253 154.225 46.723 154.16 46.163 154.03C45.603 153.91 45.163 153.745 44.843 153.535V152.245C45.233 152.475 45.683 152.665 46.193 152.815C46.703 152.955 47.198 153.025 47.678 153.025C48.218 153.025 48.613 152.96 48.863 152.83C49.113 152.7 49.238 152.49 49.238 152.2C49.238 151.98 49.178 151.805 49.058 151.675C48.948 151.535 48.753 151.41 48.473 151.3C48.203 151.19 47.793 151.06 47.243 150.91C46.653 150.74 46.183 150.57 45.833 150.4C45.493 150.22 45.233 149.995 45.053 149.725C44.883 149.455 44.798 149.105 44.798 148.675C44.798 147.985 45.068 147.465 45.608 147.115C46.158 146.755 46.893 146.575 47.813 146.575C48.293 146.575 48.763 146.62 49.223 146.71C49.683 146.8 50.053 146.925 50.333 147.085V148.345C50.043 148.175 49.683 148.04 49.253 147.94C48.833 147.84 48.403 147.79 47.963 147.79C47.433 147.79 47.028 147.855 46.748 147.985C46.468 148.115 46.328 148.345 46.328 148.675C46.328 148.885 46.388 149.055 46.508 149.185C46.628 149.315 46.818 149.43 47.078 149.53C47.348 149.62 47.773 149.74 48.353 149.89C49.263 150.14 49.893 150.435 50.243 150.775C50.603 151.115 50.783 151.585 50.783 152.185C50.783 152.805 50.528 153.3 50.018 153.67C49.508 154.04 48.753 154.225 47.753 154.225ZM56.3969 154.225C55.0669 154.225 54.0219 153.895 53.2619 153.235C52.5119 152.565 52.1369 151.625 52.1369 150.415C52.1369 149.235 52.4719 148.3 53.1419 147.61C53.8219 146.92 54.7869 146.575 56.0369 146.575C56.8669 146.575 57.5719 146.735 58.1519 147.055C58.7319 147.365 59.1669 147.8 59.4569 148.36C59.7569 148.91 59.9069 149.54 59.9069 150.25V151H53.5769C53.6269 151.68 53.9119 152.19 54.4319 152.53C54.9619 152.86 55.6769 153.025 56.5769 153.025C57.0369 153.025 57.5019 152.985 57.9719 152.905C58.4419 152.815 58.8569 152.7 59.2169 152.56V153.775C58.8969 153.905 58.4719 154.01 57.9419 154.09C57.4219 154.18 56.9069 154.225 56.3969 154.225ZM58.4819 149.935C58.4619 149.255 58.2369 148.73 57.8069 148.36C57.3869 147.98 56.7869 147.79 56.0069 147.79C55.2469 147.79 54.6569 147.985 54.2369 148.375C53.8169 148.765 53.5969 149.285 53.5769 149.935H58.4819ZM61.5629 146.8H63.0029V147.835C63.3429 147.415 63.7279 147.1 64.1579 146.89C64.5879 146.68 65.0329 146.575 65.4929 146.575C66.0729 146.575 66.5329 146.675 66.8729 146.875C67.2129 147.065 67.4629 147.36 67.6229 147.76C67.9429 147.37 68.3329 147.075 68.7929 146.875C69.2629 146.675 69.7329 146.575 70.2029 146.575C71.0829 146.575 71.7179 146.8 72.1079 147.25C72.4979 147.69 72.6929 148.345 72.6929 149.215V154H71.2229V149.41C71.2229 148.82 71.1129 148.405 70.8929 148.165C70.6729 147.915 70.2979 147.79 69.7679 147.79C69.0079 147.79 68.3879 148.12 67.9079 148.78C67.9279 148.93 67.9379 149.175 67.9379 149.515V154H66.4679V149.41C66.4679 148.82 66.3679 148.405 66.1679 148.165C65.9679 147.915 65.6079 147.79 65.0879 147.79C64.3279 147.79 63.6479 148.22 63.0479 149.08V154H61.5629V146.8ZM83.9175 154.225C83.1175 154.225 82.4075 154.075 81.7875 153.775C81.1675 153.475 80.6825 153.04 80.3325 152.47C79.9925 151.89 79.8225 151.205 79.8225 150.415C79.8225 149.625 79.9925 148.945 80.3325 148.375C80.6825 147.795 81.1675 147.35 81.7875 147.04C82.4175 146.73 83.1375 146.575 83.9475 146.575C85.0475 146.575 85.9275 146.79 86.5875 147.22V148.465C85.9375 148.015 85.1075 147.79 84.0975 147.79C83.2775 147.79 82.6125 148.015 82.1025 148.465C81.6025 148.905 81.3525 149.555 81.3525 150.415C81.3525 151.275 81.6025 151.925 82.1025 152.365C82.6025 152.805 83.2575 153.025 84.0675 153.025C85.0775 153.025 85.9475 152.785 86.6775 152.305V153.535C86.3275 153.775 85.9275 153.95 85.4775 154.06C85.0375 154.17 84.5175 154.225 83.9175 154.225ZM91.9009 154.225C91.0909 154.225 90.3759 154.075 89.7559 153.775C89.1459 153.465 88.6659 153.025 88.3159 152.455C87.9759 151.875 87.8059 151.195 87.8059 150.415C87.8059 149.645 87.9759 148.97 88.3159 148.39C88.6559 147.81 89.1359 147.365 89.7559 147.055C90.3759 146.735 91.0909 146.575 91.9009 146.575C92.7109 146.575 93.4259 146.735 94.0459 147.055C94.6659 147.365 95.1459 147.81 95.4859 148.39C95.8359 148.97 96.0109 149.645 96.0109 150.415C96.0109 151.195 95.8359 151.875 95.4859 152.455C95.1459 153.025 94.6659 153.465 94.0459 153.775C93.4259 154.075 92.7109 154.225 91.9009 154.225ZM91.9009 153.025C92.6809 153.025 93.3009 152.785 93.7609 152.305C94.2209 151.825 94.4509 151.195 94.4509 150.415C94.4509 149.605 94.2209 148.965 93.7609 148.495C93.3009 148.025 92.6809 147.79 91.9009 147.79C91.1209 147.79 90.5009 148.025 90.0409 148.495C89.5809 148.965 89.3509 149.605 89.3509 150.415C89.3509 151.195 89.5809 151.825 90.0409 152.305C90.5009 152.785 91.1209 153.025 91.9009 153.025ZM97.6566 146.8H99.0966V147.835C99.4366 147.415 99.8216 147.1 100.252 146.89C100.682 146.68 101.127 146.575 101.587 146.575C102.167 146.575 102.627 146.675 102.967 146.875C103.307 147.065 103.557 147.36 103.717 147.76C104.037 147.37 104.427 147.075 104.887 146.875C105.357 146.675 105.827 146.575 106.297 146.575C107.177 146.575 107.812 146.8 108.202 147.25C108.592 147.69 108.787 148.345 108.787 149.215V154H107.317V149.41C107.317 148.82 107.207 148.405 106.987 148.165C106.767 147.915 106.392 147.79 105.862 147.79C105.102 147.79 104.482 148.12 104.002 148.78C104.022 148.93 104.032 149.175 104.032 149.515V154H102.562V149.41C102.562 148.82 102.462 148.405 102.262 148.165C102.062 147.915 101.702 147.79 101.182 147.79C100.422 147.79 99.7416 148.22 99.1416 149.08V154H97.6566V146.8ZM110.664 146.8H112.134V147.865C112.874 147.005 113.874 146.575 115.134 146.575C115.854 146.575 116.499 146.735 117.069 147.055C117.649 147.375 118.099 147.825 118.419 148.405C118.749 148.975 118.914 149.64 118.914 150.4C118.914 151.15 118.749 151.815 118.419 152.395C118.099 152.975 117.654 153.425 117.084 153.745C116.514 154.065 115.864 154.225 115.134 154.225C114.534 154.225 113.974 154.125 113.454 153.925C112.934 153.725 112.509 153.43 112.179 153.04V157.285H110.664V146.8ZM114.789 153.025C115.279 153.025 115.719 152.92 116.109 152.71C116.509 152.49 116.819 152.18 117.039 151.78C117.269 151.38 117.384 150.92 117.384 150.4C117.384 149.88 117.269 149.425 117.039 149.035C116.819 148.635 116.509 148.33 116.109 148.12C115.719 147.9 115.279 147.79 114.789 147.79C114.179 147.79 113.639 147.95 113.169 148.27C112.709 148.59 112.379 149.03 112.179 149.59V151.21C112.349 151.76 112.674 152.2 113.154 152.53C113.634 152.86 114.179 153.025 114.789 153.025ZM120.567 146.8H122.037V148.09C122.337 147.65 122.757 147.325 123.297 147.115C123.847 146.905 124.482 146.8 125.202 146.8V147.985C124.432 147.985 123.772 148.11 123.222 148.36C122.672 148.61 122.292 149.005 122.082 149.545V154H120.567V146.8ZM130.133 154.225C129.323 154.225 128.608 154.075 127.988 153.775C127.378 153.465 126.898 153.025 126.548 152.455C126.208 151.875 126.038 151.195 126.038 150.415C126.038 149.645 126.208 148.97 126.548 148.39C126.888 147.81 127.368 147.365 127.988 147.055C128.608 146.735 129.323 146.575 130.133 146.575C130.943 146.575 131.658 146.735 132.278 147.055C132.898 147.365 133.378 147.81 133.718 148.39C134.068 148.97 134.243 149.645 134.243 150.415C134.243 151.195 134.068 151.875 133.718 152.455C133.378 153.025 132.898 153.465 132.278 153.775C131.658 154.075 130.943 154.225 130.133 154.225ZM130.133 153.025C130.913 153.025 131.533 152.785 131.993 152.305C132.453 151.825 132.683 151.195 132.683 150.415C132.683 149.605 132.453 148.965 131.993 148.495C131.533 148.025 130.913 147.79 130.133 147.79C129.353 147.79 128.733 148.025 128.273 148.495C127.813 148.965 127.583 149.605 127.583 150.415C127.583 151.195 127.813 151.825 128.273 152.305C128.733 152.785 129.353 153.025 130.133 153.025ZM135.889 146.8H137.329V147.835C137.669 147.415 138.054 147.1 138.484 146.89C138.914 146.68 139.359 146.575 139.819 146.575C140.399 146.575 140.859 146.675 141.199 146.875C141.539 147.065 141.789 147.36 141.949 147.76C142.269 147.37 142.659 147.075 143.119 146.875C143.589 146.675 144.059 146.575 144.529 146.575C145.409 146.575 146.044 146.8 146.434 147.25C146.824 147.69 147.019 148.345 147.019 149.215V154H145.549V149.41C145.549 148.82 145.439 148.405 145.219 148.165C144.999 147.915 144.624 147.79 144.094 147.79C143.334 147.79 142.714 148.12 142.234 148.78C142.254 148.93 142.264 149.175 142.264 149.515V154H140.794V149.41C140.794 148.82 140.694 148.405 140.494 148.165C140.294 147.915 139.934 147.79 139.414 147.79C138.654 147.79 137.974 148.22 137.374 149.08V154H135.889V146.8ZM152.857 154.225C151.527 154.225 150.482 153.895 149.722 153.235C148.972 152.565 148.597 151.625 148.597 150.415C148.597 149.235 148.932 148.3 149.602 147.61C150.282 146.92 151.247 146.575 152.497 146.575C153.327 146.575 154.032 146.735 154.612 147.055C155.192 147.365 155.627 147.8 155.917 148.36C156.217 148.91 156.367 149.54 156.367 150.25V151H150.037C150.087 151.68 150.372 152.19 150.892 152.53C151.422 152.86 152.137 153.025 153.037 153.025C153.497 153.025 153.962 152.985 154.432 152.905C154.902 152.815 155.317 152.7 155.677 152.56V153.775C155.357 153.905 154.932 154.01 154.402 154.09C153.882 154.18 153.367 154.225 152.857 154.225ZM154.942 149.935C154.922 149.255 154.697 148.73 154.267 148.36C153.847 147.98 153.247 147.79 152.467 147.79C151.707 147.79 151.117 147.985 150.697 148.375C150.277 148.765 150.057 149.285 150.037 149.935H154.942ZM160.798 154.225C160.068 154.225 159.503 154.015 159.103 153.595C158.713 153.175 158.518 152.58 158.518 151.81V147.97H157.423V146.8H158.518V144.64H160.048V146.8H161.818V147.97H160.048V151.705C160.048 152.185 160.138 152.525 160.318 152.725C160.508 152.925 160.848 153.025 161.338 153.025C161.628 153.025 161.918 152.96 162.208 152.83V154.03C161.828 154.16 161.358 154.225 160.798 154.225ZM167.593 154.225C166.263 154.225 165.218 153.895 164.458 153.235C163.708 152.565 163.333 151.625 163.333 150.415C163.333 149.235 163.668 148.3 164.338 147.61C165.018 146.92 165.983 146.575 167.233 146.575C168.063 146.575 168.768 146.735 169.348 147.055C169.928 147.365 170.363 147.8 170.653 148.36C170.953 148.91 171.103 149.54 171.103 150.25V151H164.773C164.823 151.68 165.108 152.19 165.628 152.53C166.158 152.86 166.873 153.025 167.773 153.025C168.233 153.025 168.698 152.985 169.168 152.905C169.638 152.815 170.053 152.7 170.413 152.56V153.775C170.093 153.905 169.668 154.01 169.138 154.09C168.618 154.18 168.103 154.225 167.593 154.225ZM169.678 149.935C169.658 149.255 169.433 148.73 169.003 148.36C168.583 147.98 167.983 147.79 167.203 147.79C166.443 147.79 165.853 147.985 165.433 148.375C165.013 148.765 164.793 149.285 164.773 149.935H169.678ZM172.759 146.8H174.229V148.09C174.529 147.65 174.949 147.325 175.489 147.115C176.039 146.905 176.674 146.8 177.394 146.8V147.985C176.624 147.985 175.964 148.11 175.414 148.36C174.864 148.61 174.484 149.005 174.274 149.545V154H172.759V146.8ZM186.882 154.225C186.012 154.225 185.312 154.005 184.782 153.565C184.262 153.115 184.002 152.51 184.002 151.75C184.002 150.95 184.252 150.335 184.752 149.905C185.262 149.465 185.982 149.245 186.912 149.245C187.902 149.245 188.742 149.445 189.432 149.845V149.47C189.432 148.9 189.257 148.48 188.907 148.21C188.567 147.93 188.027 147.79 187.287 147.79C186.847 147.79 186.417 147.835 185.997 147.925C185.587 148.005 185.217 148.12 184.887 148.27V147.04C185.187 146.9 185.577 146.79 186.057 146.71C186.537 146.62 187.002 146.575 187.452 146.575C188.642 146.575 189.522 146.84 190.092 147.37C190.672 147.89 190.962 148.615 190.962 149.545V154H189.537V153.19C189.227 153.53 188.857 153.79 188.427 153.97C188.007 154.14 187.492 154.225 186.882 154.225ZM187.257 153.07C187.737 153.07 188.172 152.975 188.562 152.785C188.952 152.595 189.242 152.33 189.432 151.99V151.015C188.782 150.595 188.057 150.385 187.257 150.385C186.677 150.385 186.242 150.5 185.952 150.73C185.672 150.95 185.532 151.29 185.532 151.75C185.532 152.63 186.107 153.07 187.257 153.07ZM204.829 153.04C204.499 153.43 204.074 153.725 203.554 153.925C203.034 154.125 202.474 154.225 201.874 154.225C201.144 154.225 200.494 154.065 199.924 153.745C199.354 153.425 198.904 152.975 198.574 152.395C198.254 151.815 198.094 151.15 198.094 150.4C198.094 149.64 198.254 148.975 198.574 148.405C198.904 147.825 199.354 147.375 199.924 147.055C200.504 146.735 201.154 146.575 201.874 146.575C203.134 146.575 204.134 147.005 204.874 147.865V146.8H206.344V157.285H204.829V153.04ZM202.219 153.025C202.829 153.025 203.374 152.86 203.854 152.53C204.334 152.2 204.659 151.76 204.829 151.21V149.59C204.629 149.03 204.294 148.59 203.824 148.27C203.364 147.95 202.829 147.79 202.219 147.79C201.729 147.79 201.284 147.9 200.884 148.12C200.494 148.33 200.184 148.635 199.954 149.035C199.734 149.425 199.624 149.88 199.624 150.4C199.624 150.92 199.734 151.38 199.954 151.78C200.184 152.18 200.494 152.49 200.884 152.71C201.284 152.92 201.729 153.025 202.219 153.025ZM211.161 154.225C210.191 154.225 209.456 153.965 208.956 153.445C208.466 152.925 208.221 152.23 208.221 151.36V146.8H209.736V151.3C209.736 152.45 210.311 153.025 211.461 153.025C212.471 153.025 213.261 152.57 213.831 151.66V146.8H215.346V154H213.876V152.98C213.536 153.41 213.131 153.725 212.661 153.925C212.201 154.125 211.701 154.225 211.161 154.225ZM219.651 154.225C218.781 154.225 218.081 154.005 217.551 153.565C217.031 153.115 216.771 152.51 216.771 151.75C216.771 150.95 217.021 150.335 217.521 149.905C218.031 149.465 218.751 149.245 219.681 149.245C220.671 149.245 221.511 149.445 222.201 149.845V149.47C222.201 148.9 222.026 148.48 221.676 148.21C221.336 147.93 220.796 147.79 220.056 147.79C219.616 147.79 219.186 147.835 218.766 147.925C218.356 148.005 217.986 148.12 217.656 148.27V147.04C217.956 146.9 218.346 146.79 218.826 146.71C219.306 146.62 219.771 146.575 220.221 146.575C221.411 146.575 222.291 146.84 222.861 147.37C223.441 147.89 223.731 148.615 223.731 149.545V154H222.306V153.19C221.996 153.53 221.626 153.79 221.196 153.97C220.776 154.14 220.261 154.225 219.651 154.225ZM220.026 153.07C220.506 153.07 220.941 152.975 221.331 152.785C221.721 152.595 222.011 152.33 222.201 151.99V151.015C221.551 150.595 220.826 150.385 220.026 150.385C219.446 150.385 219.011 150.5 218.721 150.73C218.441 150.95 218.301 151.29 218.301 151.75C218.301 152.63 218.876 153.07 220.026 153.07ZM225.611 142.915H227.126V154H225.611V142.915ZM229.967 145.39C229.717 145.39 229.507 145.305 229.337 145.135C229.167 144.965 229.082 144.755 229.082 144.505C229.082 144.255 229.167 144.045 229.337 143.875C229.507 143.705 229.717 143.62 229.967 143.62C230.227 143.62 230.442 143.705 230.612 143.875C230.792 144.045 230.882 144.255 230.882 144.505C230.882 144.755 230.792 144.965 230.612 145.135C230.442 145.305 230.227 145.39 229.967 145.39ZM229.202 146.8H230.747V154H229.202V146.8ZM236.312 154.225C235.592 154.225 234.942 154.07 234.362 153.76C233.792 153.44 233.342 152.995 233.012 152.425C232.692 151.845 232.532 151.175 232.532 150.415C232.532 149.665 232.692 149 233.012 148.42C233.342 147.84 233.792 147.39 234.362 147.07C234.942 146.74 235.592 146.575 236.312 146.575C237.612 146.575 238.597 146.97 239.267 147.76V142.915H240.782V154H239.312V152.95C238.912 153.39 238.472 153.715 237.992 153.925C237.522 154.125 236.962 154.225 236.312 154.225ZM236.657 153.025C237.277 153.025 237.817 152.865 238.277 152.545C238.747 152.215 239.077 151.775 239.267 151.225V149.605C239.097 149.055 238.772 148.615 238.292 148.285C237.822 147.955 237.277 147.79 236.657 147.79C236.167 147.79 235.722 147.9 235.322 148.12C234.932 148.34 234.622 148.65 234.392 149.05C234.172 149.45 234.062 149.905 234.062 150.415C234.062 150.925 234.172 151.38 234.392 151.78C234.622 152.18 234.932 152.49 235.322 152.71C235.722 152.92 236.167 153.025 236.657 153.025ZM245.095 154.225C244.225 154.225 243.525 154.005 242.995 153.565C242.475 153.115 242.215 152.51 242.215 151.75C242.215 150.95 242.465 150.335 242.965 149.905C243.475 149.465 244.195 149.245 245.125 149.245C246.115 149.245 246.955 149.445 247.645 149.845V149.47C247.645 148.9 247.47 148.48 247.12 148.21C246.78 147.93 246.24 147.79 245.5 147.79C245.06 147.79 244.63 147.835 244.21 147.925C243.8 148.005 243.43 148.12 243.1 148.27V147.04C243.4 146.9 243.79 146.79 244.27 146.71C244.75 146.62 245.215 146.575 245.665 146.575C246.855 146.575 247.735 146.84 248.305 147.37C248.885 147.89 249.175 148.615 249.175 149.545V154H247.75V153.19C247.44 153.53 247.07 153.79 246.64 153.97C246.22 154.14 245.705 154.225 245.095 154.225ZM245.47 153.07C245.95 153.07 246.385 152.975 246.775 152.785C247.165 152.595 247.455 152.33 247.645 151.99V151.015C246.995 150.595 246.27 150.385 245.47 150.385C244.89 150.385 244.455 150.5 244.165 150.73C243.885 150.95 243.745 151.29 243.745 151.75C243.745 152.63 244.32 153.07 245.47 153.07ZM254.535 154.225C253.815 154.225 253.165 154.07 252.585 153.76C252.015 153.44 251.565 152.995 251.235 152.425C250.915 151.845 250.755 151.175 250.755 150.415C250.755 149.665 250.915 149 251.235 148.42C251.565 147.84 252.015 147.39 252.585 147.07C253.165 146.74 253.815 146.575 254.535 146.575C255.835 146.575 256.82 146.97 257.49 147.76V142.915H259.005V154H257.535V152.95C257.135 153.39 256.695 153.715 256.215 153.925C255.745 154.125 255.185 154.225 254.535 154.225ZM254.88 153.025C255.5 153.025 256.04 152.865 256.5 152.545C256.97 152.215 257.3 151.775 257.49 151.225V149.605C257.32 149.055 256.995 148.615 256.515 148.285C256.045 147.955 255.5 147.79 254.88 147.79C254.39 147.79 253.945 147.9 253.545 148.12C253.155 148.34 252.845 148.65 252.615 149.05C252.395 149.45 252.285 149.905 252.285 150.415C252.285 150.925 252.395 151.38 252.615 151.78C252.845 152.18 253.155 152.49 253.545 152.71C253.945 152.92 254.39 153.025 254.88 153.025ZM264.917 154.225C263.587 154.225 262.542 153.895 261.782 153.235C261.032 152.565 260.657 151.625 260.657 150.415C260.657 149.235 260.992 148.3 261.662 147.61C262.342 146.92 263.307 146.575 264.557 146.575C265.387 146.575 266.092 146.735 266.672 147.055C267.252 147.365 267.687 147.8 267.977 148.36C268.277 148.91 268.427 149.54 268.427 150.25V151H262.097C262.147 151.68 262.432 152.19 262.952 152.53C263.482 152.86 264.197 153.025 265.097 153.025C265.557 153.025 266.022 152.985 266.492 152.905C266.962 152.815 267.377 152.7 267.737 152.56V153.775C267.417 153.905 266.992 154.01 266.462 154.09C265.942 154.18 265.427 154.225 264.917 154.225ZM267.002 149.935C266.982 149.255 266.757 148.73 266.327 148.36C265.907 147.98 265.307 147.79 264.527 147.79C263.767 147.79 263.177 147.985 262.757 148.375C262.337 148.765 262.117 149.285 262.097 149.935H267.002ZM270.488 154C270.288 154 270.118 153.935 269.978 153.805C269.848 153.665 269.783 153.495 269.783 153.295C269.783 153.095 269.848 152.925 269.978 152.785C270.118 152.645 270.288 152.575 270.488 152.575C270.688 152.575 270.858 152.645 270.998 152.785C271.138 152.925 271.208 153.095 271.208 153.295C271.208 153.495 271.138 153.665 270.998 153.805C270.858 153.935 270.688 154 270.488 154Z" fill="#524F59"/>
<defs>
<clipPath id="clip0_13_97">
<rect width="42" height="43" fill="white" transform="translate(137 4.5)"/>
</clipPath>
</defs>
</svg>
