<svg width="216" height="42" viewBox="0 0 216 42" fill="none" xmlns="http://www.w3.org/2000/svg">
<mask id="path-1-inside-1_139_44" fill="white">
<path d="M0 0H216V42H0V0Z"/>
</mask>
<path d="M0 0H216V42H0V0Z" fill="white"/>
<path d="M216 41H0V43H216V41Z" fill="#D3D3D3" mask="url(#path-1-inside-1_139_44)"/>
<g clip-path="url(#clip0_139_44)">
<path opacity="0.951" fill-rule="evenodd" clip-rule="evenodd" d="M22.6699 7.97461C22.8731 7.97461 23.0762 7.97461 23.2793 7.97461C23.6258 8.11001 23.8374 8.36392 23.9141 8.73633C23.9479 9.61653 23.9479 10.4967 23.9141 11.377C23.7981 11.8737 23.485 12.1445 22.9746 12.1895C22.4643 12.1445 22.1511 11.8737 22.0352 11.377C22.0013 10.4967 22.0013 9.61653 22.0352 8.73633C22.1118 8.36392 22.3235 8.11001 22.6699 7.97461Z" fill="#6907F2"/>
<path opacity="0.964" fill-rule="evenodd" clip-rule="evenodd" d="M13.834 11.2246C14.1337 11.1973 14.4215 11.2396 14.6973 11.3515C15.332 11.9863 15.9668 12.6211 16.6016 13.2558C16.8407 13.7774 16.7476 14.226 16.3223 14.6015C15.9401 14.7837 15.5678 14.7668 15.2051 14.5508C14.5872 13.9329 13.9694 13.3151 13.3516 12.6972C13.0531 12.0441 13.2139 11.5532 13.834 11.2246Z" fill="#6907F2"/>
<path opacity="0.963" fill-rule="evenodd" clip-rule="evenodd" d="M31.5059 11.2245C32.4106 11.139 32.8084 11.5453 32.6992 12.4433C32.6753 12.532 32.6414 12.6166 32.5977 12.6972C31.9798 13.315 31.362 13.9328 30.7441 14.5507C30.0705 14.9073 29.5712 14.7465 29.2461 14.0683C29.1948 13.7857 29.2287 13.5149 29.3477 13.2558C29.9824 12.621 30.6172 11.9862 31.252 11.3515C31.3441 11.313 31.4287 11.2707 31.5059 11.2245Z" fill="#6907F2"/>
<path opacity="0.991" fill-rule="evenodd" clip-rule="evenodd" d="M22.2637 14.9317C25.2677 14.7867 27.3921 16.0732 28.6367 18.791C29.3749 20.9802 29.0533 22.9945 27.6719 24.834C26.2843 26.0185 25.6496 27.5251 25.7676 29.3535C23.9056 29.3535 22.0436 29.3535 20.1816 29.3535C20.2828 27.5314 19.648 26.0249 18.2773 24.834C16.8878 22.996 16.5662 20.9817 17.3125 18.791C18.2608 16.598 19.9112 15.3116 22.2637 14.9317Z" fill="#6907F2"/>
<path opacity="0.951" fill-rule="evenodd" clip-rule="evenodd" d="M9.97461 21.2793C9.97461 21.0762 9.97461 20.8731 9.97461 20.6699C10.11 20.3235 10.3639 20.1118 10.7363 20.0352C11.6165 20.0013 12.4967 20.0013 13.377 20.0352C13.8737 20.1511 14.1445 20.4643 14.1895 20.9746C14.1445 21.485 13.8737 21.7981 13.377 21.9141C12.4967 21.9479 11.6165 21.9479 10.7363 21.9141C10.3639 21.8374 10.11 21.6258 9.97461 21.2793Z" fill="#6907F2"/>
<path opacity="0.951" fill-rule="evenodd" clip-rule="evenodd" d="M35.9746 20.6699C35.9746 20.8731 35.9746 21.0762 35.9746 21.2793C35.8392 21.6258 35.5853 21.8374 35.2129 21.9141C34.3327 21.9479 33.4525 21.9479 32.5723 21.9141C32.0756 21.7981 31.8047 21.485 31.7598 20.9746C31.8047 20.4643 32.0756 20.1511 32.5723 20.0352C33.4525 20.0013 34.3327 20.0013 35.2129 20.0352C35.5853 20.1118 35.8392 20.3235 35.9746 20.6699Z" fill="#6907F2"/>
<path opacity="0.963" fill-rule="evenodd" clip-rule="evenodd" d="M15.5098 27.2206C16.2376 27.1283 16.6439 27.4415 16.7285 28.16C16.7374 28.3503 16.6951 28.528 16.6016 28.6932C15.9668 29.328 15.332 29.9628 14.6973 30.5975C14.0567 30.8805 13.5743 30.7198 13.25 30.1151C13.1973 29.8158 13.2312 29.528 13.3516 29.2518C13.9863 28.6171 14.6211 27.9823 15.2559 27.3475C15.348 27.3091 15.4326 27.2668 15.5098 27.2206Z" fill="#6907F2"/>
<path opacity="0.963" fill-rule="evenodd" clip-rule="evenodd" d="M29.8808 27.2208C30.1638 27.1949 30.4346 27.2372 30.6933 27.3477C31.3281 27.9825 31.9629 28.6172 32.5976 29.252C32.8698 29.8379 32.7429 30.3033 32.2168 30.6485C31.8879 30.7602 31.5663 30.7432 31.2519 30.5977C30.6172 29.9629 29.9824 29.3282 29.3476 28.6934C29.0602 28.0231 29.238 27.5322 29.8808 27.2208Z" fill="#6907F2"/>
<path opacity="0.956" fill-rule="evenodd" clip-rule="evenodd" d="M20.6387 30.2168C22.196 30.2168 23.7532 30.2168 25.3106 30.2168C25.319 30.7587 25.3106 31.3004 25.2852 31.8418C25.2453 31.9325 25.1861 32.0087 25.1074 32.0703C24.3998 32.1283 23.6889 32.1536 22.9746 32.1465C22.2603 32.1536 21.5494 32.1283 20.8418 32.0703C20.7631 32.0087 20.7039 31.9325 20.6641 31.8418C20.6387 31.3004 20.6302 30.7587 20.6387 30.2168Z" fill="#6907F2"/>
<path opacity="0.902" fill-rule="evenodd" clip-rule="evenodd" d="M23.3301 33.9746C23.0931 33.9746 22.8561 33.9746 22.6191 33.9746C22.1125 33.8404 21.7909 33.5188 21.6543 33.0098C22.5345 33.0098 23.4147 33.0098 24.2949 33.0098C24.1583 33.5188 23.8367 33.8404 23.3301 33.9746Z" fill="#6907F2"/>
</g>
<path d="M48.2898 16.5455V26H47.1449V16.5455H48.2898ZM53.1151 26.1477C52.5242 26.1477 52.0026 25.9985 51.5502 25.6999C51.0977 25.3983 50.7438 24.9736 50.4884 24.4258C50.2329 23.8749 50.1052 23.224 50.1052 22.473C50.1052 21.7282 50.2329 21.0819 50.4884 20.5341C50.7438 19.9863 51.0993 19.5631 51.5548 19.2646C52.0103 18.966 52.5365 18.8168 53.1336 18.8168C53.5953 18.8168 53.96 18.8937 54.2277 19.0476C54.4985 19.1984 54.7048 19.3707 54.8463 19.5646C54.991 19.7554 55.1033 19.9124 55.1833 20.0355H55.2757V16.5455H56.3651V26H55.3126V24.9105H55.1833C55.1033 25.0398 54.9894 25.2029 54.8417 25.3999C54.694 25.5937 54.4832 25.7676 54.2093 25.9215C53.9353 26.0723 53.5706 26.1477 53.1151 26.1477ZM53.2629 25.169C53.6999 25.169 54.0692 25.0552 54.3708 24.8274C54.6724 24.5966 54.9017 24.2781 55.0587 23.8718C55.2156 23.4625 55.2941 22.9901 55.2941 22.4545C55.2941 21.9252 55.2172 21.462 55.0633 21.065C54.9094 20.6649 54.6817 20.354 54.3801 20.1325C54.0785 19.9078 53.7061 19.7955 53.2629 19.7955C52.8012 19.7955 52.4165 19.9139 52.1088 20.1509C51.8041 20.3848 51.5748 20.7034 51.4209 21.1065C51.2701 21.5066 51.1947 21.956 51.1947 22.4545C51.1947 22.9593 51.2716 23.4179 51.4255 23.8303C51.5825 24.2396 51.8133 24.5658 52.118 24.8089C52.4258 25.049 52.8074 25.169 53.2629 25.169ZM61.4848 26.1477C60.8016 26.1477 60.2122 25.9969 59.7167 25.6953C59.2243 25.3906 58.8442 24.9659 58.5764 24.4212C58.3118 23.8733 58.1794 23.2363 58.1794 22.5099C58.1794 21.7836 58.3118 21.1435 58.5764 20.5895C58.8442 20.0324 59.2166 19.5985 59.6936 19.2876C60.1737 18.9737 60.7339 18.8168 61.374 18.8168C61.7433 18.8168 62.108 18.8783 62.4681 19.0014C62.8282 19.1245 63.156 19.3246 63.4514 19.6016C63.7469 19.8755 63.9823 20.2386 64.1578 20.6911C64.3332 21.1435 64.4209 21.7005 64.4209 22.3622V22.8239H58.955V21.8821H63.3129C63.3129 21.482 63.2329 21.125 63.0729 20.8111C62.9159 20.4972 62.6913 20.2494 62.3989 20.0678C62.1096 19.8862 61.768 19.7955 61.374 19.7955C60.9401 19.7955 60.5646 19.9032 60.2476 20.1186C59.9337 20.331 59.6921 20.608 59.5228 20.9496C59.3535 21.2912 59.2689 21.6574 59.2689 22.0483V22.6761C59.2689 23.2116 59.3612 23.6656 59.5459 24.038C59.7336 24.4073 59.9937 24.6889 60.3261 24.8828C60.6585 25.0736 61.0447 25.169 61.4848 25.169C61.771 25.169 62.0296 25.129 62.2604 25.049C62.4943 24.9659 62.6959 24.8428 62.8651 24.6797C63.0344 24.5135 63.1652 24.3073 63.2575 24.0611L64.3101 24.3565C64.1993 24.7135 64.0131 25.0275 63.7515 25.2983C63.4899 25.5661 63.1668 25.7753 62.782 25.9261C62.3973 26.0739 61.9649 26.1477 61.4848 26.1477ZM67.1677 21.7344V26H66.0782V18.9091H67.1308V20.017H67.2231C67.3893 19.657 67.6417 19.3677 67.9802 19.1491C68.3187 18.9276 68.7558 18.8168 69.2913 18.8168C69.7714 18.8168 70.1915 18.9152 70.5516 19.1122C70.9117 19.3061 71.1917 19.6016 71.3918 19.9986C71.5918 20.3925 71.6919 20.8911 71.6919 21.4943V26H70.6024V21.5682C70.6024 21.0111 70.4577 20.5772 70.1684 20.2663C69.8791 19.9524 69.4821 19.7955 68.9774 19.7955C68.6296 19.7955 68.3187 19.8709 68.0448 20.0217C67.774 20.1725 67.5601 20.3925 67.4031 20.6818C67.2462 20.9711 67.1677 21.322 67.1677 21.7344ZM76.7665 18.9091V19.8324H73.0918V18.9091H76.7665ZM74.1628 17.2102H75.2523V23.9688C75.2523 24.2765 75.2969 24.5073 75.3862 24.6612C75.4785 24.812 75.5955 24.9136 75.737 24.9659C75.8817 25.0152 76.034 25.0398 76.1941 25.0398C76.3141 25.0398 76.4126 25.0336 76.4895 25.0213C76.5665 25.0059 76.628 24.9936 76.6742 24.9844L76.8958 25.9631C76.8219 25.9908 76.7188 26.0185 76.5865 26.0462C76.4541 26.0769 76.2864 26.0923 76.0833 26.0923C75.7755 26.0923 75.4739 26.0262 75.1784 25.8938C74.8861 25.7615 74.6429 25.5599 74.449 25.2891C74.2582 25.0182 74.1628 24.6766 74.1628 24.2642V17.2102ZM78.4054 26V18.9091H79.4949V26H78.4054ZM78.9593 17.7273C78.747 17.7273 78.5639 17.6549 78.41 17.5103C78.2592 17.3656 78.1838 17.1918 78.1838 16.9886C78.1838 16.7855 78.2592 16.6116 78.41 16.467C78.5639 16.3223 78.747 16.25 78.9593 16.25C79.1717 16.25 79.3533 16.3223 79.5041 16.467C79.658 16.6116 79.7349 16.7855 79.7349 16.9886C79.7349 17.1918 79.658 17.3656 79.5041 17.5103C79.3533 17.6549 79.1717 17.7273 78.9593 17.7273ZM84.1679 26.1477C83.577 26.1477 83.0553 25.9985 82.6029 25.6999C82.1505 25.3983 81.7965 24.9736 81.5411 24.4258C81.2857 23.8749 81.1579 23.224 81.1579 22.473C81.1579 21.7282 81.2857 21.0819 81.5411 20.5341C81.7965 19.9863 82.152 19.5631 82.6075 19.2646C83.063 18.966 83.5893 18.8168 84.1863 18.8168C84.648 18.8168 85.0127 18.8937 85.2805 19.0476C85.5513 19.1984 85.7575 19.3707 85.8991 19.5646C86.0437 19.7554 86.156 19.9124 86.2361 20.0355H86.3284V16.5455H87.4179V26H86.3653V24.9105H86.2361C86.156 25.0398 86.0422 25.2029 85.8944 25.3999C85.7467 25.5937 85.5359 25.7676 85.262 25.9215C84.9881 26.0723 84.6234 26.1477 84.1679 26.1477ZM84.3156 25.169C84.7526 25.169 85.122 25.0552 85.4236 24.8274C85.7252 24.5966 85.9545 24.2781 86.1114 23.8718C86.2684 23.4625 86.3469 22.9901 86.3469 22.4545C86.3469 21.9252 86.2699 21.462 86.116 21.065C85.9622 20.6649 85.7344 20.354 85.4328 20.1325C85.1312 19.9078 84.7588 19.7955 84.3156 19.7955C83.854 19.7955 83.4693 19.9139 83.1615 20.1509C82.8568 20.3848 82.6275 20.7034 82.4736 21.1065C82.3228 21.5066 82.2474 21.956 82.2474 22.4545C82.2474 22.9593 82.3244 23.4179 82.4782 23.8303C82.6352 24.2396 82.866 24.5658 83.1707 24.8089C83.4785 25.049 83.8601 25.169 84.3156 25.169ZM91.6512 26.1662C91.2019 26.1662 90.7941 26.0816 90.4278 25.9123C90.0616 25.7399 89.7707 25.4922 89.5553 25.169C89.3399 24.8428 89.2322 24.4489 89.2322 23.9872C89.2322 23.581 89.3122 23.2517 89.4722 22.9993C89.6323 22.7438 89.8461 22.5438 90.1139 22.3991C90.3817 22.2545 90.6771 22.1468 91.0003 22.076C91.3265 22.0021 91.6543 21.9437 91.9836 21.9006C92.4144 21.8452 92.7638 21.8036 93.0315 21.7759C93.3023 21.7451 93.4993 21.6944 93.6224 21.6236C93.7486 21.5528 93.8117 21.4297 93.8117 21.2543V21.2173C93.8117 20.7618 93.6871 20.4079 93.4378 20.1555C93.1916 19.9032 92.8176 19.777 92.316 19.777C91.7958 19.777 91.3881 19.8909 91.0926 20.1186C90.7971 20.3464 90.5894 20.5895 90.4694 20.848L89.4353 20.4787C89.6199 20.0478 89.8662 19.7124 90.1739 19.4723C90.4848 19.2292 90.8233 19.0599 91.1895 18.9645C91.5589 18.866 91.922 18.8168 92.279 18.8168C92.5068 18.8168 92.7684 18.8445 93.0638 18.8999C93.3624 18.9522 93.6501 19.0614 93.9271 19.2276C94.2072 19.3938 94.4395 19.6446 94.6242 19.9801C94.8089 20.3156 94.9012 20.7649 94.9012 21.3281V26H93.8117V25.0398H93.7563C93.6824 25.1937 93.5593 25.3583 93.387 25.5337C93.2146 25.7092 92.9854 25.8584 92.6991 25.9815C92.4129 26.1046 92.0636 26.1662 91.6512 26.1662ZM91.8174 25.1875C92.2483 25.1875 92.6114 25.1029 92.9069 24.9336C93.2054 24.7643 93.4301 24.5458 93.5809 24.2781C93.7348 24.0103 93.8117 23.7287 93.8117 23.4332V22.4361C93.7655 22.4915 93.664 22.5423 93.507 22.5884C93.3531 22.6315 93.1746 22.67 92.9715 22.7038C92.7715 22.7346 92.576 22.7623 92.3852 22.7869C92.1975 22.8085 92.0451 22.8269 91.9282 22.8423C91.645 22.8793 91.3804 22.9393 91.1341 23.0224C90.891 23.1024 90.694 23.224 90.5432 23.3871C90.3955 23.5471 90.3216 23.7656 90.3216 24.0426C90.3216 24.4212 90.4617 24.7074 90.7417 24.9013C91.0249 25.0921 91.3834 25.1875 91.8174 25.1875ZM99.5673 26.1477C98.9764 26.1477 98.4547 25.9985 98.0023 25.6999C97.5499 25.3983 97.196 24.9736 96.9405 24.4258C96.6851 23.8749 96.5574 23.224 96.5574 22.473C96.5574 21.7282 96.6851 21.0819 96.9405 20.5341C97.196 19.9863 97.5514 19.5631 98.0069 19.2646C98.4624 18.966 98.9887 18.8168 99.5858 18.8168C100.047 18.8168 100.412 18.8937 100.68 19.0476C100.951 19.1984 101.157 19.3707 101.298 19.5646C101.443 19.7554 101.555 19.9124 101.635 20.0355H101.728V16.5455H102.817V26H101.765V24.9105H101.635C101.555 25.0398 101.442 25.2029 101.294 25.3999C101.146 25.5937 100.935 25.7676 100.661 25.9215C100.387 26.0723 100.023 26.1477 99.5673 26.1477ZM99.715 25.169C100.152 25.169 100.521 25.0552 100.823 24.8274C101.125 24.5966 101.354 24.2781 101.511 23.8718C101.668 23.4625 101.746 22.9901 101.746 22.4545C101.746 21.9252 101.669 21.462 101.515 21.065C101.362 20.6649 101.134 20.354 100.832 20.1325C100.531 19.9078 100.158 19.7955 99.715 19.7955C99.2534 19.7955 98.8687 19.9139 98.5609 20.1509C98.2562 20.3848 98.0269 20.7034 97.873 21.1065C97.7222 21.5066 97.6468 21.956 97.6468 22.4545C97.6468 22.9593 97.7238 23.4179 97.8777 23.8303C98.0346 24.2396 98.2654 24.5658 98.5701 24.8089C98.8779 25.049 99.2595 25.169 99.715 25.169ZM107.937 26.1477C107.254 26.1477 106.664 25.9969 106.169 25.6953C105.676 25.3906 105.296 24.9659 105.029 24.4212C104.764 23.8733 104.632 23.2363 104.632 22.5099C104.632 21.7836 104.764 21.1435 105.029 20.5895C105.296 20.0324 105.669 19.5985 106.146 19.2876C106.626 18.9737 107.186 18.8168 107.826 18.8168C108.195 18.8168 108.56 18.8783 108.92 19.0014C109.28 19.1245 109.608 19.3246 109.904 19.6016C110.199 19.8755 110.434 20.2386 110.61 20.6911C110.785 21.1435 110.873 21.7005 110.873 22.3622V22.8239H105.407V21.8821H109.765C109.765 21.482 109.685 21.125 109.525 20.8111C109.368 20.4972 109.143 20.2494 108.851 20.0678C108.562 19.8862 108.22 19.7955 107.826 19.7955C107.392 19.7955 107.017 19.9032 106.7 20.1186C106.386 20.331 106.144 20.608 105.975 20.9496C105.806 21.2912 105.721 21.6574 105.721 22.0483V22.6761C105.721 23.2116 105.813 23.6656 105.998 24.038C106.186 24.4073 106.446 24.6889 106.778 24.8828C107.111 25.0736 107.497 25.169 107.937 25.169C108.223 25.169 108.482 25.129 108.713 25.049C108.946 24.9659 109.148 24.8428 109.317 24.6797C109.487 24.5135 109.617 24.3073 109.71 24.0611L110.762 24.3565C110.651 24.7135 110.465 25.0275 110.204 25.2983C109.942 25.5661 109.619 25.7753 109.234 25.9261C108.849 26.0739 108.417 26.1477 107.937 26.1477ZM116.722 16.5455L119.529 24.5043H119.64L122.447 16.5455H123.647L120.175 26H118.993L115.522 16.5455H116.722ZM124.972 26V18.9091H126.061V26H124.972ZM125.526 17.7273C125.313 17.7273 125.13 17.6549 124.976 17.5103C124.826 17.3656 124.75 17.1918 124.75 16.9886C124.75 16.7855 124.826 16.6116 124.976 16.467C125.13 16.3223 125.313 16.25 125.526 16.25C125.738 16.25 125.92 16.3223 126.07 16.467C126.224 16.6116 126.301 16.7855 126.301 16.9886C126.301 17.1918 126.224 17.3656 126.07 17.5103C125.92 17.6549 125.738 17.7273 125.526 17.7273ZM133.079 20.4972L132.101 20.7741C132.039 20.611 131.948 20.4525 131.828 20.2987C131.711 20.1417 131.551 20.0124 131.348 19.9109C131.145 19.8093 130.885 19.7585 130.568 19.7585C130.134 19.7585 129.773 19.8585 129.483 20.0586C129.197 20.2556 129.054 20.5064 129.054 20.8111C129.054 21.0819 129.152 21.2958 129.349 21.4528C129.546 21.6097 129.854 21.7405 130.273 21.8452L131.325 22.1037C131.959 22.2576 132.432 22.493 132.742 22.81C133.053 23.1239 133.209 23.5286 133.209 24.0241C133.209 24.4304 133.092 24.7936 132.858 25.1136C132.627 25.4337 132.304 25.6861 131.888 25.8707C131.473 26.0554 130.99 26.1477 130.439 26.1477C129.716 26.1477 129.117 25.9908 128.643 25.6768C128.169 25.3629 127.869 24.9044 127.743 24.3011L128.777 24.0426C128.875 24.4242 129.062 24.7105 129.335 24.9013C129.612 25.0921 129.974 25.1875 130.42 25.1875C130.928 25.1875 131.331 25.0798 131.63 24.8643C131.931 24.6458 132.082 24.3842 132.082 24.0795C132.082 23.8333 131.996 23.6271 131.824 23.4609C131.651 23.2917 131.387 23.1655 131.03 23.0824L129.848 22.8054C129.199 22.6515 128.722 22.413 128.417 22.0898C128.115 21.7636 127.964 21.3558 127.964 20.8665C127.964 20.4664 128.077 20.1125 128.301 19.8047C128.529 19.4969 128.838 19.2553 129.229 19.0799C129.623 18.9045 130.07 18.8168 130.568 18.8168C131.27 18.8168 131.821 18.9706 132.221 19.2784C132.624 19.5862 132.91 19.9924 133.079 20.4972ZM139.317 23.1009V18.9091H140.407V26H139.317V24.7997H139.244C139.077 25.1598 138.819 25.466 138.468 25.7184C138.117 25.9677 137.674 26.0923 137.138 26.0923C136.695 26.0923 136.301 25.9954 135.957 25.8015C135.612 25.6045 135.341 25.3091 135.144 24.9151C134.947 24.5181 134.849 24.018 134.849 23.4148V18.9091H135.938V23.3409C135.938 23.858 136.083 24.2704 136.372 24.5781C136.665 24.8859 137.037 25.0398 137.489 25.0398C137.76 25.0398 138.036 24.9705 138.316 24.832C138.599 24.6935 138.836 24.4812 139.027 24.195C139.221 23.9087 139.317 23.544 139.317 23.1009ZM144.489 26.1662C144.04 26.1662 143.632 26.0816 143.266 25.9123C142.899 25.7399 142.609 25.4922 142.393 25.169C142.178 24.8428 142.07 24.4489 142.07 23.9872C142.07 23.581 142.15 23.2517 142.31 22.9993C142.47 22.7438 142.684 22.5438 142.952 22.3991C143.22 22.2545 143.515 22.1468 143.838 22.076C144.164 22.0021 144.492 21.9437 144.821 21.9006C145.252 21.8452 145.602 21.8036 145.869 21.7759C146.14 21.7451 146.337 21.6944 146.46 21.6236C146.586 21.5528 146.65 21.4297 146.65 21.2543V21.2173C146.65 20.7618 146.525 20.4079 146.276 20.1555C146.029 19.9032 145.656 19.777 145.154 19.777C144.634 19.777 144.226 19.8909 143.93 20.1186C143.635 20.3464 143.427 20.5895 143.307 20.848L142.273 20.4787C142.458 20.0478 142.704 19.7124 143.012 19.4723C143.323 19.2292 143.661 19.0599 144.027 18.9645C144.397 18.866 144.76 18.8168 145.117 18.8168C145.345 18.8168 145.606 18.8445 145.902 18.8999C146.2 18.9522 146.488 19.0614 146.765 19.2276C147.045 19.3938 147.277 19.6446 147.462 19.9801C147.647 20.3156 147.739 20.7649 147.739 21.3281V26H146.65V25.0398H146.594C146.52 25.1937 146.397 25.3583 146.225 25.5337C146.053 25.7092 145.823 25.8584 145.537 25.9815C145.251 26.1046 144.901 26.1662 144.489 26.1662ZM144.655 25.1875C145.086 25.1875 145.449 25.1029 145.745 24.9336C146.043 24.7643 146.268 24.5458 146.419 24.2781C146.573 24.0103 146.65 23.7287 146.65 23.4332V22.4361C146.603 22.4915 146.502 22.5423 146.345 22.5884C146.191 22.6315 146.013 22.67 145.809 22.7038C145.609 22.7346 145.414 22.7623 145.223 22.7869C145.035 22.8085 144.883 22.8269 144.766 22.8423C144.483 22.8793 144.218 22.9393 143.972 23.0224C143.729 23.1024 143.532 23.224 143.381 23.3871C143.233 23.5471 143.16 23.7656 143.16 24.0426C143.16 24.4212 143.3 24.7074 143.58 24.9013C143.863 25.0921 144.221 25.1875 144.655 25.1875ZM150.817 16.5455V26H149.728V16.5455H150.817Z" fill="#1C1340"/>
<defs>
<clipPath id="clip0_139_44">
<rect width="26" height="26" fill="white" transform="translate(10 8)"/>
</clipPath>
</defs>
</svg>
