<svg width="95" height="95" viewBox="0 0 95 95" fill="none" xmlns="http://www.w3.org/2000/svg">
<g clip-path="url(#clip0_19_77)">
<path opacity="0.951" fill-rule="evenodd" clip-rule="evenodd" d="M46.2939 -0.0927734C47.0361 -0.0927734 47.7783 -0.0927734 48.5205 -0.0927734C49.7865 0.401959 50.5597 1.32969 50.8398 2.69043C50.9636 5.90657 50.9636 9.12273 50.8398 12.3389C50.4162 14.1538 49.272 15.1433 47.4072 15.3076C45.5425 15.1433 44.3982 14.1538 43.9746 12.3389C43.8509 9.12273 43.8509 5.90657 43.9746 2.69043C44.2548 1.32969 45.028 0.401959 46.2939 -0.0927734Z" fill="#6907F2"/>
<path opacity="0.964" fill-rule="evenodd" clip-rule="evenodd" d="M14.0088 11.7822C15.1038 11.6824 16.1553 11.837 17.1631 12.246C19.4824 14.5654 21.8018 16.8847 24.1211 19.2041C24.995 21.1098 24.6547 22.7487 23.1006 24.121C21.7043 24.7868 20.3437 24.725 19.0186 23.9355C16.7611 21.678 14.5036 19.4206 12.2461 17.163C11.1555 14.7765 11.743 12.9829 14.0088 11.7822Z" fill="#6907F2"/>
<path opacity="0.963" fill-rule="evenodd" clip-rule="evenodd" d="M78.5791 11.7822C81.885 11.4698 83.3384 12.9542 82.9395 16.2353C82.8521 16.5593 82.7283 16.8686 82.5684 17.163C80.3108 19.4206 78.0534 21.678 75.7959 23.9355C73.3346 25.2384 71.5101 24.6508 70.3223 22.1728C70.1349 21.1404 70.2586 20.1507 70.6934 19.2041C73.0127 16.8847 75.332 14.5654 77.6514 12.2461C77.9881 12.1056 78.2973 11.951 78.5791 11.7822Z" fill="#6907F2"/>
<path opacity="0.991" fill-rule="evenodd" clip-rule="evenodd" d="M44.8096 25.3272C55.786 24.7977 63.5479 29.4981 68.0957 39.4288C70.793 47.4275 69.6177 54.7876 64.5703 61.5088C59.5004 65.8369 57.1811 71.3415 57.6123 78.0225C50.8089 78.0225 44.0056 78.0225 37.2021 78.0225C37.5716 71.3645 35.2522 65.8601 30.2441 61.5088C25.167 54.7932 23.992 47.4333 26.7187 39.4288C30.1838 31.4157 36.2141 26.7153 44.8096 25.3272Z" fill="#6907F2"/>
<path opacity="0.951" fill-rule="evenodd" clip-rule="evenodd" d="M-0.0927734 48.5206C-0.0927734 47.7784 -0.0927734 47.0362 -0.0927734 46.294C0.401959 45.028 1.32969 44.2548 2.69043 43.9747C5.90657 43.8509 9.12273 43.8509 12.3389 43.9747C14.1538 44.3983 15.1433 45.5425 15.3076 47.4073C15.1433 49.272 14.1538 50.4163 12.3389 50.8399C9.12273 50.9637 5.90657 50.9637 2.69043 50.8399C1.32969 50.5597 0.401959 49.7865 -0.0927734 48.5206Z" fill="#6907F2"/>
<path opacity="0.951" fill-rule="evenodd" clip-rule="evenodd" d="M94.9072 46.294C94.9072 47.0362 94.9072 47.7784 94.9072 48.5206C94.4126 49.7865 93.4848 50.5597 92.124 50.8399C88.9079 50.9637 85.6917 50.9637 82.4756 50.8399C80.6608 50.4163 79.671 49.272 79.5068 47.4073C79.671 45.5425 80.6608 44.3983 82.4756 43.9747C85.6917 43.8509 88.9079 43.8509 92.124 43.9747C93.4848 44.2548 94.4126 45.028 94.9072 46.294Z" fill="#6907F2"/>
<path opacity="0.963" fill-rule="evenodd" clip-rule="evenodd" d="M20.1318 70.2295C22.7913 69.8923 24.2757 71.0366 24.585 73.6621C24.6174 74.3572 24.4629 75.0066 24.1211 75.6103C21.8018 77.9297 19.4824 80.249 17.1631 82.5683C14.8226 83.6024 13.0599 83.015 11.875 80.8057C11.6825 79.712 11.8062 78.6605 12.2461 77.6514C14.5654 75.332 16.8848 73.0127 19.2041 70.6933C19.5409 70.5529 19.85 70.3983 20.1318 70.2295Z" fill="#6907F2"/>
<path opacity="0.963" fill-rule="evenodd" clip-rule="evenodd" d="M72.6416 70.2295C73.6755 70.1348 74.665 70.2894 75.6103 70.6933C77.9297 73.0127 80.249 75.332 82.5684 77.6513C83.5629 79.792 83.099 81.4927 81.1768 82.7539C79.9752 83.1619 78.8001 83.0999 77.6514 82.5683C75.332 80.249 73.0127 77.9297 70.6934 75.6103C69.6432 73.1611 70.2926 71.3676 72.6416 70.2295Z" fill="#6907F2"/>
<path opacity="0.956" fill-rule="evenodd" clip-rule="evenodd" d="M38.8721 81.1768C44.5622 81.1768 50.2522 81.1768 55.9424 81.1768C55.9734 83.1569 55.9424 85.1361 55.8496 87.1143C55.7039 87.4456 55.4876 87.724 55.2002 87.9492C52.6148 88.1609 50.0171 88.2537 47.4072 88.2275C44.7973 88.2537 42.1997 88.1609 39.6143 87.9492C39.3268 87.724 39.1105 87.4456 38.9648 87.1143C38.8721 85.1361 38.8411 83.1569 38.8721 81.1768Z" fill="#6907F2"/>
<path opacity="0.902" fill-rule="evenodd" clip-rule="evenodd" d="M48.7061 94.9072C47.8401 94.9072 46.9743 94.9072 46.1084 94.9072C44.2574 94.4168 43.0821 93.2418 42.583 91.3818C45.7991 91.3818 49.0154 91.3818 52.2314 91.3818C51.7323 93.2418 50.5571 94.4168 48.7061 94.9072Z" fill="#6907F2"/>
</g>
<defs>
<clipPath id="clip0_19_77">
<rect width="95" height="95" fill="white"/>
</clipPath>
</defs>
</svg>
