<svg width="93" height="93" viewBox="0 0 93 93" fill="none" xmlns="http://www.w3.org/2000/svg">
<g clip-path="url(#clip0_343_105)">
<path opacity="0.99" fill-rule="evenodd" clip-rule="evenodd" d="M44.2295 4.99512C53.1706 6.82191 58.5895 12.2106 60.4863 21.1611C60.9517 26.7273 59.8014 31.9342 57.0352 36.7822C53.5629 42.6291 49.2337 47.7755 44.0478 52.2217C42.8434 51.2597 41.6929 50.2304 40.5967 49.1338C36.7997 45.2888 33.5301 41.0506 30.7881 36.4189C30.7881 36.2978 30.7276 36.2373 30.6064 36.2373C28.9014 32.9908 27.8419 29.5397 27.4277 25.8838C27.0112 16.6312 30.977 10.0618 39.3252 6.17578C40.914 5.57522 42.5488 5.18168 44.2295 4.99512ZM45.8643 16.9834C49.0896 16.9146 51.4206 18.3072 52.8574 21.1611C54.1761 25.1988 52.9955 28.2566 49.3154 30.334C45.2777 31.6527 42.22 30.472 40.1426 26.792C38.7338 21.554 40.641 18.2845 45.8643 16.9834Z" fill="#6907F2"/>
<path fill-rule="evenodd" clip-rule="evenodd" d="M62.3936 36.2373C60.3804 39.6445 58.0796 42.8536 55.4912 45.8643C52.9882 48.5787 50.3241 51.152 47.499 53.584C47.1526 53.7878 46.7894 53.9391 46.4092 54.0381C46.1509 54.0001 45.9088 53.9093 45.6826 53.7656C45.0547 53.332 44.5098 52.8175 44.0479 52.2217C49.2337 47.7755 53.5629 42.6291 57.0352 36.7822C59.8014 31.9342 60.9517 26.7273 60.4863 21.1611C58.5895 12.2106 53.1706 6.82192 44.2295 4.99512C52.6785 4.29989 59.0661 7.56942 63.3926 14.8037C65.9167 19.8935 66.3406 25.161 64.6641 30.6064C64.0659 32.5531 63.3092 34.43 62.3936 36.2373Z" fill="#1C1340"/>
<path opacity="0.984" fill-rule="evenodd" clip-rule="evenodd" d="M26.9736 34.6025C26.7014 38.7786 26.459 42.9564 26.2471 47.1357C19.1869 50.8777 12.1028 54.5712 4.99512 58.2158C5.6564 53.8844 6.47378 49.5855 7.44727 45.3193C13.3964 41.9359 19.3603 38.5756 25.3389 35.2383C25.8491 34.922 26.394 34.7101 26.9736 34.6025Z" fill="#6907F2"/>
<path opacity="0.995" fill-rule="evenodd" clip-rule="evenodd" d="M26.9736 34.6025C28.2311 35.0497 29.4421 35.5947 30.6064 36.2373C30.7276 36.2373 30.7881 36.2978 30.7881 36.4189C33.5301 41.0506 36.7997 45.2888 40.5967 49.1338C35.8678 48.5794 31.1452 47.9738 26.4287 47.3174C26.4287 47.1962 26.3682 47.1357 26.2471 47.1357C26.459 42.9564 26.7014 38.7786 26.9736 34.6025Z" fill="#1C1340"/>
<path opacity="0.99" fill-rule="evenodd" clip-rule="evenodd" d="M65.8447 34.6025C65.9844 36.8416 66.1054 39.082 66.208 41.3232C62.6468 43.0174 59.0744 44.531 55.4912 45.8643C58.0796 42.8536 60.3804 39.6445 62.3936 36.2373C63.4716 35.5471 64.6219 35.0021 65.8447 34.6025Z" fill="#6907F2"/>
<path opacity="0.962" fill-rule="evenodd" clip-rule="evenodd" d="M65.8447 34.6025C68.9597 36.0845 71.9871 37.7193 74.9268 39.5068C72.0517 39.9682 69.206 40.5736 66.3896 41.3232C66.3292 41.3232 66.2685 41.3232 66.208 41.3232C66.1054 39.082 65.9844 36.8416 65.8447 34.6025Z" fill="#1C1340"/>
<path fill-rule="evenodd" clip-rule="evenodd" d="M74.9268 39.5068C77.803 41.0355 80.6488 42.6098 83.4639 44.2295C77.9687 45.4861 72.459 46.6969 66.9346 47.8623C66.6623 45.7169 66.4807 43.5373 66.3896 41.3232C69.206 40.5736 72.0517 39.9682 74.9268 39.5068Z" fill="white"/>
<path fill-rule="evenodd" clip-rule="evenodd" d="M66.208 41.3232C66.2685 41.3232 66.3292 41.3232 66.3896 41.3232C66.4807 43.5373 66.6623 45.7169 66.9346 47.8623C66.9346 48.0439 66.9346 48.2256 66.9346 48.4072C67.1533 51.4323 67.3349 54.4597 67.4795 57.4893C64.7536 55.4291 62.029 53.3704 59.3057 51.3135C55.0636 53.1321 50.8252 54.9485 46.5908 56.7627C46.5303 56.7627 46.4697 56.7627 46.4092 56.7627C46.4092 55.8545 46.4092 54.9463 46.4092 54.0381C46.7894 53.9391 47.1526 53.7878 47.499 53.584C50.3241 51.152 52.9882 48.5787 55.4912 45.8643C59.0744 44.531 62.6468 43.0174 66.208 41.3232Z" fill="white"/>
<path fill-rule="evenodd" clip-rule="evenodd" d="M83.4639 44.2295C84.0936 44.5141 84.699 44.8473 85.2803 45.2285C85.5278 45.5818 85.6793 45.9754 85.7344 46.4092C87.5795 56.3308 89.3656 66.2603 91.0928 76.1982C83.1079 66.8808 75.0552 57.6171 66.9346 48.4072C66.9346 48.2256 66.9346 48.0439 66.9346 47.8623C72.459 46.6969 77.9687 45.4861 83.4639 44.2295Z" fill="#1C1340"/>
<path fill-rule="evenodd" clip-rule="evenodd" d="M26.2471 47.1357C26.3682 47.1357 26.4287 47.1962 26.4287 47.3174C26.2976 47.3933 26.2067 47.5143 26.1562 47.6807C25.9668 50.0467 25.7548 52.408 25.5205 54.7646C18.2231 58.6859 10.8969 62.5608 3.54199 66.3896C3.9292 63.6423 4.41356 60.9177 4.99512 58.2158C12.1028 54.5712 19.1869 50.8777 26.2471 47.1357Z" fill="white"/>
<path fill-rule="evenodd" clip-rule="evenodd" d="M26.4287 47.3174C31.1452 47.9738 35.8678 48.5794 40.5967 49.1338C41.6929 50.2304 42.8434 51.2597 44.0479 52.2217C44.5098 52.8175 45.0547 53.332 45.6826 53.7656C45.9088 53.9093 46.1509 54.0001 46.4092 54.0381C46.4092 54.9463 46.4092 55.8545 46.4092 56.7627C42.2879 56.3618 38.1707 55.9684 34.0576 55.582C38.1565 62.0573 42.2738 68.5056 46.4092 74.9268C46.4092 74.9872 46.4092 75.0479 46.4092 75.1084C46.4691 78.8333 46.4086 82.5266 46.2275 86.1885C39.4309 75.8039 32.5891 65.4504 25.7021 55.1279C25.6417 55.0068 25.581 54.8858 25.5205 54.7646C25.7548 52.408 25.9668 50.0467 26.1562 47.6807C26.2067 47.5143 26.2976 47.3933 26.4287 47.3174Z" fill="white"/>
<path fill-rule="evenodd" clip-rule="evenodd" d="M66.9346 48.4072C75.0552 57.6171 83.1079 66.8808 91.0928 76.1982C91.6809 79.3065 92.2865 82.3944 92.9092 85.4619C92.9092 86.0673 92.9092 86.6729 92.9092 87.2783C92.7275 87.3995 92.5459 87.5204 92.3643 87.6416C84.2535 77.7149 76.0796 67.8459 67.8428 58.0342C67.7216 57.8525 67.6006 57.6709 67.4795 57.4893C67.3349 54.4597 67.1533 51.4323 66.9346 48.4072Z" fill="white"/>
<path opacity="0.997" fill-rule="evenodd" clip-rule="evenodd" d="M67.4795 57.4893C67.6006 57.6709 67.7216 57.8525 67.8428 58.0342C67.7227 58.331 67.6622 58.6639 67.6611 59.0332C68.1806 65.3587 68.6651 71.6857 69.1143 78.0146C64.4742 80.1228 59.8123 82.1813 55.1279 84.1904C52.2829 81.1031 49.3766 78.0759 46.4092 75.1084C46.4092 75.0479 46.4092 74.9872 46.4092 74.9268C46.35 68.8589 46.4104 62.8041 46.5908 56.7627C50.8252 54.9485 55.0636 53.1321 59.3057 51.3135C62.029 53.3704 64.7536 55.4291 67.4795 57.4893Z" fill="#6907F2"/>
<path fill-rule="evenodd" clip-rule="evenodd" d="M25.5205 54.7646C25.581 54.8858 25.6417 55.0068 25.7021 55.1279C25.4446 56.0547 25.2933 57.0235 25.248 58.0342C24.8299 64.7047 24.3151 71.3648 23.7041 78.0146C16.5976 81.2947 9.45303 84.5339 2.27051 87.7324C1.34491 88.2041 0.557802 88.0528 -0.0908203 87.2783C-0.0908203 86.6729 -0.0908203 86.0673 -0.0908203 85.4619C1.10055 79.1009 2.31149 72.7434 3.54199 66.3896C10.8969 62.5608 18.2231 58.6859 25.5205 54.7646Z" fill="#6907F2"/>
<path fill-rule="evenodd" clip-rule="evenodd" d="M25.7021 55.1279C32.5891 65.4504 39.4309 75.8039 46.2275 86.1885C46.3936 86.7748 46.454 87.3802 46.4092 88.0049C38.8206 84.7254 31.2524 81.3953 23.7041 78.0146C24.3151 71.3648 24.8299 64.7047 25.248 58.0342C25.2933 57.0235 25.4446 56.0547 25.7021 55.1279Z" fill="#1C1340"/>
<path fill-rule="evenodd" clip-rule="evenodd" d="M46.4092 56.7627C46.4697 56.7627 46.5303 56.7627 46.5908 56.7627C46.4105 62.8041 46.35 68.8589 46.4092 74.9268C42.2738 68.5056 38.1565 62.0573 34.0576 55.582C38.1707 55.9684 42.2879 56.3618 46.4092 56.7627Z" fill="#6907F2"/>
<path opacity="0.988" fill-rule="evenodd" clip-rule="evenodd" d="M67.8428 58.0342C76.0796 67.8459 84.2535 77.7149 92.3643 87.6416C92.2168 87.9128 91.9746 88.0339 91.6377 88.0049C84.0317 84.8674 76.5239 81.5372 69.1143 78.0146C68.6651 71.6857 68.1806 65.3587 67.6611 59.0332C67.6622 58.6639 67.7227 58.331 67.8428 58.0342Z" fill="#1C1340"/>
<path fill-rule="evenodd" clip-rule="evenodd" d="M46.4092 75.1084C49.3766 78.0759 52.2829 81.1031 55.1279 84.1904C52.2747 85.5558 49.3685 86.8273 46.4092 88.0049C46.454 87.3802 46.3936 86.7748 46.2275 86.1885C46.4086 82.5266 46.4691 78.8333 46.4092 75.1084Z" fill="white"/>
</g>
<defs>
<clipPath id="clip0_343_105">
<rect width="93" height="93" fill="white"/>
</clipPath>
</defs>
</svg>
