<svg width="42" height="41" viewBox="0 0 42 41" fill="none" xmlns="http://www.w3.org/2000/svg">
<g clip-path="url(#clip0_19_87)">
<path opacity="0.963" fill-rule="evenodd" clip-rule="evenodd" d="M41.46 23.6631C41.46 24.5974 41.46 25.5315 41.46 26.4658C41.2405 27.9389 40.8 29.3537 40.1387 30.71C40.2596 32.6393 40.4598 34.5612 40.7393 36.4756C40.6058 36.5022 40.4724 36.529 40.3389 36.5557C38.5482 36.3846 36.7599 36.1978 34.9736 35.9951C31.6395 37.5818 28.2228 37.782 24.7236 36.5957C20.6807 34.9016 18.1316 31.9253 17.0762 27.667C17.0451 27.5927 16.9917 27.5393 16.916 27.5068C14.7021 28.2781 12.4466 28.4249 10.1494 27.9473C9.01126 27.6643 7.90352 27.304 6.82617 26.8662C5.00913 27.0373 3.19402 27.2241 1.38086 27.4268C1.31413 27.4001 1.2474 27.3733 1.18066 27.3467C1.45427 25.4048 1.65446 23.4562 1.78125 21.501C1.10374 20.1501 0.663309 18.7353 0.459961 17.2568C0.459961 16.3226 0.459961 15.3884 0.459961 14.4541C1.22015 9.72949 3.78265 6.37959 8.14746 4.40429C13.4248 2.59257 18.0293 3.64693 21.9609 7.56738C23.4199 9.28409 24.4342 11.2327 25.0039 13.4131C30.101 11.858 34.532 12.9524 38.2969 16.6963C40.0479 18.7035 41.1023 21.0258 41.46 23.6631ZM12.7119 5.96582C16.9792 6.19208 20.0355 8.22074 21.8809 12.0518C22.2215 12.8804 22.435 13.7345 22.5215 14.6143C18.897 17.07 16.9618 20.5 16.7158 24.9043C13.6334 26.1748 10.6437 25.9879 7.74707 24.3437C6.51845 24.4046 5.29059 24.498 4.06348 24.624C4.18362 23.4232 4.27705 22.222 4.34375 21.0205C2.71882 18.1081 2.50528 15.0918 3.70312 11.9717C5.53729 8.21841 8.54024 6.21642 12.7119 5.96582ZM28.2471 15.1748C32.9447 15.0601 36.2947 17.1154 38.2969 21.3408C39.409 24.3931 39.1688 27.3293 37.5762 30.1494C37.6202 31.3731 37.7403 32.5876 37.9365 33.793C36.7479 33.7084 35.5601 33.5883 34.373 33.4326C30.9215 35.4063 27.4648 35.4197 24.0029 33.4727C20.2097 30.8507 18.7283 27.2605 19.5586 22.7021C20.8852 18.3761 23.7814 15.867 28.2471 15.1748Z" fill="white"/>
<path opacity="0.96" fill-rule="evenodd" clip-rule="evenodd" d="M11.9111 8.36816C14.9505 8.16428 16.6588 9.56565 17.0361 12.5723C17.0035 13.8918 16.4963 14.9862 15.5147 15.8555C15.0392 16.1131 14.5988 16.4201 14.1934 16.7764C14.1155 16.9279 14.062 17.088 14.0332 17.2568C13.9933 17.7098 13.9799 18.1636 13.9932 18.6182C13.1657 18.6182 12.3382 18.6182 11.5108 18.6182C11.2113 16.4002 12.0522 14.7986 14.0332 13.8135C14.6862 13.032 14.7129 12.2312 14.1133 11.4111C13.1842 10.5488 12.2766 10.5754 11.3906 11.4912C11.0662 12.0018 10.9461 12.5623 11.0303 13.1728C10.2028 13.1728 9.37531 13.1728 8.54787 13.1728C8.44704 10.7024 9.56814 9.10088 11.9111 8.36816Z" fill="white"/>
<path opacity="0.963" fill-rule="evenodd" clip-rule="evenodd" d="M27.9268 18.6982C28.7542 18.6982 29.5817 18.6982 30.4092 18.6982C30.4092 21.3142 30.4092 23.93 30.4092 26.5459C29.5817 26.5459 28.7542 26.5459 27.9268 26.5459C27.9268 23.93 27.9268 21.3142 27.9268 18.6982Z" fill="white"/>
<path opacity="0.937" fill-rule="evenodd" clip-rule="evenodd" d="M11.5107 20.9404C12.3382 20.9404 13.1657 20.9404 13.9932 20.9404C13.9932 21.7679 13.9932 22.5954 13.9932 23.4229C13.1657 23.4229 12.3382 23.4229 11.5107 23.4229C11.5107 22.5954 11.5107 21.7679 11.5107 20.9404Z" fill="white"/>
<path opacity="0.968" fill-rule="evenodd" clip-rule="evenodd" d="M27.9268 28.9482C28.7542 28.9482 29.5817 28.9482 30.4092 28.9482C30.4092 29.749 30.4092 30.5498 30.4092 31.3506C29.5817 31.3506 28.7542 31.3506 27.9268 31.3506C27.9268 30.5498 27.9268 29.749 27.9268 28.9482Z" fill="white"/>
</g>
<defs>
<clipPath id="clip0_19_87">
<rect width="41" height="41" fill="white" transform="translate(0.5)"/>
</clipPath>
</defs>
</svg>
