<svg width="67" height="67" viewBox="0 0 67 67" fill="none" xmlns="http://www.w3.org/2000/svg">
<g clip-path="url(#clip0_343_41)">
<path opacity="0.992" fill-rule="evenodd" clip-rule="evenodd" d="M30.5557 -0.0654297C32.5186 -0.0654297 34.4814 -0.0654297 36.4443 -0.0654297C43.3247 0.66442 49.4533 3.19437 54.8301 7.52441C54.9174 7.61166 54.9174 7.69889 54.8301 7.78613C51.2082 10.7105 47.5878 13.6329 43.9688 16.5537C36.2785 12.2941 28.7977 12.6213 21.5264 17.5352C18.3272 20.0568 16.0155 23.2193 14.5908 27.0225C10.9319 24.0141 7.26788 21.0044 3.59863 17.9932C9.49899 7.40682 18.4847 1.38729 30.5557 -0.0654297Z" fill="#6907F2"/>
<path opacity="0.994" fill-rule="evenodd" clip-rule="evenodd" d="M3.59863 17.9932C7.26788 21.0044 10.9319 24.0141 14.5908 27.0225C13.1353 31.5061 13.2226 35.9553 14.8525 40.3701C11.2264 43.3859 7.56231 46.352 3.86035 49.2686C1.68017 45.2581 0.37157 40.9833 -0.0654297 36.4443C-0.0654297 34.4379 -0.0654297 32.4313 -0.0654297 30.4248C0.401982 26.0707 1.62334 21.9269 3.59863 17.9932Z" fill="#6907F2"/>
<path opacity="0.993" fill-rule="evenodd" clip-rule="evenodd" d="M66.9346 30.4248C66.9346 32.4313 66.9346 34.4379 66.9346 36.4443C65.891 45.8976 61.7035 53.6183 54.3721 59.6064C50.7758 56.5655 47.1553 53.5558 43.5107 50.5771C47.4429 48.1712 50.2346 44.8125 51.8857 40.501C45.9535 40.501 40.0211 40.501 34.0889 40.501C34.0889 36.0518 34.0889 31.6025 34.0889 27.1533C44.8629 27.1533 55.6371 27.1533 66.4111 27.1533C66.5878 28.2608 66.7622 29.3512 66.9346 30.4248Z" fill="#6907F2"/>
<path opacity="0.994" fill-rule="evenodd" clip-rule="evenodd" d="M14.8525 40.3701C17.0566 45.9984 20.9824 49.9023 26.6299 52.082C32.4836 54.0551 38.1106 53.5535 43.5107 50.5771C47.1553 53.5558 50.7758 56.5655 54.3721 59.6064C49.1373 63.8145 43.1615 66.2571 36.4443 66.9346C34.4814 66.9346 32.5186 66.9346 30.5557 66.9346C20.4073 65.8198 12.2721 61.196 6.15039 53.0635C5.30192 51.8456 4.53858 50.5806 3.86035 49.2686C7.56231 46.352 11.2264 43.3859 14.8525 40.3701Z" fill="#6907F2"/>
</g>
<defs>
<clipPath id="clip0_343_41">
<rect width="67" height="67" fill="white"/>
</clipPath>
</defs>
</svg>
