<svg width="40" height="41" viewBox="0 0 40 41" fill="none" xmlns="http://www.w3.org/2000/svg">
<g clip-path="url(#clip0_19_99)">
<path opacity="0.966" fill-rule="evenodd" clip-rule="evenodd" d="M19.6484 0.851562C20.0098 0.789092 20.3094 0.893259 20.5469 1.16406C20.8462 2.04903 21.1458 2.93444 21.4453 3.82031C22.4599 3.88537 23.4755 3.92443 24.4922 3.9375C24.9427 4.24517 24.9948 4.60976 24.6484 5.03125C23.8804 5.57855 23.1252 6.13844 22.3828 6.71094C22.778 7.67412 23.0515 8.66367 23.2031 9.67969C23.0046 10.0366 22.7051 10.1538 22.3047 10.0312C21.5127 9.51266 20.7315 8.97883 19.9609 8.42969C19.1688 8.97445 18.3876 9.5343 17.6172 10.1094C17.0791 10.2096 16.7666 9.98828 16.6797 9.44531C16.9348 8.54977 17.2212 7.66437 17.5391 6.78906C16.7668 6.20041 15.9986 5.60145 15.2344 4.99219C15.1205 4.76828 15.0945 4.53391 15.1562 4.28906C15.1953 4.14584 15.2865 4.05469 15.4297 4.01562C16.471 3.97657 17.5127 3.96355 18.5547 3.97656C18.7777 3.0858 19.0252 2.20037 19.2969 1.32031C19.3734 1.12753 19.4905 0.971284 19.6484 0.851562Z" fill="white"/>
<path opacity="0.967" fill-rule="evenodd" clip-rule="evenodd" d="M5.89843 0.929688C6.28489 0.86153 6.6104 0.965697 6.875 1.24219C7.17519 2.14277 7.47467 3.0412 7.77344 3.9375C8.78906 3.96354 9.80468 3.98959 10.8203 4.01563C11.2006 4.34157 11.2267 4.69313 10.8984 5.07031C10.1262 5.62516 9.37101 6.19808 8.63281 6.78906C8.99281 7.73524 9.26625 8.69875 9.45312 9.67969C9.27234 10.063 8.97289 10.2063 8.55469 10.1094C7.78847 9.56453 7.03326 9.00461 6.28906 8.42969C5.49404 8.97039 4.71279 9.53031 3.94531 10.1094C3.23652 10.2174 2.93704 9.91797 3.04687 9.21094C3.28958 8.37867 3.56301 7.55835 3.86718 6.75C3.09896 6.1901 2.33072 5.63021 1.5625 5.07031C1.44661 4.82013 1.42058 4.55971 1.48437 4.28906C1.52343 4.14584 1.61458 4.05469 1.75781 4.01563C2.7731 3.97657 3.78872 3.96355 4.80468 3.97656C5.03814 3.08075 5.31158 2.19534 5.625 1.32031C5.70291 1.17789 5.79405 1.04768 5.89843 0.929688Z" fill="white"/>
<path opacity="0.967" fill-rule="evenodd" clip-rule="evenodd" d="M33.3984 0.929688C33.7674 0.855712 34.0669 0.959879 34.2969 1.24219C34.626 2.13837 34.8995 3.04982 35.1172 3.97656C36.1591 3.96355 37.2009 3.97657 38.2422 4.01563C38.5745 4.28284 38.6396 4.60837 38.4375 4.99219C37.6432 5.57813 36.849 6.16406 36.0547 6.75C36.3588 7.55835 36.6323 8.37867 36.875 9.21094C37.0049 9.88805 36.7315 10.1875 36.0547 10.1094C35.2474 9.54945 34.4401 8.98961 33.6328 8.42969C32.8886 9.00461 32.1334 9.56453 31.3672 10.1094C30.7413 10.1865 30.4419 9.91305 30.4687 9.28906C30.7187 8.44797 30.9922 7.61467 31.2891 6.78906C30.4855 6.18134 29.6912 5.55634 28.9062 4.91406C28.7935 4.54594 28.8846 4.24646 29.1797 4.01563C30.1963 4.00256 31.212 3.96349 32.2266 3.89844C32.5234 3.07284 32.7969 2.23951 33.0469 1.39844C33.1097 1.19173 33.2269 1.03548 33.3984 0.929688Z" fill="white"/>
<path opacity="0.975" fill-rule="evenodd" clip-rule="evenodd" d="M5.66406 10.6172C7.86554 10.4995 9.28484 11.4891 9.92187 13.5859C10.2193 16.0204 9.19062 17.5438 6.83593 18.1563C4.52346 18.2905 3.1042 17.2359 2.57812 14.9922C2.41299 12.673 3.44164 11.2148 5.66406 10.6172Z" fill="white"/>
<path opacity="0.975" fill-rule="evenodd" clip-rule="evenodd" d="M19.3359 10.6172C21.7498 10.4923 23.1951 11.6121 23.6719 13.9766C23.7409 16.2217 22.6862 17.6149 20.5078 18.1562C18.1287 18.277 16.7095 17.1702 16.25 14.8359C16.1588 12.598 17.1875 11.1918 19.3359 10.6172Z" fill="white"/>
<path opacity="0.975" fill-rule="evenodd" clip-rule="evenodd" d="M33.0078 10.6172C35.3577 10.4822 36.803 11.5498 37.3437 13.8203C37.5156 16.1729 36.4609 17.6182 34.1797 18.1562C32.0123 18.2801 30.6191 17.3035 30 15.2266C29.7136 12.8272 30.7162 11.2907 33.0078 10.6172Z" fill="white"/>
<path opacity="0.988" fill-rule="evenodd" clip-rule="evenodd" d="M3.08594 19.2109C5.16943 19.1979 7.25277 19.2109 9.33594 19.25C10.958 19.6484 11.9085 20.677 12.1875 22.3359C12.2396 25.7213 12.2396 29.1068 12.1875 32.4922C12.0927 32.6132 11.9755 32.7043 11.8359 32.7656C11.2115 32.8047 10.5865 32.8177 9.96094 32.8047C9.97398 34.732 9.96094 36.6591 9.92188 38.5859C9.79539 39.2855 9.39172 39.7412 8.71094 39.9531C7.04427 40.0052 5.3776 40.0052 3.71094 39.9531C3.09462 39.7767 2.71702 39.3731 2.57813 38.7422C2.53906 36.7632 2.52605 34.7841 2.53906 32.8047C1.8875 32.8177 1.23646 32.8047 0.585938 32.7656C0.383256 32.661 0.266069 32.4917 0.234375 32.2578C0.182292 29.1068 0.182292 25.9557 0.234375 22.8047C0.369338 20.9399 1.31986 19.742 3.08594 19.2109Z" fill="white"/>
<path opacity="0.99" fill-rule="evenodd" clip-rule="evenodd" d="M16.8359 19.2109C18.9195 19.1979 21.0027 19.2109 23.0859 19.25C24.7083 19.6488 25.6588 20.6773 25.9375 22.3359C25.9896 25.7213 25.9896 29.1068 25.9375 32.4922C25.8427 32.6132 25.7255 32.7043 25.5859 32.7656C24.9615 32.8047 24.3365 32.8177 23.7109 32.8047C23.724 34.758 23.7109 36.7111 23.6719 38.6641C23.511 39.3198 23.1074 39.7495 22.4609 39.9531C20.7943 40.0052 19.1276 40.0052 17.4609 39.9531C16.8145 39.7495 16.4109 39.3198 16.25 38.6641C16.2109 36.7111 16.1979 34.758 16.2109 32.8047C15.5854 32.8177 14.9604 32.8047 14.3359 32.7656C14.1964 32.7043 14.0792 32.6132 13.9844 32.4922C13.9323 29.1068 13.9323 25.7213 13.9844 22.3359C14.2758 20.678 15.2263 19.6363 16.8359 19.2109Z" fill="white"/>
<path opacity="0.988" fill-rule="evenodd" clip-rule="evenodd" d="M30.5078 19.2109C32.6173 19.1979 34.7267 19.2109 36.8359 19.25C38.6528 19.7683 39.6034 20.9792 39.6875 22.8828C39.7396 26.0078 39.7396 29.1328 39.6875 32.2578C39.6558 32.4917 39.5386 32.661 39.3359 32.7656C38.6854 32.8047 38.0344 32.8177 37.3828 32.8047C37.3959 34.7841 37.3828 36.7632 37.3437 38.7422C37.2048 39.3731 36.8273 39.7767 36.2109 39.9531C34.5182 40.0052 32.8255 40.0052 31.1328 39.9531C30.5802 39.7913 30.2027 39.4397 30 38.8984C29.9609 36.8673 29.9479 34.8361 29.9609 32.8047C29.3094 32.8177 28.6584 32.8047 28.0078 32.7656C27.8385 32.7006 27.7213 32.5834 27.6562 32.4141C27.6041 29.1068 27.6041 25.7995 27.6562 22.4922C27.9037 20.7659 28.8541 19.6722 30.5078 19.2109Z" fill="white"/>
</g>
<defs>
<clipPath id="clip0_19_99">
<rect width="40" height="40" fill="white" transform="translate(0 0.5)"/>
</clipPath>
</defs>
</svg>
