<svg width="104" height="16" viewBox="0 0 104 16" fill="none" xmlns="http://www.w3.org/2000/svg">
<g id="Review">
<g id="star 1">
<g id="Group">
<path id="Vector" d="M8.59644 0.707719L10.9072 5.40528L16.0727 6.15875C16.1382 6.1685 16.1998 6.19636 16.2504 6.23919C16.3009 6.28202 16.3386 6.33812 16.359 6.40117C16.3794 6.46423 16.3818 6.53173 16.3659 6.59608C16.3501 6.66043 16.3165 6.71907 16.2691 6.7654L12.5321 10.4211L13.4144 15.5842C13.4258 15.6494 13.4186 15.7166 13.3938 15.778C13.369 15.8394 13.3274 15.8926 13.2738 15.9316C13.2203 15.9706 13.1569 15.9938 13.0908 15.9986C13.0247 16.0034 12.9586 15.9896 12.9 15.9588L8.27956 13.5216L3.6591 15.9595C3.60051 15.9905 3.53442 16.0044 3.46832 15.9996C3.40223 15.9949 3.33878 15.9717 3.2852 15.9327C3.23161 15.8938 3.19004 15.8405 3.16521 15.7791C3.14037 15.7177 3.13326 15.6505 3.1447 15.5852L4.02703 10.4211L0.288909 6.7654C0.241511 6.71907 0.207989 6.66043 0.192119 6.59608C0.176248 6.53173 0.178658 6.46423 0.199079 6.40117C0.219499 6.33812 0.257119 6.28202 0.3077 6.23919C0.358282 6.19636 0.419816 6.1685 0.485374 6.15875L5.65086 5.40528L7.96268 0.707719C7.99151 0.648191 8.03652 0.597987 8.09257 0.56286C8.14861 0.527733 8.21341 0.509102 8.27956 0.509102C8.3457 0.509102 8.4105 0.527733 8.46655 0.56286C8.52259 0.597987 8.56761 0.648191 8.59644 0.707719Z" fill="#2563EB"/>
</g>
</g>
<g id="star 2">
<g id="Group_2">
<path id="Vector_2" d="M30.4591 0.707726L32.7699 5.40529L37.9354 6.15876C38.0009 6.16851 38.0624 6.19636 38.113 6.23919C38.1636 6.28202 38.2012 6.33813 38.2217 6.40118C38.2421 6.46423 38.2445 6.53174 38.2286 6.59609C38.2127 6.66044 38.1792 6.71908 38.1318 6.76541L34.3948 10.4211L35.2771 15.5842C35.2885 15.6494 35.2813 15.7166 35.2565 15.778C35.2316 15.8394 35.1901 15.8926 35.1365 15.9316C35.083 15.9706 35.0196 15.9939 34.9535 15.9987C34.8874 16.0035 34.8213 15.9896 34.7627 15.9588L30.1422 13.5216L25.5218 15.9595C25.4632 15.9905 25.3971 16.0044 25.331 15.9996C25.2649 15.9949 25.2015 15.9717 25.1479 15.9328C25.0943 15.8938 25.0527 15.8405 25.0279 15.7791C25.003 15.7177 24.9959 15.6505 25.0074 15.5852L25.8897 10.4211L22.1516 6.76541C22.1042 6.71908 22.0707 6.66044 22.0548 6.59609C22.0389 6.53174 22.0413 6.46423 22.0617 6.40118C22.0822 6.33813 22.1198 6.28202 22.1704 6.23919C22.221 6.19636 22.2825 6.16851 22.348 6.15876L27.5135 5.40529L29.8253 0.707726C29.8542 0.648198 29.8992 0.597995 29.9552 0.562868C30.0113 0.52774 30.0761 0.509109 30.1422 0.509109C30.2084 0.509109 30.2732 0.52774 30.3292 0.562868C30.3853 0.597995 30.4303 0.648198 30.4591 0.707726Z" fill="#2563EB"/>
</g>
</g>
<g id="star 3">
<g id="Group_3">
<path id="Vector_3" d="M52.3217 0.707726L54.6324 5.40529L59.7979 6.15876C59.8635 6.16851 59.925 6.19636 59.9756 6.23919C60.0262 6.28202 60.0638 6.33813 60.0842 6.40118C60.1046 6.46423 60.107 6.53174 60.0912 6.59609C60.0753 6.66044 60.0418 6.71908 59.9944 6.76541L56.2573 10.4211L57.1396 15.5842C57.151 15.6494 57.1439 15.7166 57.119 15.778C57.0942 15.8394 57.0526 15.8926 56.9991 15.9316C56.9455 15.9706 56.8821 15.9939 56.816 15.9987C56.75 16.0035 56.6839 15.9896 56.6252 15.9588L52.0048 13.5216L47.3843 15.9595C47.3257 15.9905 47.2596 16.0044 47.1935 15.9996C47.1274 15.9949 47.064 15.9717 47.0104 15.9328C46.9568 15.8938 46.9153 15.8405 46.8904 15.7791C46.8656 15.7177 46.8585 15.6505 46.8699 15.5852L47.7523 10.4211L44.0141 6.76541C43.9667 6.71908 43.9332 6.66044 43.9173 6.59609C43.9015 6.53174 43.9039 6.46423 43.9243 6.40118C43.9447 6.33813 43.9823 6.28202 44.0329 6.23919C44.0835 6.19636 44.145 6.16851 44.2106 6.15876L49.3761 5.40529L51.6879 0.707726C51.7167 0.648198 51.7617 0.597995 51.8178 0.562868C51.8738 0.52774 51.9386 0.509109 52.0048 0.509109C52.0709 0.509109 52.1357 0.52774 52.1918 0.562868C52.2478 0.597995 52.2928 0.648198 52.3217 0.707726Z" fill="#2563EB"/>
</g>
</g>
<g id="star 4">
<g id="Group_4">
<path id="Vector_4" d="M74.1843 0.707726L76.4951 5.40529L81.6606 6.15876C81.7261 6.16851 81.7877 6.19636 81.8382 6.23919C81.8888 6.28202 81.9264 6.33813 81.9469 6.40118C81.9673 6.46423 81.9697 6.53174 81.9538 6.59609C81.938 6.66044 81.9044 6.71908 81.857 6.76541L78.12 10.4211L79.0023 15.5842C79.0137 15.6494 79.0065 15.7166 78.9817 15.778C78.9568 15.8394 78.9153 15.8926 78.8617 15.9316C78.8082 15.9706 78.7448 15.9939 78.6787 15.9987C78.6126 16.0035 78.5465 15.9896 78.4879 15.9588L73.8674 13.5216L69.247 15.9595C69.1884 15.9905 69.1223 16.0044 69.0562 15.9996C68.9901 15.9949 68.9267 15.9717 68.8731 15.9328C68.8195 15.8938 68.7779 15.8405 68.7531 15.7791C68.7283 15.7177 68.7212 15.6505 68.7326 15.5852L69.6149 10.4211L65.8768 6.76541C65.8294 6.71908 65.7959 6.66044 65.78 6.59609C65.7641 6.53174 65.7665 6.46423 65.787 6.40118C65.8074 6.33813 65.845 6.28202 65.8956 6.23919C65.9462 6.19636 66.0077 6.16851 66.0733 6.15876L71.2388 5.40529L73.5506 0.707726C73.5794 0.648198 73.6244 0.597995 73.6805 0.562868C73.7365 0.52774 73.8013 0.509109 73.8674 0.509109C73.9336 0.509109 73.9984 0.52774 74.0544 0.562868C74.1105 0.597995 74.1555 0.648198 74.1843 0.707726Z" fill="#2563EB"/>
</g>
</g>
<g id="star 5">
<g id="Group_5">
<path id="Vector_5" d="M96.0469 0.707726L98.3576 5.40529L103.523 6.15876C103.589 6.16851 103.65 6.19636 103.701 6.23919C103.751 6.28202 103.789 6.33813 103.809 6.40118C103.83 6.46423 103.832 6.53174 103.816 6.59609C103.801 6.66044 103.767 6.71908 103.72 6.76541L99.9825 10.4211L100.865 15.5842C100.876 15.6494 100.869 15.7166 100.844 15.778C100.819 15.8394 100.778 15.8926 100.724 15.9316C100.671 15.9706 100.607 15.9939 100.541 15.9987C100.475 16.0035 100.409 15.9896 100.35 15.9588L95.73 13.5216L91.1095 15.9595C91.051 15.9905 90.9849 16.0044 90.9188 15.9996C90.8527 15.9949 90.7892 15.9717 90.7356 15.9328C90.6821 15.8938 90.6405 15.8405 90.6156 15.7791C90.5908 15.7177 90.5837 15.6505 90.5951 15.5852L91.4775 10.4211L87.7393 6.76541C87.692 6.71908 87.6584 6.66044 87.6426 6.59609C87.6267 6.53174 87.6291 6.46423 87.6495 6.40118C87.6699 6.33813 87.7076 6.28202 87.7581 6.23919C87.8087 6.19636 87.8703 6.16851 87.9358 6.15876L93.1013 5.40529L95.4131 0.707726C95.4419 0.648198 95.487 0.597995 95.543 0.562868C95.599 0.52774 95.6639 0.509109 95.73 0.509109C95.7961 0.509109 95.8609 0.52774 95.917 0.562868C95.973 0.597995 96.018 0.648198 96.0469 0.707726Z" fill="#2563EB"/>
</g>
</g>
</g>
</svg>
