<svg width="73" height="73" viewBox="0 0 73 73" fill="none" xmlns="http://www.w3.org/2000/svg">
<g clip-path="url(#clip0_19_76)">
<path opacity="0.955" fill-rule="evenodd" clip-rule="evenodd" d="M5.2041 -0.0712891C26.0205 -0.0712891 46.8369 -0.0712891 67.6533 -0.0712891C70.4098 0.689127 72.1683 2.4476 72.9287 5.2041C72.9287 10.527 72.9287 15.85 72.9287 21.1729C72.6055 22.6019 71.8926 23.8138 70.79 24.8086C71.8207 25.8503 72.5336 27.0622 72.9287 28.4443C72.9287 33.7672 72.9287 39.0902 72.9287 44.4131C72.5336 45.7952 71.8207 47.0072 70.79 48.0488C71.8926 49.0436 72.6055 50.2555 72.9287 51.6846C72.9287 57.0074 72.9287 62.3305 72.9287 67.6533C72.1683 70.4098 70.4098 72.1683 67.6533 72.9287C46.8369 72.9287 26.0205 72.9287 5.2041 72.9287C2.4476 72.1683 0.689127 70.4098 -0.0712891 67.6533C-0.0712891 62.3305 -0.0712891 57.0074 -0.0712891 51.6846C0.25191 50.2555 0.9648 49.0436 2.06738 48.0488C1.0367 47.0072 0.323812 45.7952 -0.0712891 44.4131C-0.0712891 39.0902 -0.0712891 33.7672 -0.0712891 28.4443C0.323812 27.0622 1.0367 25.8503 2.06738 24.8086C0.9648 23.8138 0.25191 22.6019 -0.0712891 21.1729C-0.0712891 15.85 -0.0712891 10.527 -0.0712891 5.2041C0.689127 2.4476 2.4476 0.689127 5.2041 -0.0712891ZM5.77441 3.35059C26.2107 3.32682 46.6469 3.35059 67.083 3.42188C68.2474 3.82584 69.0316 4.61002 69.4355 5.77441C69.5306 10.7171 69.5306 15.6598 69.4355 20.6025C69.0791 21.8145 68.2949 22.5986 67.083 22.9551C46.6469 23.0502 26.2106 23.0502 5.77441 22.9551C4.5625 22.5986 3.77832 21.8145 3.42188 20.6025C3.32682 15.6598 3.32682 10.7171 3.42188 5.77441C3.85233 4.6075 4.63651 3.79956 5.77441 3.35059ZM5.77441 26.5908C26.2107 26.567 46.6469 26.5908 67.083 26.6621C68.2474 27.066 69.0316 27.8502 69.4355 29.0146C69.5306 33.9574 69.5306 38.9 69.4355 43.8428C69.0316 45.0072 68.2474 45.7914 67.083 46.1953C46.6469 46.2904 26.2106 46.2904 5.77441 46.1953C4.61002 45.7914 3.82584 45.0072 3.42188 43.8428C3.32682 38.9 3.32682 33.9574 3.42188 29.0146C3.85233 27.8478 4.63651 27.0398 5.77441 26.5908ZM5.77441 49.8311C26.2107 49.8072 46.6469 49.8311 67.083 49.9023C68.2949 50.2588 69.0791 51.043 69.4355 52.2549C69.5306 57.1976 69.5306 62.1403 69.4355 67.083C69.0316 68.2474 68.2474 69.0316 67.083 69.4355C46.6469 69.5306 26.2106 69.5306 5.77441 69.4355C4.61002 69.0316 3.82584 68.2474 3.42188 67.083C3.32682 62.1403 3.32682 57.1976 3.42188 52.2549C3.80457 51.0407 4.58875 50.2327 5.77441 49.8311Z" fill="#6907F2"/>
<path opacity="0.925" fill-rule="evenodd" clip-rule="evenodd" d="M11.1924 6.48736C12.3506 6.41121 13.0397 6.934 13.2598 8.05572C13.3548 11.4776 13.3548 14.8995 13.2598 18.3213C12.8675 19.6939 11.9882 20.1454 10.6221 19.6758C10.1581 19.3419 9.89668 18.8904 9.83789 18.3213C9.74284 14.8995 9.74284 11.4776 9.83789 8.05572C9.9668 7.23868 10.4183 6.7159 11.1924 6.48736Z" fill="#6907F2"/>
<path opacity="0.956" fill-rule="evenodd" clip-rule="evenodd" d="M17.751 6.48736C18.7939 6.36907 19.4832 6.79681 19.8184 7.77056C19.9135 11.3825 19.9135 14.9946 19.8184 18.6065C19.2155 19.9084 18.2888 20.1935 17.0381 19.462C16.7819 19.2294 16.6155 18.9443 16.5391 18.6065C16.444 14.9946 16.444 11.3825 16.5391 7.77056C16.7317 7.12679 17.1358 6.69906 17.751 6.48736Z" fill="#6907F2"/>
<path opacity="0.925" fill-rule="evenodd" clip-rule="evenodd" d="M24.4522 6.48736C25.6103 6.41121 26.2994 6.934 26.5195 8.05572C26.6146 11.4776 26.6146 14.8995 26.5195 18.3213C26.0877 19.8284 25.1609 20.2325 23.7393 19.5333C23.357 19.2204 23.1431 18.8165 23.0977 18.3213C23.0026 14.8995 23.0026 11.4776 23.0977 8.05572C23.2266 7.23868 23.6781 6.7159 24.4522 6.48736Z" fill="#6907F2"/>
<path opacity="0.951" fill-rule="evenodd" clip-rule="evenodd" d="M49.4033 9.7666C52.2177 10.0371 53.382 11.5579 52.8965 14.3291C51.7155 16.5796 49.9809 17.1261 47.6924 15.9688C45.7914 14.1152 45.7914 12.2617 47.6924 10.4082C48.253 10.119 48.8233 9.90513 49.4033 9.7666Z" fill="#6907F2"/>
<path opacity="0.951" fill-rule="evenodd" clip-rule="evenodd" d="M59.3838 9.7666C61.5779 9.86959 62.8135 11.0102 63.0908 13.1885C62.6763 15.8426 61.1555 16.9119 58.5283 16.3965C56.2779 15.2155 55.7314 13.4808 56.8887 11.1924C57.5544 10.397 58.386 9.92171 59.3838 9.7666Z" fill="#6907F2"/>
<path opacity="0.926" fill-rule="evenodd" clip-rule="evenodd" d="M11.1924 29.7276C12.3506 29.6515 13.0397 30.1743 13.2598 31.296C13.3548 34.7178 13.3548 38.1397 13.2598 41.5616C13.1024 42.5267 12.5321 43.0495 11.5488 43.1299C10.5656 43.0495 9.9953 42.5267 9.83789 41.5616C9.74284 38.1397 9.74284 34.7178 9.83789 31.296C9.9668 30.479 10.4183 29.9561 11.1924 29.7276Z" fill="#6907F2"/>
<path opacity="0.956" fill-rule="evenodd" clip-rule="evenodd" d="M17.751 29.7275C18.7939 29.6091 19.4832 30.0369 19.8184 31.0107C19.9135 34.6226 19.9135 38.2347 19.8184 41.8466C19.2155 43.1485 18.2888 43.4337 17.0381 42.7021C16.7819 42.4696 16.6155 42.1844 16.5391 41.8466C16.444 38.2347 16.444 34.6226 16.5391 31.0107C16.7317 30.3669 17.1358 29.9392 17.751 29.7275Z" fill="#6907F2"/>
<path opacity="0.926" fill-rule="evenodd" clip-rule="evenodd" d="M24.4522 29.7276C25.6103 29.6515 26.2994 30.1743 26.5195 31.296C26.6146 34.7178 26.6146 38.1397 26.5195 41.5616C26.3621 42.5267 25.7918 43.0495 24.8086 43.1299C23.8254 43.0495 23.2551 42.5267 23.0977 41.5616C23.0026 38.1397 23.0026 34.7178 23.0977 31.296C23.2266 30.479 23.6781 29.9561 24.4522 29.7276Z" fill="#6907F2"/>
<path opacity="0.952" fill-rule="evenodd" clip-rule="evenodd" d="M49.2607 33.0068C52.1468 33.2066 53.3587 34.7275 52.8965 37.5693C51.7034 39.8141 49.9686 40.3606 47.6924 39.209C45.7914 37.3555 45.7914 35.502 47.6924 33.6484C48.199 33.346 48.7218 33.1322 49.2607 33.0068Z" fill="#6907F2"/>
<path opacity="0.951" fill-rule="evenodd" clip-rule="evenodd" d="M59.2412 33.0068C61.5078 33.0396 62.791 34.1803 63.0908 36.4287C62.6779 39.0822 61.157 40.1516 58.5283 39.6367C56.2754 38.4442 55.7289 36.7094 56.8887 34.4326C57.5222 33.6777 58.3063 33.2023 59.2412 33.0068Z" fill="#6907F2"/>
<path opacity="0.925" fill-rule="evenodd" clip-rule="evenodd" d="M11.0498 52.9678C12.2596 52.8463 12.9962 53.3692 13.2598 54.5362C13.3548 57.958 13.3548 61.3799 13.2598 64.8018C13.1024 65.7669 12.5321 66.2897 11.5488 66.3701C10.5656 66.2897 9.9953 65.7669 9.83789 64.8018C9.74284 61.3799 9.74284 57.958 9.83789 54.5362C9.95813 53.7765 10.3621 53.2537 11.0498 52.9678Z" fill="#6907F2"/>
<path opacity="0.956" fill-rule="evenodd" clip-rule="evenodd" d="M17.751 52.9678C18.7939 52.8494 19.4832 53.2772 19.8184 54.251C19.9135 57.8629 19.9135 61.475 19.8184 65.0869C19.2155 66.3888 18.2888 66.674 17.0381 65.9424C16.7819 65.7098 16.6155 65.4247 16.5391 65.0869C16.444 61.475 16.444 57.8629 16.5391 54.251C16.7317 53.6072 17.1358 53.1795 17.751 52.9678Z" fill="#6907F2"/>
<path opacity="0.925" fill-rule="evenodd" clip-rule="evenodd" d="M24.3096 52.9677C25.5443 52.8018 26.281 53.3245 26.5195 54.5361C26.6146 57.958 26.6146 61.3798 26.5195 64.8017C26.3621 65.7668 25.7918 66.2897 24.8086 66.3701C23.8254 66.2897 23.2551 65.7668 23.0977 64.8017C23.0026 61.3798 23.0026 57.958 23.0977 54.5361C23.2137 53.7799 23.6176 53.257 24.3096 52.9677Z" fill="#6907F2"/>
<path opacity="0.951" fill-rule="evenodd" clip-rule="evenodd" d="M49.1182 56.247C51.4609 56.2138 52.7915 57.3544 53.1104 59.6689C52.8752 61.7099 51.7346 62.8505 49.6885 63.0908C47.6449 62.8531 46.5043 61.7125 46.2666 59.6689C46.4525 57.8689 47.4031 56.7282 49.1182 56.247Z" fill="#6907F2"/>
<path opacity="0.951" fill-rule="evenodd" clip-rule="evenodd" d="M59.0986 56.247C61.4388 56.211 62.7696 57.3516 63.0908 59.6689C62.8531 61.7125 61.7125 62.8531 59.6689 63.0908C57.0148 62.6763 55.9455 61.1554 56.4609 58.5283C56.9755 57.3232 57.8546 56.5629 59.0986 56.247Z" fill="#6907F2"/>
</g>
<defs>
<clipPath id="clip0_19_76">
<rect width="73" height="73" fill="white"/>
</clipPath>
</defs>
</svg>
