<svg width="150" height="33" viewBox="0 0 150 33" fill="none" xmlns="http://www.w3.org/2000/svg">
<g id="Frame" clip-path="url(#clip0_169_404)">
<g id="Group">
<path id="Vector" d="M19.2652 12.992C19.0204 12.2119 18.3057 10.4584 18.111 9.16373C17.6813 6.29638 19.1804 4.40798 20.5571 3.97552C22.102 3.54444 22.7055 4.32037 23.3035 6.12394C24.0767 8.87032 24.1629 12.4691 23.9028 17.6212C23.5649 24.6588 20.0439 33.158 11.2915 32.9814C3.73636 32.8159 0.39336 27.9225 0.0457099 20.4565C-0.118381 16.937 0.133318 13.4189 1.59067 8.44341C2.36384 5.77908 3.05358 4.83072 5.45236 4.32038C7.33802 3.97552 7.16836 5.94735 6.74145 8.27238C5.8014 13.4189 5.36475 15.9038 5.7124 21.7428C6.04893 27.9225 8.88714 30.3268 11.9771 30.3268C16.6119 30.4158 18.67 26.5542 19.5322 20.9697C20.2122 16.5087 19.6991 14.3631 19.2652 12.992ZM118.087 19.0868C119.892 19.0868 120.409 21.2213 119.978 22.5146C119.547 23.7995 118.005 25.2651 115.603 25.692C115.086 24.4016 114.827 19.0868 118.087 19.0868ZM84.5372 21.9959C84.5372 20.5427 83.7598 19.3399 82.824 19.3399C82.0424 19.3399 80.2472 20.1951 80.2472 22.9429C80.2472 25.0955 81.012 26.1161 81.3624 26.5542C83.8446 25.7782 84.5372 23.7132 84.5372 21.9959ZM57.8404 4.49142C57.7195 3.11476 56.6403 2.17751 55.1802 2.17751C53.5518 2.17751 52.018 3.88652 52.1807 6.03356C52.285 7.44916 53.1193 8.61306 54.7589 8.61306C56.6403 8.61445 58.0129 6.46881 57.8404 4.49142ZM71.7979 9.53223C71.6491 7.13211 71.0678 6.04885 69.7787 6.13785C68.0697 6.24075 67.2798 11.6181 67.6289 17.2707C67.8514 20.9585 68.4006 21.5273 68.9124 21.4911C69.858 21.4341 72.1261 14.8456 71.7979 9.53223ZM128.73 18.5668C127.667 22.979 124.442 29.4702 119.63 29.4702C118.516 29.4702 116.542 29.0377 116.542 27.9225C116.542 26.7197 124.1 26.5542 124.1 20.8C124.1 18.6571 122.126 15.6493 119.206 15.6493C115.345 15.6493 111.577 19.8586 111.577 25.6934C111.577 30.9247 114.827 32.6421 118.088 32.6421C123.755 32.6421 127.188 28.0045 128.989 24.1457C129.851 26.721 130.357 32.6421 132.511 32.6421C133.367 32.6421 133.972 32.2124 135.002 29.8985C137.57 24.1443 140.062 17.5363 143.497 17.5363C144.781 17.5363 144.012 19.8586 147.1 19.8586C148.556 19.8586 149.582 18.6571 149.582 17.2777C149.582 15.3017 147.783 13.7623 145.039 13.7623C136.97 13.7623 135.259 25.8645 133.97 25.8645C131.823 25.8645 132.51 16.1652 130.962 16.1652C129.588 16.1638 128.914 17.8006 128.73 18.5668ZM60.0737 28.8639C61.36 28.8639 63.5725 28.4467 65.3135 25.6587C64.3178 23.4476 63.6072 18.9798 63.5085 17.3528C62.9968 9.03302 66.2021 1.20689 69.7106 0.989962C72.2832 0.834218 74.3413 3.26911 74.5777 7.21415C75.2104 17.5808 71.7576 21.9083 70.029 25.642C70.3211 27.0895 72.7769 29.5536 75.0936 29.5536C75.9488 29.5536 76.9834 29.1239 77.2435 28.7763C77.071 28.1797 76.8958 27.408 76.8958 26.2886C76.8958 20.2813 80.7589 15.2155 84.1075 15.2155C86.7677 15.2155 88.3126 18.7336 88.3126 21.0559C88.3126 23.7981 85.9931 26.0341 82.5625 28.1797C83.166 28.7763 84.2757 29.2102 85.2241 29.2102C90.1204 29.2102 92.6819 23.2863 94.5787 17.877C94.9208 16.8452 95.5257 15.3893 96.7244 15.3893C98.7839 15.3893 99.646 28.9501 103.07 28.9501C104.534 28.9501 105.733 25.9437 105.733 23.6326C105.733 21.9139 105.132 21.7414 105.132 19.2523C105.132 16.5087 106.592 14.1934 108.571 14.1934C109.771 14.1934 110.205 15.3893 110.205 16.8452C110.205 22.3394 106.251 32.5545 100.423 32.5545C96.0388 32.5545 96.3809 25.0009 94.8373 25.0009C93.113 25.0009 90.71 32.6393 82.2218 32.6393C80.8423 32.6393 79.3864 31.9537 78.1877 30.5771C76.131 31.9537 74.4094 32.5545 72.4348 32.5545C69.2628 32.5545 67.8861 29.2922 66.6026 29.2922C65.0549 29.2922 63.343 32.6393 58.1881 32.6393C54.0691 32.6393 53.3822 27.1521 51.9262 27.1521C50.6357 27.1521 48.6625 32.6393 46.5182 32.6393C42.9082 32.6393 42.1433 23.1153 38.9616 23.1153C36.4739 23.1153 28.61 32.7881 26.4755 32.567C25.6175 32.478 25.2559 31.8369 25.3463 30.9776C25.4673 29.79 26.4894 26.6112 26.9038 25.108C27.5977 22.4979 28.2346 19.6375 28.5906 18.7253C28.9438 17.8047 29.8963 17.1484 30.6612 17.2193C31.0464 17.2554 31.1618 17.9744 31.2814 18.5681C31.7152 20.6902 32.3201 22.8539 33.0029 22.8539C34.2086 22.8539 38.1899 15.2141 40.5066 15.2141C43.3434 15.2141 43.6827 27.2328 47.543 27.2328C48.8335 27.2328 49.7805 25.6906 50.6357 23.7967C50.7233 20.6164 51.5813 16.0776 54.1553 16.0776C55.959 16.0776 56.8183 20.1075 55.5265 23.6312C55.5237 27.8335 58.2673 28.8639 60.0737 28.8639Z" fill="white"/>
</g>
</g>
<defs>
<clipPath id="clip0_169_404">
<rect width="149.579" height="31.9999" fill="white" transform="translate(0 0.975098)"/>
</clipPath>
</defs>
</svg>
