<svg width="35" height="34" viewBox="0 0 35 34" fill="none" xmlns="http://www.w3.org/2000/svg">
<g opacity="0.942">
<mask id="path-1-inside-1_19_83" fill="white">
<path fill-rule="evenodd" clip-rule="evenodd" d="M6.47656 0C6.69791 0 6.91927 0 7.14062 0C8.42213 1.31475 9.71705 2.62074 11.0254 3.91797C11.1852 4.49841 10.975 4.85258 10.3945 4.98047C10.1985 4.94276 10.0214 4.86529 9.86328 4.74805C8.83398 3.71875 7.80469 2.68945 6.77539 1.66016C6.50977 1.92578 6.24414 2.19141 5.97852 2.45703C5.93424 2.5013 5.93424 2.54557 5.97852 2.58984C9.34312 5.95443 12.7077 9.31899 16.0723 12.6836C16.3611 12.4059 16.6377 12.1181 16.9023 11.8203C15.9957 10.8805 15.0771 9.95078 14.1465 9.03125C13.7514 8.40092 13.9064 7.98037 14.6113 7.76953C14.8223 7.7955 15.0104 7.87293 15.1758 8.00195C16.0953 8.93257 17.025 9.85117 17.9648 10.7578C21.0758 7.7022 24.1526 4.61431 27.1953 1.49414C28.014 0.907514 28.8773 0.841108 29.7852 1.29492C30.903 2.41276 32.0209 3.5306 33.1387 4.64844C33.5552 5.46072 33.533 6.25759 33.0723 7.03906C29.9641 10.2137 26.8319 13.368 23.6758 16.502C27.299 20.1141 30.9071 23.7333 34.5 27.3594C34.5 27.5807 34.5 27.8021 34.5 28.0234C32.5299 30.0377 30.5377 32.0299 28.5234 34C28.3021 34 28.0807 34 27.8594 34C24.2748 30.3712 20.6668 26.7631 17.0352 23.1758C14.6989 25.4566 12.3969 27.7698 10.1289 30.1152C7.2395 31.3942 4.36187 32.6891 1.49609 34C1.27474 34 1.05339 34 0.832031 34C0.721354 33.8893 0.610677 33.7787 0.5 33.668C0.5 33.4466 0.5 33.2252 0.5 33.0039C1.78416 30.2136 3.03481 27.4025 4.25195 24.5703C6.63337 22.211 8.99077 19.8315 11.3242 17.4316C7.72493 13.8213 4.11684 10.2242 0.5 6.64062C0.5 6.41927 0.5 6.19791 0.5 5.97656C2.47005 3.96224 4.46224 1.97005 6.47656 0ZM28.3242 2.39062C28.5552 2.36965 28.7766 2.40286 28.9883 2.49023C30.0195 3.4993 31.0267 4.52859 32.0098 5.57812C32.0622 5.78624 32.0401 5.98546 31.9434 6.17578C31.4776 6.65266 31.0017 7.11749 30.5156 7.57031C29.276 6.375 28.0586 5.15755 26.8633 3.91797C27.3554 3.40398 27.8423 2.89486 28.3242 2.39062ZM4.88281 3.51953C8.26721 6.87072 11.6429 10.2353 15.0098 13.6133C15.0541 13.6576 15.0541 13.7018 15.0098 13.7461C14.1354 14.6205 13.2611 15.4948 12.3867 16.3691C12.3424 16.4134 12.2982 16.4134 12.2539 16.3691C11.777 15.9034 11.3122 15.4274 10.8594 14.9414C11.3696 14.4202 11.8676 13.8889 12.3535 13.3477C12.4759 12.7842 12.2545 12.4522 11.6895 12.3516C11.5404 12.3939 11.3965 12.4492 11.2578 12.5176C10.7819 12.9935 10.306 13.4694 9.83008 13.9453C9.17711 13.2923 8.52407 12.6393 7.87109 11.9863C8.36914 11.4883 8.86719 10.9902 9.36523 10.4922C9.57534 9.90376 9.37613 9.54955 8.76758 9.42969C8.58616 9.43732 8.42014 9.49264 8.26953 9.5957C7.81478 10.0615 7.34994 10.5153 6.875 10.957C6.25615 10.3714 5.64743 9.77374 5.04883 9.16406C5.00456 9.11977 5.00456 9.07554 5.04883 9.03125C5.56002 8.54223 6.047 8.03316 6.50977 7.50391C6.56754 6.67668 6.2023 6.39999 5.41406 6.67383C4.93815 7.14976 4.46224 7.62563 3.98633 8.10156C3.3776 7.49282 2.76888 6.88414 2.16016 6.27539C3.08112 5.36553 3.98867 4.44691 4.88281 3.51953ZM25.7344 4.98047C27.0135 6.14882 28.2531 7.36625 29.4531 8.63281C29.1885 8.93064 28.9118 9.21838 28.623 9.49609C28.3021 9.17515 27.9811 8.85414 27.6602 8.5332C26.8792 8.2545 26.5139 8.53114 26.5645 9.36328C26.8953 9.7495 27.2384 10.1258 27.5938 10.4922C27.3281 10.8021 27.0404 11.0898 26.7305 11.3555C25.4909 10.1602 24.2734 8.94273 23.0781 7.70312C23.3438 7.39321 23.6315 7.10547 23.9414 6.83984C24.3078 7.19518 24.6841 7.5383 25.0703 7.86914C25.9024 7.91968 26.1791 7.55444 25.9004 6.77344C25.5794 6.45248 25.2584 6.13151 24.9375 5.81055C25.2167 5.54256 25.4823 5.26587 25.7344 4.98047ZM22.0156 8.69922C23.2529 9.9033 24.4814 11.1207 25.7012 12.3516C25.7455 12.3959 25.7455 12.4401 25.7012 12.4844C20.3002 17.8854 14.8991 23.2865 9.49805 28.6875C8.26953 27.459 7.04102 26.2305 5.8125 25.002C11.203 19.5562 16.604 14.1219 22.0156 8.69922ZM22.6133 17.5312C26.0309 20.9156 29.4398 24.3135 32.8398 27.7246C32.5742 27.9902 32.3086 28.2559 32.043 28.5215C31.9987 28.5658 31.9544 28.5658 31.9102 28.5215C28.5566 25.168 25.2031 21.8145 21.8496 18.4609C21.8053 18.4166 21.8053 18.3724 21.8496 18.3281C22.1177 18.0712 22.3722 17.8056 22.6133 17.5312ZM20.7539 19.3906C24.1715 22.775 27.5804 26.1728 30.9805 29.584C30.0619 30.5026 29.1432 31.4212 28.2246 32.3398C27.5716 31.6869 26.9186 31.0338 26.2656 30.3809C26.7879 29.8808 27.286 29.3606 27.7598 28.8203C27.8961 28.0934 27.5973 27.7724 26.8633 27.8574C26.334 28.3202 25.825 28.8072 25.3359 29.3184C25.2916 29.3627 25.2474 29.3627 25.2031 29.3184C24.5713 28.6977 23.9515 28.0668 23.3438 27.4258C23.7855 26.9508 24.2392 26.486 24.7051 26.0312C25.0127 25.5013 24.891 25.1139 24.3398 24.8691C24.1568 24.8304 23.9797 24.8525 23.8086 24.9355C23.3105 25.4336 22.8125 25.9316 22.3145 26.4297C21.6615 25.7767 21.0084 25.1237 20.3555 24.4707C20.8314 23.9948 21.3073 23.5189 21.7832 23.043C22.0485 22.5772 21.9489 22.212 21.4844 21.9473C21.3073 21.903 21.1302 21.903 20.9531 21.9473C20.4118 22.4332 19.8806 22.9312 19.3594 23.4414C18.9066 23.0218 18.4638 22.5901 18.0312 22.1465C18.9522 21.2367 19.8597 20.318 20.7539 19.3906ZM5.08203 26.2969C6.12009 27.3017 7.14938 28.3199 8.16992 29.3516C8.21561 29.4068 8.20452 29.451 8.13672 29.4844C7.34595 29.83 6.56015 30.1842 5.7793 30.5469C5.20377 29.9713 4.62826 29.3959 4.05273 28.8203C4.00846 28.7318 4.00846 28.6432 4.05273 28.5547C4.38983 27.7973 4.73293 27.0447 5.08203 26.2969ZM2.625 31.875C2.82993 31.3044 3.07342 30.751 3.35547 30.2148C3.6875 30.5026 3.9974 30.8125 4.28516 31.1445C3.75503 31.4428 3.20165 31.6863 2.625 31.875Z"/>
</mask>
<path fill-rule="evenodd" clip-rule="evenodd" d="M6.47656 0C6.69791 0 6.91927 0 7.14062 0C8.42213 1.31475 9.71705 2.62074 11.0254 3.91797C11.1852 4.49841 10.975 4.85258 10.3945 4.98047C10.1985 4.94276 10.0214 4.86529 9.86328 4.74805C8.83398 3.71875 7.80469 2.68945 6.77539 1.66016C6.50977 1.92578 6.24414 2.19141 5.97852 2.45703C5.93424 2.5013 5.93424 2.54557 5.97852 2.58984C9.34312 5.95443 12.7077 9.31899 16.0723 12.6836C16.3611 12.4059 16.6377 12.1181 16.9023 11.8203C15.9957 10.8805 15.0771 9.95078 14.1465 9.03125C13.7514 8.40092 13.9064 7.98037 14.6113 7.76953C14.8223 7.7955 15.0104 7.87293 15.1758 8.00195C16.0953 8.93257 17.025 9.85117 17.9648 10.7578C21.0758 7.7022 24.1526 4.61431 27.1953 1.49414C28.014 0.907514 28.8773 0.841108 29.7852 1.29492C30.903 2.41276 32.0209 3.5306 33.1387 4.64844C33.5552 5.46072 33.533 6.25759 33.0723 7.03906C29.9641 10.2137 26.8319 13.368 23.6758 16.502C27.299 20.1141 30.9071 23.7333 34.5 27.3594C34.5 27.5807 34.5 27.8021 34.5 28.0234C32.5299 30.0377 30.5377 32.0299 28.5234 34C28.3021 34 28.0807 34 27.8594 34C24.2748 30.3712 20.6668 26.7631 17.0352 23.1758C14.6989 25.4566 12.3969 27.7698 10.1289 30.1152C7.2395 31.3942 4.36187 32.6891 1.49609 34C1.27474 34 1.05339 34 0.832031 34C0.721354 33.8893 0.610677 33.7787 0.5 33.668C0.5 33.4466 0.5 33.2252 0.5 33.0039C1.78416 30.2136 3.03481 27.4025 4.25195 24.5703C6.63337 22.211 8.99077 19.8315 11.3242 17.4316C7.72493 13.8213 4.11684 10.2242 0.5 6.64062C0.5 6.41927 0.5 6.19791 0.5 5.97656C2.47005 3.96224 4.46224 1.97005 6.47656 0ZM28.3242 2.39062C28.5552 2.36965 28.7766 2.40286 28.9883 2.49023C30.0195 3.4993 31.0267 4.52859 32.0098 5.57812C32.0622 5.78624 32.0401 5.98546 31.9434 6.17578C31.4776 6.65266 31.0017 7.11749 30.5156 7.57031C29.276 6.375 28.0586 5.15755 26.8633 3.91797C27.3554 3.40398 27.8423 2.89486 28.3242 2.39062ZM4.88281 3.51953C8.26721 6.87072 11.6429 10.2353 15.0098 13.6133C15.0541 13.6576 15.0541 13.7018 15.0098 13.7461C14.1354 14.6205 13.2611 15.4948 12.3867 16.3691C12.3424 16.4134 12.2982 16.4134 12.2539 16.3691C11.777 15.9034 11.3122 15.4274 10.8594 14.9414C11.3696 14.4202 11.8676 13.8889 12.3535 13.3477C12.4759 12.7842 12.2545 12.4522 11.6895 12.3516C11.5404 12.3939 11.3965 12.4492 11.2578 12.5176C10.7819 12.9935 10.306 13.4694 9.83008 13.9453C9.17711 13.2923 8.52407 12.6393 7.87109 11.9863C8.36914 11.4883 8.86719 10.9902 9.36523 10.4922C9.57534 9.90376 9.37613 9.54955 8.76758 9.42969C8.58616 9.43732 8.42014 9.49264 8.26953 9.5957C7.81478 10.0615 7.34994 10.5153 6.875 10.957C6.25615 10.3714 5.64743 9.77374 5.04883 9.16406C5.00456 9.11977 5.00456 9.07554 5.04883 9.03125C5.56002 8.54223 6.047 8.03316 6.50977 7.50391C6.56754 6.67668 6.2023 6.39999 5.41406 6.67383C4.93815 7.14976 4.46224 7.62563 3.98633 8.10156C3.3776 7.49282 2.76888 6.88414 2.16016 6.27539C3.08112 5.36553 3.98867 4.44691 4.88281 3.51953ZM25.7344 4.98047C27.0135 6.14882 28.2531 7.36625 29.4531 8.63281C29.1885 8.93064 28.9118 9.21838 28.623 9.49609C28.3021 9.17515 27.9811 8.85414 27.6602 8.5332C26.8792 8.2545 26.5139 8.53114 26.5645 9.36328C26.8953 9.7495 27.2384 10.1258 27.5938 10.4922C27.3281 10.8021 27.0404 11.0898 26.7305 11.3555C25.4909 10.1602 24.2734 8.94273 23.0781 7.70312C23.3438 7.39321 23.6315 7.10547 23.9414 6.83984C24.3078 7.19518 24.6841 7.5383 25.0703 7.86914C25.9024 7.91968 26.1791 7.55444 25.9004 6.77344C25.5794 6.45248 25.2584 6.13151 24.9375 5.81055C25.2167 5.54256 25.4823 5.26587 25.7344 4.98047ZM22.0156 8.69922C23.2529 9.9033 24.4814 11.1207 25.7012 12.3516C25.7455 12.3959 25.7455 12.4401 25.7012 12.4844C20.3002 17.8854 14.8991 23.2865 9.49805 28.6875C8.26953 27.459 7.04102 26.2305 5.8125 25.002C11.203 19.5562 16.604 14.1219 22.0156 8.69922ZM22.6133 17.5312C26.0309 20.9156 29.4398 24.3135 32.8398 27.7246C32.5742 27.9902 32.3086 28.2559 32.043 28.5215C31.9987 28.5658 31.9544 28.5658 31.9102 28.5215C28.5566 25.168 25.2031 21.8145 21.8496 18.4609C21.8053 18.4166 21.8053 18.3724 21.8496 18.3281C22.1177 18.0712 22.3722 17.8056 22.6133 17.5312ZM20.7539 19.3906C24.1715 22.775 27.5804 26.1728 30.9805 29.584C30.0619 30.5026 29.1432 31.4212 28.2246 32.3398C27.5716 31.6869 26.9186 31.0338 26.2656 30.3809C26.7879 29.8808 27.286 29.3606 27.7598 28.8203C27.8961 28.0934 27.5973 27.7724 26.8633 27.8574C26.334 28.3202 25.825 28.8072 25.3359 29.3184C25.2916 29.3627 25.2474 29.3627 25.2031 29.3184C24.5713 28.6977 23.9515 28.0668 23.3438 27.4258C23.7855 26.9508 24.2392 26.486 24.7051 26.0312C25.0127 25.5013 24.891 25.1139 24.3398 24.8691C24.1568 24.8304 23.9797 24.8525 23.8086 24.9355C23.3105 25.4336 22.8125 25.9316 22.3145 26.4297C21.6615 25.7767 21.0084 25.1237 20.3555 24.4707C20.8314 23.9948 21.3073 23.5189 21.7832 23.043C22.0485 22.5772 21.9489 22.212 21.4844 21.9473C21.3073 21.903 21.1302 21.903 20.9531 21.9473C20.4118 22.4332 19.8806 22.9312 19.3594 23.4414C18.9066 23.0218 18.4638 22.5901 18.0312 22.1465C18.9522 21.2367 19.8597 20.318 20.7539 19.3906ZM5.08203 26.2969C6.12009 27.3017 7.14938 28.3199 8.16992 29.3516C8.21561 29.4068 8.20452 29.451 8.13672 29.4844C7.34595 29.83 6.56015 30.1842 5.7793 30.5469C5.20377 29.9713 4.62826 29.3959 4.05273 28.8203C4.00846 28.7318 4.00846 28.6432 4.05273 28.5547C4.38983 27.7973 4.73293 27.0447 5.08203 26.2969ZM2.625 31.875C2.82993 31.3044 3.07342 30.751 3.35547 30.2148C3.6875 30.5026 3.9974 30.8125 4.28516 31.1445C3.75503 31.4428 3.20165 31.6863 2.625 31.875Z" stroke="white" stroke-width="18" mask="url(#path-1-inside-1_19_83)"/>
</g>
</svg>
