<svg width="23" height="24" viewBox="0 0 23 24" fill="none" xmlns="http://www.w3.org/2000/svg">
<path fill-rule="evenodd" clip-rule="evenodd" d="M19.55 3.80625C17.3938 1.65 14.5188 0.5 11.5 0.5C5.175 0.5 0 5.675 0 12C0 14.0125 0.575009 16.025 1.58126 17.75L0 23.5L6.03752 21.9187C7.76252 22.7812 9.63125 23.3562 11.5 23.3562C17.825 23.3562 23 18.1812 23 11.8562C23 8.8375 21.7063 5.9625 19.55 3.80625ZM11.5 21.4875C9.775 21.4875 8.05001 21.0563 6.61251 20.1938L6.32499 20.05L2.73124 21.0562L3.73751 17.6062L3.44999 17.175C2.44374 15.5938 2.01249 13.8688 2.01249 12.1438C2.01249 6.96875 6.325 2.65625 11.5 2.65625C14.0875 2.65625 16.3875 3.6625 18.2563 5.3875C20.125 7.25625 20.9875 9.55625 20.9875 12.1438C20.9875 17.175 16.8188 21.4875 11.5 21.4875ZM16.675 14.3C16.3875 14.1563 14.95 13.4375 14.6625 13.4375C14.375 13.2937 14.2312 13.2938 14.0875 13.5813C13.9437 13.8688 13.3688 14.4437 13.225 14.7312C13.0813 14.875 12.9375 14.875 12.65 14.875C12.3625 14.7312 11.5 14.4438 10.35 13.4375C9.48752 12.7188 8.91251 11.7125 8.76876 11.425C8.62501 11.1375 8.76877 10.9937 8.91252 10.85C9.05627 10.7063 9.2 10.5625 9.34375 10.4187C9.4875 10.275 9.48752 10.1313 9.63127 9.9875C9.77502 9.84375 9.63127 9.7 9.63127 9.55625C9.63127 9.4125 9.05626 7.975 8.76876 7.4C8.62501 6.96875 8.33752 6.96875 8.19377 6.96875C8.05002 6.96875 7.90623 6.96875 7.61873 6.96875C7.47498 6.96875 7.18748 6.96875 6.89998 7.25625C6.61248 7.54375 5.89376 8.2625 5.89376 9.7C5.89376 11.1375 6.89999 12.4312 7.04374 12.7188C7.18749 12.8625 9.05623 15.8813 11.9312 17.0312C14.375 18.0375 14.8063 17.75 15.3813 17.75C15.9563 17.75 17.1063 17.0312 17.25 16.4563C17.5375 15.7375 17.5375 15.1625 17.3938 15.1625C17.25 14.4438 16.9625 14.4438 16.675 14.3Z" fill="white"/>
</svg>
