<svg width="73" height="73" viewBox="0 0 73 73" fill="none" xmlns="http://www.w3.org/2000/svg">
<path opacity="0.952" fill-rule="evenodd" clip-rule="evenodd" d="M35.9144 0C49.1473 0.273717 59.1994 5.98306 66.0708 17.128C70.8699 26.1926 71.618 35.5677 68.3155 45.253C70.6062 45.3728 72.1351 46.5082 72.9024 48.6591C73.0325 55.666 73.0325 62.6729 72.9024 69.6798C72.3494 71.2694 71.2759 72.3399 69.6818 72.8913C47.3545 73.0848 25.038 73.02 2.73262 72.6967C1.43488 72.0517 0.556542 71.046 0.0975984 69.6798C-0.0325328 62.6729 -0.0325328 55.666 0.0975984 48.6591C0.90741 46.4229 2.50144 45.3201 4.87968 45.3503C0.45036 30.999 3.63841 18.6395 14.4438 8.27205C20.6492 3.07 27.806 0.312644 35.9144 0ZM38.0615 3.11418C40.5899 3.74223 42.7046 5.03982 44.4051 7.00691C46.7504 9.93171 48.5397 13.1757 49.7727 16.7387C45.8969 17.3337 41.9931 17.5932 38.0615 17.5173C38.0615 12.7162 38.0615 7.91528 38.0615 3.11418ZM34.3529 3.30882C34.6131 3.30882 34.8735 3.30882 35.1337 3.30882C35.1337 8.0449 35.1337 12.7812 35.1337 17.5173C31.2147 17.5443 27.311 17.3174 23.4224 16.836C24.648 13.5155 26.3071 10.4339 28.3997 7.59082C30.0465 5.65076 32.031 4.22341 34.3529 3.30882ZM26.5454 4.67127C26.9643 4.7095 26.9967 4.90414 26.643 5.25518C23.8891 8.53967 21.8397 12.2378 20.4946 16.3495C17.7404 16.1945 15.0077 15.7402 12.2968 14.987C16.1246 10.2587 20.8743 6.82006 26.5454 4.67127ZM46.2593 4.67127C52.2654 6.52966 57.1451 9.9683 60.8984 14.987C58.2083 15.7153 55.4757 16.2342 52.7005 16.5441C51.4146 12.0965 49.2676 8.13891 46.2593 4.67127ZM10.3449 17.7119C13.3701 18.4202 16.4279 18.9391 19.5187 19.269C18.5598 23.5625 18.0392 27.9095 17.9572 32.3096C13.9233 32.3096 9.88955 32.3096 5.85562 32.3096C6.17592 27.072 7.67242 22.2061 10.3449 17.7119ZM62.2647 17.7119C62.5532 17.6609 62.8133 17.7257 63.0454 17.9065C65.699 22.3417 67.1303 27.1426 67.3395 32.3096C63.3708 32.3096 59.4019 32.3096 55.4331 32.3096C55.2791 27.9025 54.6936 23.5557 53.6764 19.269C56.6083 18.9983 59.4711 18.4794 62.2647 17.7119ZM50.5534 19.6583C51.7464 23.7663 52.397 27.9833 52.5053 32.3096C47.6906 32.3096 42.8762 32.3096 38.0615 32.3096C38.0615 28.3521 38.0615 24.3944 38.0615 20.4368C42.2728 20.4662 46.437 20.2068 50.5534 19.6583ZM22.4465 19.8529C26.6676 20.2114 30.8967 20.4061 35.1337 20.4368C35.1337 24.3944 35.1337 28.3521 35.1337 32.3096C30.3842 32.3096 25.6345 32.3096 20.885 32.3096C20.9572 28.1004 21.4778 23.9481 22.4465 19.8529ZM5.85562 35.2292C9.88955 35.2292 13.9233 35.2292 17.9572 35.2292C17.9777 38.6334 18.3031 42.007 18.9331 45.3503C15.3542 45.3828 11.7756 45.3503 8.19786 45.253C6.78822 42.0629 6.00745 38.7215 5.85562 35.2292ZM20.885 35.2292C25.6345 35.2292 30.3842 35.2292 35.1337 35.2292C35.1337 38.6028 35.1337 41.9766 35.1337 45.3503C30.774 45.3828 26.4149 45.3503 22.0561 45.253C21.274 41.965 20.8836 38.6236 20.885 35.2292ZM38.0615 35.2292C42.8762 35.2292 47.6906 35.2292 52.5053 35.2292C52.3576 38.6322 51.9672 42.0058 51.3342 45.3503C46.9099 45.3503 42.4858 45.3503 38.0615 45.3503C38.0615 41.9766 38.0615 38.6028 38.0615 35.2292ZM55.4331 35.2292C59.4019 35.2292 63.3708 35.2292 67.3395 35.2292C67.2474 38.6727 66.5318 41.9815 65.1925 45.1556C61.5489 45.4151 57.9056 45.4151 54.262 45.1556C54.9375 41.8834 55.3279 38.5746 55.4331 35.2292ZM4.87968 48.0752C26.2921 47.9798 47.6977 48.0771 69.0962 48.3671C69.7901 48.7973 70.1479 49.4137 70.1697 50.2162C70.3577 56.5171 70.2927 62.8103 69.9745 69.0959C69.5432 69.7878 68.925 70.1446 68.1203 70.1664C46.7079 70.3591 25.3025 70.2941 3.90375 69.9718C3.20986 69.5416 2.852 68.9252 2.83022 68.1227C2.70009 62.1538 2.70009 56.1851 2.83022 50.2162C3.02804 49.0137 3.71119 48.3 4.87968 48.0752Z" fill="#6907F2"/>
</svg>
